G75*
%MOIN*%
%OFA0B0*%
%FSLAX24Y24*%
%IPPOS*%
%LPD*%
%AMOC8*
5,1,8,0,0,1.08239X$1,22.5*
%
%ADD10C,0.0000*%
%ADD11R,0.0512X0.0591*%
%ADD12R,0.0591X0.0512*%
%ADD13R,0.1024X0.0551*%
%ADD14R,0.0260X0.0800*%
%ADD15R,0.0800X0.0260*%
%ADD16R,0.0945X0.0945*%
%ADD17R,0.0551X0.0709*%
D10*
X000149Y000149D02*
X000149Y017866D01*
X030563Y017866D01*
X030563Y008712D01*
X031645Y007630D01*
X031645Y000149D01*
X000149Y000149D01*
D11*
X007452Y008614D03*
X008200Y008614D03*
X019854Y003693D03*
X020602Y003693D03*
X020602Y002905D03*
X019854Y002905D03*
X019224Y000937D03*
X018476Y000937D03*
X029106Y001527D03*
X029854Y001527D03*
X027295Y007334D03*
X026547Y007334D03*
X026547Y008220D03*
X027295Y008220D03*
X023555Y016488D03*
X022807Y016488D03*
X021783Y016488D03*
X021035Y016488D03*
X004854Y016094D03*
X004106Y016094D03*
D12*
X011567Y012334D03*
X011567Y011586D03*
X017078Y013752D03*
X017078Y014500D03*
X020819Y009086D03*
X020819Y008338D03*
X020819Y007216D03*
X020819Y006468D03*
X017767Y006429D03*
X017767Y005681D03*
X017767Y007354D03*
X017767Y008102D03*
X015897Y008200D03*
X015897Y007452D03*
X015110Y002492D03*
X015110Y001744D03*
X027216Y002925D03*
X027216Y003673D03*
X029086Y006074D03*
X029086Y006822D03*
X030464Y006822D03*
X030464Y006074D03*
D13*
X002925Y013141D03*
X001311Y013141D03*
X001311Y015504D03*
X002925Y015504D03*
D14*
X012376Y013958D03*
X012876Y013958D03*
X013376Y013958D03*
X013876Y013958D03*
X014376Y013958D03*
X014876Y013958D03*
X015376Y013958D03*
X015876Y013958D03*
X015876Y011538D03*
X015376Y011538D03*
X014876Y011538D03*
X014376Y011538D03*
X013876Y011538D03*
X013376Y011538D03*
X012876Y011538D03*
X012376Y011538D03*
D15*
X028270Y003852D03*
X028270Y003352D03*
X028270Y002852D03*
X028270Y002352D03*
X030690Y002352D03*
X030690Y002852D03*
X030690Y003352D03*
X030690Y003852D03*
D16*
X016074Y005070D03*
X014342Y005070D03*
X013023Y005070D03*
X011291Y005070D03*
D17*
X018771Y016488D03*
X020110Y016488D03*
M02*
