G75*
%MOIN*%
%OFA0B0*%
%FSLAX24Y24*%
%IPPOS*%
%LPD*%
%AMOC8*
5,1,8,0,0,1.08239X$1,22.5*
%
%ADD10C,0.0000*%
%ADD11C,0.0060*%
D10*
X000149Y000149D02*
X000149Y017866D01*
X030563Y017866D01*
X030563Y008712D01*
X031645Y007630D01*
X031645Y000149D01*
X000149Y000149D01*
D11*
X024325Y016518D02*
X024442Y016635D01*
X024442Y017102D01*
X024559Y016985D02*
X024325Y016985D01*
X024792Y016985D02*
X024908Y016985D01*
X025142Y016751D01*
X025142Y016518D02*
X025142Y016985D01*
X025375Y016985D02*
X025375Y016518D01*
X025375Y016868D02*
X025842Y016868D01*
X025842Y016985D02*
X025608Y017218D01*
X025375Y016985D01*
X025842Y016985D02*
X025842Y016518D01*
X026074Y016518D02*
X026074Y016868D01*
X026191Y016985D01*
X026541Y016985D01*
X026541Y016518D01*
X026774Y016635D02*
X026774Y016868D01*
X026891Y016985D01*
X027125Y016985D01*
X027241Y016868D01*
X027241Y016635D01*
X027125Y016518D01*
X026891Y016518D01*
X026774Y016635D01*
X027474Y016518D02*
X027824Y016518D01*
X027941Y016635D01*
X027941Y016868D01*
X027824Y016985D01*
X027474Y016985D01*
X028291Y016985D02*
X028291Y016518D01*
X028408Y016518D02*
X028174Y016518D01*
X028641Y016518D02*
X028874Y016518D01*
X028757Y016518D02*
X028757Y017218D01*
X028874Y017218D01*
X029224Y017218D02*
X029224Y017335D01*
X029573Y017102D02*
X029690Y017218D01*
X029924Y017218D01*
X030040Y017102D01*
X030040Y016985D01*
X029924Y016868D01*
X029690Y016868D01*
X029573Y016751D01*
X029573Y016635D01*
X029690Y016518D01*
X029924Y016518D01*
X030040Y016635D01*
X029341Y016518D02*
X029107Y016518D01*
X029224Y016518D02*
X029224Y016985D01*
X029341Y016985D01*
X028408Y016985D02*
X028291Y016985D01*
X028291Y017218D02*
X028291Y017335D01*
M02*
