G75*
%MOIN*%
%OFA0B0*%
%FSLAX24Y24*%
%IPPOS*%
%LPD*%
%AMOC8*
5,1,8,0,0,1.08239X$1,22.5*
%
%ADD10C,0.0000*%
%ADD11R,0.0587X0.0587*%
%ADD12C,0.0587*%
%ADD13C,0.0517*%
%ADD14C,0.0600*%
%ADD15OC8,0.0600*%
%ADD16C,0.0551*%
%ADD17C,0.0885*%
%ADD18OC8,0.0517*%
%ADD19C,0.0551*%
%ADD20C,0.0705*%
%ADD21C,0.0600*%
%ADD22C,0.2300*%
%ADD23C,0.0098*%
%ADD24C,0.0315*%
%ADD25C,0.0157*%
%ADD26C,0.0354*%
%ADD27C,0.0512*%
%ADD28C,0.0276*%
D10*
X000149Y000149D02*
X000149Y017866D01*
X030563Y017866D01*
X030563Y008712D01*
X031645Y007630D01*
X031645Y000149D01*
X000149Y000149D01*
D11*
X022149Y015315D03*
D12*
X022149Y014315D03*
X022149Y013315D03*
X022149Y012315D03*
X022149Y011315D03*
X022149Y010315D03*
X022149Y009315D03*
X022149Y008315D03*
X022149Y007315D03*
X022149Y006315D03*
X022149Y005315D03*
X022149Y004315D03*
X022149Y003315D03*
X022149Y002315D03*
X025149Y002315D03*
X025149Y003315D03*
X025149Y004315D03*
X025149Y005315D03*
X025149Y006315D03*
X025149Y007315D03*
X025149Y008315D03*
X025149Y009315D03*
X025149Y010315D03*
X025149Y011315D03*
X025149Y012315D03*
X025149Y013315D03*
X025149Y014315D03*
X025149Y015315D03*
D13*
X019244Y007792D03*
X019244Y005892D03*
X005858Y003511D03*
X004661Y010582D03*
D14*
X017850Y010082D03*
D15*
X018850Y010082D03*
X019850Y010082D03*
X019850Y011082D03*
X018850Y011082D03*
X017850Y011082D03*
D16*
X006118Y007787D02*
X005567Y007787D01*
X005567Y007118D02*
X006118Y007118D01*
X006118Y006448D02*
X005567Y006448D01*
X005567Y005779D02*
X006118Y005779D01*
X006118Y005110D02*
X005567Y005110D01*
D17*
X008811Y006841D02*
X008811Y007726D01*
X008811Y001726D02*
X008811Y000841D01*
D18*
X005858Y001511D03*
X016480Y002118D03*
X017480Y002118D03*
X006661Y010582D03*
X004480Y013769D03*
X004980Y014519D03*
X003980Y014519D03*
D19*
X003220Y007826D03*
X000622Y007826D03*
D20*
X001659Y003299D02*
X002364Y003299D01*
X002364Y001330D02*
X001659Y001330D01*
X011468Y001659D02*
X011468Y002364D01*
X013437Y002364D02*
X013437Y001659D01*
D21*
X014219Y007417D02*
X014819Y007417D01*
X014819Y008417D02*
X014219Y008417D01*
X014219Y009417D02*
X014819Y009417D01*
X012260Y009417D02*
X011660Y009417D01*
X011660Y008417D02*
X012260Y008417D01*
X012260Y007417D02*
X011660Y007417D01*
X008323Y013136D02*
X008323Y013736D01*
X006543Y013736D02*
X006543Y013136D01*
X010232Y015400D02*
X010232Y016000D01*
X011232Y016000D02*
X011232Y015400D01*
X012232Y015400D02*
X012232Y016000D01*
X013232Y016000D02*
X013232Y015400D01*
X014232Y015400D02*
X014232Y016000D01*
X015232Y016000D02*
X015232Y015400D01*
X016232Y015400D02*
X016232Y016000D01*
X017232Y016000D02*
X017232Y015400D01*
X019731Y015322D02*
X020331Y015322D01*
X020331Y014322D02*
X019731Y014322D01*
X019731Y013322D02*
X020331Y013322D01*
X027802Y013551D02*
X028402Y013551D01*
X028402Y014551D02*
X027802Y014551D01*
X027802Y015551D02*
X028402Y015551D01*
X028402Y012551D02*
X027802Y012551D01*
X027802Y011551D02*
X028402Y011551D01*
X028402Y010551D02*
X027802Y010551D01*
X027802Y009551D02*
X028402Y009551D01*
X008323Y015696D02*
X008323Y016296D01*
X006543Y016296D02*
X006543Y015696D01*
D22*
X009401Y011370D03*
D23*
X009352Y011393D02*
X003889Y011393D01*
X003889Y011489D02*
X008109Y011489D01*
X008104Y011433D02*
X008104Y011419D01*
X009352Y011419D01*
X009352Y012667D01*
X009337Y012667D01*
X009211Y012655D01*
X009085Y012630D01*
X008963Y012593D01*
X008846Y012544D01*
X008733Y012484D01*
X008627Y012413D01*
X008529Y012332D01*
X008439Y012242D01*
X008358Y012144D01*
X008287Y012038D01*
X008227Y011925D01*
X008178Y011807D01*
X008141Y011685D01*
X008116Y011560D01*
X008104Y011433D01*
X008104Y011320D02*
X008104Y011306D01*
X008116Y011179D01*
X008141Y011054D01*
X008178Y010932D01*
X008227Y010814D01*
X008287Y010702D01*
X008358Y010596D01*
X008439Y010497D01*
X008529Y010407D01*
X008627Y010326D01*
X008733Y010255D01*
X008846Y010195D01*
X008963Y010146D01*
X009085Y010109D01*
X009211Y010085D01*
X009337Y010072D01*
X009352Y010072D01*
X009352Y011320D01*
X009450Y011320D01*
X009450Y010072D01*
X009465Y010072D01*
X009592Y010085D01*
X009717Y010109D01*
X009839Y010146D01*
X009957Y010195D01*
X010069Y010255D01*
X010175Y010326D01*
X010274Y010407D01*
X010364Y010497D01*
X010445Y010596D01*
X010516Y010702D01*
X010576Y010814D01*
X010624Y010932D01*
X010661Y011054D01*
X010686Y011179D01*
X010699Y011306D01*
X010699Y011320D01*
X009450Y011320D01*
X009450Y011419D01*
X009352Y011419D01*
X009352Y011320D01*
X008104Y011320D01*
X008105Y011296D02*
X003889Y011296D01*
X003889Y011199D02*
X008114Y011199D01*
X008131Y011102D02*
X003889Y011102D01*
X003889Y011005D02*
X008156Y011005D01*
X008188Y010908D02*
X006910Y010908D01*
X006829Y010988D02*
X006692Y010988D01*
X006692Y010613D01*
X007067Y010613D01*
X007067Y010750D01*
X006829Y010988D01*
X006692Y010908D02*
X006630Y010908D01*
X006630Y010988D02*
X006493Y010988D01*
X006255Y010750D01*
X006255Y010613D01*
X006630Y010613D01*
X006630Y010551D01*
X006692Y010551D01*
X006692Y010176D01*
X006829Y010176D01*
X007067Y010414D01*
X007067Y010551D01*
X006692Y010551D01*
X006692Y010613D01*
X006630Y010613D01*
X006630Y010988D01*
X006630Y010811D02*
X006692Y010811D01*
X006692Y010714D02*
X006630Y010714D01*
X006630Y010617D02*
X006692Y010617D01*
X006630Y010551D02*
X006630Y010176D01*
X006493Y010176D01*
X006255Y010414D01*
X006255Y010551D01*
X006630Y010551D01*
X006630Y010520D02*
X006692Y010520D01*
X006692Y010423D02*
X006630Y010423D01*
X006630Y010326D02*
X006692Y010326D01*
X006692Y010229D02*
X006630Y010229D01*
X006440Y010229D02*
X004870Y010229D01*
X004891Y010238D02*
X005005Y010352D01*
X005067Y010502D01*
X005067Y010663D01*
X005005Y010812D01*
X004891Y010927D01*
X004742Y010988D01*
X004580Y010988D01*
X004431Y010927D01*
X004317Y010812D01*
X004255Y010663D01*
X004255Y010502D01*
X004317Y010352D01*
X004431Y010238D01*
X004580Y010176D01*
X004742Y010176D01*
X004891Y010238D01*
X004979Y010326D02*
X006343Y010326D01*
X006255Y010423D02*
X005035Y010423D01*
X005067Y010520D02*
X006255Y010520D01*
X006255Y010617D02*
X005067Y010617D01*
X005046Y010714D02*
X006255Y010714D01*
X006315Y010811D02*
X005006Y010811D01*
X004910Y010908D02*
X006412Y010908D01*
X007007Y010811D02*
X008228Y010811D01*
X008280Y010714D02*
X007067Y010714D01*
X007067Y010617D02*
X008343Y010617D01*
X008420Y010520D02*
X007067Y010520D01*
X007067Y010423D02*
X008512Y010423D01*
X008627Y010326D02*
X006979Y010326D01*
X006882Y010229D02*
X008782Y010229D01*
X009009Y010133D02*
X003889Y010133D01*
X003889Y010229D02*
X004452Y010229D01*
X004343Y010326D02*
X003889Y010326D01*
X003889Y010423D02*
X004287Y010423D01*
X004255Y010520D02*
X003889Y010520D01*
X003889Y010617D02*
X004255Y010617D01*
X004276Y010714D02*
X003889Y010714D01*
X003889Y010811D02*
X004316Y010811D01*
X004412Y010908D02*
X003889Y010908D01*
X003889Y011567D02*
X000356Y011567D01*
X000356Y017659D01*
X030356Y017659D01*
X030356Y008627D01*
X030477Y008506D01*
X031439Y007544D01*
X031439Y000356D01*
X009148Y000356D01*
X009195Y000390D01*
X009261Y000456D01*
X009315Y000531D01*
X009358Y000614D01*
X009386Y000702D01*
X009401Y000794D01*
X009401Y001234D01*
X008860Y001234D01*
X008860Y001332D01*
X009401Y001332D01*
X009401Y001772D01*
X009386Y001864D01*
X009358Y001952D01*
X009315Y002035D01*
X009261Y002110D01*
X009195Y002176D01*
X009120Y002230D01*
X009037Y002272D01*
X008949Y002301D01*
X008860Y002315D01*
X008860Y001332D01*
X008761Y001332D01*
X008761Y001234D01*
X008220Y001234D01*
X008220Y000794D01*
X008235Y000702D01*
X008264Y000614D01*
X008306Y000531D01*
X008360Y000456D01*
X008426Y000390D01*
X008474Y000356D01*
X000356Y000356D01*
X000356Y002315D01*
X006842Y002315D01*
X006842Y006055D01*
X006441Y006055D01*
X006380Y006116D01*
X006393Y006126D01*
X006441Y006173D01*
X006480Y006227D01*
X006510Y006286D01*
X006531Y006349D01*
X006540Y006409D01*
X005882Y006409D01*
X005882Y006488D01*
X006540Y006488D01*
X006531Y006548D01*
X006510Y006611D01*
X006480Y006670D01*
X006441Y006724D01*
X006393Y006771D01*
X006380Y006781D01*
X006477Y006878D01*
X006541Y007034D01*
X006541Y007202D01*
X006477Y007357D01*
X006380Y007454D01*
X006393Y007464D01*
X006441Y007511D01*
X006480Y007565D01*
X006510Y007625D01*
X006531Y007688D01*
X006540Y007748D01*
X005882Y007748D01*
X005882Y007826D01*
X006540Y007826D01*
X006531Y007886D01*
X006510Y007949D01*
X006480Y008009D01*
X006441Y008063D01*
X006393Y008110D01*
X006340Y008149D01*
X006280Y008179D01*
X006217Y008200D01*
X006151Y008210D01*
X005881Y008210D01*
X005881Y007826D01*
X005803Y007826D01*
X005803Y007748D01*
X005144Y007748D01*
X005154Y007688D01*
X005174Y007625D01*
X005205Y007565D01*
X005244Y007511D01*
X005291Y007464D01*
X005305Y007454D01*
X005208Y007357D01*
X005143Y007202D01*
X005143Y007034D01*
X005208Y006878D01*
X005305Y006781D01*
X005291Y006771D01*
X005244Y006724D01*
X005205Y006670D01*
X005174Y006611D01*
X005154Y006548D01*
X005144Y006488D01*
X005803Y006488D01*
X005803Y006694D01*
X005881Y006694D01*
X005881Y006488D01*
X005803Y006488D01*
X005803Y006409D01*
X005881Y006409D01*
X005881Y006202D01*
X005803Y006202D01*
X005803Y006409D01*
X005144Y006409D01*
X005154Y006349D01*
X005174Y006286D01*
X005205Y006227D01*
X005244Y006173D01*
X005291Y006126D01*
X005305Y006116D01*
X005244Y006055D01*
X003889Y006055D01*
X003889Y011567D01*
X006163Y012883D02*
X006289Y012757D01*
X006454Y012689D01*
X006632Y012689D01*
X006796Y012757D01*
X006922Y012883D01*
X006990Y013047D01*
X006990Y013825D01*
X006922Y013990D01*
X006796Y014116D01*
X006632Y014184D01*
X006454Y014184D01*
X006289Y014116D01*
X006163Y013990D01*
X006095Y013825D01*
X006095Y013047D01*
X006163Y012883D01*
X006199Y012846D02*
X000356Y012846D01*
X000356Y012750D02*
X006306Y012750D01*
X006138Y012943D02*
X000356Y012943D01*
X000356Y013040D02*
X006098Y013040D01*
X006095Y013137D02*
X000356Y013137D01*
X000356Y013234D02*
X006095Y013234D01*
X006095Y013331D02*
X000356Y013331D01*
X000356Y013428D02*
X004247Y013428D01*
X004312Y013363D02*
X004648Y013363D01*
X004886Y013601D01*
X004886Y013937D01*
X004706Y014117D01*
X004706Y014219D01*
X004812Y014113D01*
X004949Y014113D01*
X004949Y014488D01*
X005011Y014488D01*
X005011Y014113D01*
X005148Y014113D01*
X005386Y014351D01*
X005386Y014489D01*
X005011Y014489D01*
X005011Y014550D01*
X005386Y014550D01*
X005386Y014687D01*
X005148Y014925D01*
X005011Y014925D01*
X005011Y014550D01*
X004949Y014550D01*
X004949Y014925D01*
X004812Y014925D01*
X004706Y014820D01*
X004706Y016394D01*
X005263Y016950D01*
X008995Y016950D01*
X008648Y016604D01*
X008576Y016676D01*
X008412Y016744D01*
X008234Y016744D01*
X008069Y016676D01*
X007943Y016550D01*
X007875Y016385D01*
X007875Y015607D01*
X007943Y015443D01*
X008069Y015317D01*
X008234Y015249D01*
X008412Y015249D01*
X008576Y015317D01*
X008702Y015443D01*
X008770Y015607D01*
X008770Y016169D01*
X009286Y016685D01*
X012666Y016685D01*
X012551Y016569D01*
X012551Y016315D01*
X012485Y016380D01*
X012321Y016448D01*
X012143Y016448D01*
X011978Y016380D01*
X011852Y016254D01*
X011784Y016089D01*
X011784Y015311D01*
X011852Y015147D01*
X011978Y015021D01*
X012143Y014953D01*
X012321Y014953D01*
X012485Y015021D01*
X012551Y015086D01*
X012551Y013376D01*
X012489Y013314D01*
X012443Y013202D01*
X012443Y013081D01*
X012489Y012969D01*
X012575Y012883D01*
X012687Y012836D01*
X012808Y012836D01*
X012920Y012883D01*
X013006Y012969D01*
X013053Y013081D01*
X013053Y013202D01*
X013006Y013314D01*
X012944Y013376D01*
X012944Y015055D01*
X012978Y015021D01*
X013143Y014953D01*
X013321Y014953D01*
X013485Y015021D01*
X013535Y015070D01*
X013535Y014979D01*
X013384Y014979D01*
X013457Y014900D02*
X013535Y014979D01*
X013457Y014900D02*
X013407Y014781D01*
X013407Y014652D01*
X013457Y014532D01*
X013548Y014441D01*
X013667Y014391D01*
X013796Y014391D01*
X013916Y014441D01*
X014007Y014532D01*
X014057Y014652D01*
X014057Y014781D01*
X014007Y014900D01*
X013929Y014979D01*
X014080Y014979D01*
X014143Y014953D02*
X013978Y015021D01*
X013929Y015070D01*
X013929Y014979D01*
X014015Y014882D02*
X014519Y014882D01*
X014519Y014979D02*
X014384Y014979D01*
X014321Y014953D02*
X014485Y015021D01*
X014519Y015055D01*
X014519Y013026D01*
X014044Y012551D01*
X013521Y012551D01*
X013497Y012561D01*
X013376Y012561D01*
X013264Y012514D01*
X013178Y012428D01*
X013131Y012316D01*
X013131Y012195D01*
X013178Y012083D01*
X013264Y011997D01*
X013376Y011950D01*
X013497Y011950D01*
X013609Y011997D01*
X013695Y012083D01*
X013726Y012157D01*
X014207Y012157D01*
X014322Y012272D01*
X014913Y012863D01*
X014913Y015086D01*
X014978Y015021D01*
X015143Y014953D01*
X015321Y014953D01*
X015485Y015021D01*
X015611Y015147D01*
X015680Y015311D01*
X015680Y016089D01*
X015611Y016254D01*
X015574Y016291D01*
X015889Y016291D01*
X015852Y016254D01*
X015784Y016089D01*
X015784Y015311D01*
X015852Y015147D01*
X015978Y015021D01*
X016143Y014953D01*
X016321Y014953D01*
X016485Y015021D01*
X016611Y015147D01*
X016680Y015311D01*
X016680Y016089D01*
X016611Y016254D01*
X016574Y016291D01*
X016889Y016291D01*
X016852Y016254D01*
X016784Y016089D01*
X016784Y015311D01*
X016852Y015147D01*
X016978Y015021D01*
X017143Y014953D01*
X017321Y014953D01*
X017485Y015021D01*
X017611Y015147D01*
X017680Y015311D01*
X017680Y016089D01*
X017611Y016254D01*
X017574Y016291D01*
X020737Y016291D01*
X021212Y015816D01*
X021212Y010973D01*
X021730Y010455D01*
X021708Y010402D01*
X021708Y010227D01*
X021775Y010065D01*
X021899Y009941D01*
X022061Y009874D01*
X022237Y009874D01*
X022399Y009941D01*
X022523Y010065D01*
X022590Y010227D01*
X022590Y010402D01*
X022523Y010564D01*
X022399Y010688D01*
X022237Y010756D01*
X022061Y010756D01*
X022008Y010734D01*
X021606Y011136D01*
X021606Y012579D01*
X021730Y012455D01*
X021708Y012402D01*
X021708Y012227D01*
X021775Y012065D01*
X021899Y011941D01*
X022061Y011874D01*
X022237Y011874D01*
X022399Y011941D01*
X022523Y012065D01*
X022590Y012227D01*
X022590Y012402D01*
X022523Y012564D01*
X022399Y012688D01*
X022237Y012756D01*
X022061Y012756D01*
X022008Y012734D01*
X021803Y012939D01*
X021803Y013037D01*
X021899Y012941D01*
X022061Y012874D01*
X022237Y012874D01*
X022399Y012941D01*
X022523Y013065D01*
X022590Y013227D01*
X022590Y013402D01*
X022523Y013564D01*
X022399Y013688D01*
X022237Y013756D01*
X022061Y013756D01*
X021899Y013688D01*
X021803Y013592D01*
X021803Y014037D01*
X021899Y013941D01*
X022061Y013874D01*
X022237Y013874D01*
X022399Y013941D01*
X022523Y014065D01*
X022590Y014227D01*
X022590Y014402D01*
X022523Y014564D01*
X022399Y014688D01*
X022237Y014756D01*
X022061Y014756D01*
X021899Y014688D01*
X021803Y014688D01*
X021899Y014688D02*
X021803Y014592D01*
X021803Y014874D01*
X022312Y014874D01*
X023378Y013808D01*
X023378Y011604D01*
X023316Y011543D01*
X023269Y011430D01*
X023269Y011309D01*
X023316Y011197D01*
X023402Y011111D01*
X023514Y011065D01*
X023635Y011065D01*
X023747Y011111D01*
X023833Y011197D01*
X023880Y011309D01*
X023880Y011430D01*
X023833Y011543D01*
X023771Y011604D01*
X023771Y013971D01*
X022590Y015152D01*
X022590Y015669D01*
X022504Y015756D01*
X022000Y015756D01*
X022000Y016176D01*
X021884Y016291D01*
X021294Y016881D01*
X022946Y016881D01*
X023008Y016820D01*
X023120Y016773D01*
X023241Y016773D01*
X023354Y016820D01*
X030356Y016820D01*
X030356Y016723D02*
X021452Y016723D01*
X021549Y016627D02*
X030356Y016627D01*
X030356Y016530D02*
X021646Y016530D01*
X021743Y016433D02*
X030356Y016433D01*
X030356Y016336D02*
X021839Y016336D01*
X021936Y016239D02*
X030356Y016239D01*
X030356Y016142D02*
X022000Y016142D01*
X022000Y016045D02*
X030356Y016045D01*
X030356Y015948D02*
X028613Y015948D01*
X028656Y015930D02*
X028491Y015998D01*
X027713Y015998D01*
X027548Y015930D01*
X027422Y015804D01*
X027399Y015748D01*
X027304Y015748D01*
X027189Y015632D01*
X025290Y013734D01*
X025237Y013756D01*
X025061Y013756D01*
X024899Y013688D01*
X024775Y013564D01*
X024708Y013402D01*
X024708Y013227D01*
X024775Y013065D01*
X024899Y012941D01*
X025061Y012874D01*
X025237Y012874D01*
X025399Y012941D01*
X025523Y013065D01*
X025590Y013227D01*
X025590Y013402D01*
X025568Y013455D01*
X027419Y015306D01*
X027422Y015297D01*
X027548Y015171D01*
X027713Y015103D01*
X028491Y015103D01*
X028656Y015171D01*
X028781Y015297D01*
X028850Y015462D01*
X028850Y015640D01*
X028781Y015804D01*
X028656Y015930D01*
X028735Y015851D02*
X030356Y015851D01*
X030356Y015754D02*
X028802Y015754D01*
X028842Y015657D02*
X030356Y015657D01*
X030356Y015560D02*
X028850Y015560D01*
X028850Y015463D02*
X030356Y015463D01*
X030356Y015367D02*
X028810Y015367D01*
X028754Y015270D02*
X030356Y015270D01*
X030356Y015173D02*
X028657Y015173D01*
X028538Y014979D02*
X030356Y014979D01*
X030356Y015076D02*
X027189Y015076D01*
X027286Y015173D02*
X027547Y015173D01*
X027450Y015270D02*
X027383Y015270D01*
X027548Y014930D02*
X027713Y014998D01*
X028491Y014998D01*
X028656Y014930D01*
X028781Y014804D01*
X028850Y014640D01*
X028850Y014462D01*
X028781Y014297D01*
X028656Y014171D01*
X028491Y014103D01*
X027713Y014103D01*
X027548Y014171D01*
X027422Y014297D01*
X027407Y014334D01*
X026330Y013257D01*
X026330Y012863D01*
X026215Y012748D01*
X025585Y012118D01*
X025545Y012118D01*
X025523Y012065D01*
X025399Y011941D01*
X025237Y011874D01*
X025061Y011874D01*
X024899Y011941D01*
X024775Y012065D01*
X024708Y012227D01*
X024708Y012402D01*
X024775Y012564D01*
X024899Y012688D01*
X025061Y012756D01*
X025237Y012756D01*
X025399Y012688D01*
X025499Y012588D01*
X025937Y013026D01*
X025937Y013420D01*
X027149Y014632D01*
X027265Y014748D01*
X027399Y014748D01*
X027422Y014804D01*
X027548Y014930D01*
X027500Y014882D02*
X026995Y014882D01*
X027092Y014979D02*
X027666Y014979D01*
X027414Y014785D02*
X026898Y014785D01*
X026801Y014688D02*
X027205Y014688D01*
X027108Y014591D02*
X026704Y014591D01*
X026607Y014494D02*
X027011Y014494D01*
X026914Y014397D02*
X026510Y014397D01*
X026413Y014300D02*
X026817Y014300D01*
X026720Y014203D02*
X026316Y014203D01*
X026220Y014106D02*
X026623Y014106D01*
X026526Y014010D02*
X026123Y014010D01*
X026026Y013913D02*
X026430Y013913D01*
X026333Y013816D02*
X025929Y013816D01*
X025832Y013719D02*
X026236Y013719D01*
X026139Y013622D02*
X025735Y013622D01*
X025638Y013525D02*
X026042Y013525D01*
X025945Y013428D02*
X025580Y013428D01*
X025590Y013331D02*
X025937Y013331D01*
X025937Y013234D02*
X025590Y013234D01*
X025553Y013137D02*
X025937Y013137D01*
X025937Y013040D02*
X025499Y013040D01*
X025402Y012943D02*
X025854Y012943D01*
X025757Y012846D02*
X023771Y012846D01*
X023771Y012750D02*
X025047Y012750D01*
X025252Y012750D02*
X025660Y012750D01*
X025563Y012653D02*
X025435Y012653D01*
X024897Y012943D02*
X023771Y012943D01*
X023771Y013040D02*
X024800Y013040D01*
X024745Y013137D02*
X023771Y013137D01*
X023771Y013234D02*
X024708Y013234D01*
X024708Y013331D02*
X023771Y013331D01*
X023771Y013428D02*
X024719Y013428D01*
X024759Y013525D02*
X023771Y013525D01*
X023771Y013622D02*
X024833Y013622D01*
X024973Y013719D02*
X023771Y013719D01*
X023771Y013816D02*
X025372Y013816D01*
X025331Y013913D02*
X025469Y013913D01*
X025399Y013941D02*
X025523Y014065D01*
X025590Y014227D01*
X025590Y014402D01*
X025523Y014564D01*
X025399Y014688D01*
X025237Y014756D01*
X025061Y014756D01*
X024899Y014688D01*
X023054Y014688D01*
X022957Y014785D02*
X026341Y014785D01*
X026244Y014688D02*
X025400Y014688D01*
X025496Y014591D02*
X026147Y014591D01*
X026050Y014494D02*
X025552Y014494D01*
X025590Y014397D02*
X025954Y014397D01*
X025857Y014300D02*
X025590Y014300D01*
X025581Y014203D02*
X025760Y014203D01*
X025663Y014106D02*
X025540Y014106D01*
X025566Y014010D02*
X025468Y014010D01*
X025399Y013941D02*
X025237Y013874D01*
X025061Y013874D01*
X024899Y013941D01*
X024775Y014065D01*
X024708Y014227D01*
X024708Y014402D01*
X024775Y014564D01*
X024899Y014688D01*
X024802Y014591D02*
X023151Y014591D01*
X023248Y014494D02*
X024746Y014494D01*
X024708Y014397D02*
X023345Y014397D01*
X023442Y014300D02*
X024708Y014300D01*
X024718Y014203D02*
X023539Y014203D01*
X023636Y014106D02*
X024758Y014106D01*
X024830Y014010D02*
X023733Y014010D01*
X023771Y013913D02*
X024967Y013913D01*
X025149Y013315D02*
X027385Y015551D01*
X028102Y015551D01*
X027591Y015948D02*
X022000Y015948D01*
X022000Y015851D02*
X027469Y015851D01*
X027402Y015754D02*
X025240Y015754D01*
X025237Y015756D02*
X025061Y015756D01*
X024899Y015688D01*
X024775Y015564D01*
X024708Y015402D01*
X024708Y015227D01*
X024775Y015065D01*
X024899Y014941D01*
X025061Y014874D01*
X025237Y014874D01*
X025399Y014941D01*
X025523Y015065D01*
X025590Y015227D01*
X025590Y015402D01*
X025523Y015564D01*
X025399Y015688D01*
X025237Y015756D01*
X025058Y015754D02*
X022505Y015754D01*
X022590Y015657D02*
X024868Y015657D01*
X024774Y015560D02*
X022590Y015560D01*
X022590Y015463D02*
X024733Y015463D01*
X024708Y015367D02*
X022590Y015367D01*
X022590Y015270D02*
X024708Y015270D01*
X024731Y015173D02*
X022590Y015173D01*
X022666Y015076D02*
X024771Y015076D01*
X024861Y014979D02*
X022763Y014979D01*
X022860Y014882D02*
X025041Y014882D01*
X025257Y014882D02*
X026438Y014882D01*
X026535Y014979D02*
X025437Y014979D01*
X025528Y015076D02*
X026632Y015076D01*
X026729Y015173D02*
X025568Y015173D01*
X025590Y015270D02*
X026826Y015270D01*
X026923Y015367D02*
X025590Y015367D01*
X025565Y015463D02*
X027020Y015463D01*
X027117Y015560D02*
X025525Y015560D01*
X025430Y015657D02*
X027214Y015657D01*
X028704Y014882D02*
X030356Y014882D01*
X030356Y014785D02*
X028789Y014785D01*
X028830Y014688D02*
X030356Y014688D01*
X030356Y014591D02*
X028850Y014591D01*
X028850Y014494D02*
X030356Y014494D01*
X030356Y014397D02*
X028823Y014397D01*
X028783Y014300D02*
X030356Y014300D01*
X030356Y014203D02*
X028688Y014203D01*
X028499Y014106D02*
X030356Y014106D01*
X030356Y014010D02*
X027083Y014010D01*
X027180Y014106D02*
X027705Y014106D01*
X027713Y013998D02*
X027548Y013930D01*
X027422Y013804D01*
X027399Y013748D01*
X027249Y013748D01*
X027133Y013632D01*
X026527Y013026D01*
X026527Y012632D01*
X025491Y011596D01*
X025399Y011688D01*
X025237Y011756D01*
X025061Y011756D01*
X024899Y011688D01*
X024775Y011564D01*
X024708Y011402D01*
X024708Y011227D01*
X024775Y011065D01*
X024899Y010941D01*
X025061Y010874D01*
X025237Y010874D01*
X025399Y010941D01*
X025523Y011065D01*
X025545Y011118D01*
X025569Y011118D01*
X026806Y012354D01*
X026921Y012469D01*
X026921Y012863D01*
X027403Y013345D01*
X027422Y013297D01*
X027548Y013171D01*
X027713Y013103D01*
X028491Y013103D01*
X028656Y013171D01*
X028781Y013297D01*
X028850Y013462D01*
X028850Y013640D01*
X028781Y013804D01*
X028656Y013930D01*
X028491Y013998D01*
X027713Y013998D01*
X027531Y013913D02*
X026986Y013913D01*
X026889Y013816D02*
X027434Y013816D01*
X027220Y013719D02*
X026792Y013719D01*
X026696Y013622D02*
X027123Y013622D01*
X027026Y013525D02*
X026599Y013525D01*
X026502Y013428D02*
X026929Y013428D01*
X026832Y013331D02*
X026405Y013331D01*
X026330Y013234D02*
X026735Y013234D01*
X026638Y013137D02*
X026330Y013137D01*
X026330Y013040D02*
X026541Y013040D01*
X026527Y012943D02*
X026330Y012943D01*
X026314Y012846D02*
X026527Y012846D01*
X026527Y012750D02*
X026217Y012750D01*
X026120Y012653D02*
X026527Y012653D01*
X026451Y012556D02*
X026023Y012556D01*
X025926Y012459D02*
X026354Y012459D01*
X026257Y012362D02*
X025829Y012362D01*
X025732Y012265D02*
X026160Y012265D01*
X026063Y012168D02*
X025635Y012168D01*
X025526Y012071D02*
X025966Y012071D01*
X025869Y011974D02*
X025433Y011974D01*
X025246Y011877D02*
X025772Y011877D01*
X025675Y011780D02*
X023771Y011780D01*
X023771Y011683D02*
X024894Y011683D01*
X024797Y011586D02*
X023789Y011586D01*
X023855Y011489D02*
X024744Y011489D01*
X024708Y011393D02*
X023880Y011393D01*
X023874Y011296D02*
X024708Y011296D01*
X024720Y011199D02*
X023834Y011199D01*
X023725Y011102D02*
X024760Y011102D01*
X024835Y011005D02*
X022737Y011005D01*
X022640Y011102D02*
X023424Y011102D01*
X023315Y011199D02*
X022579Y011199D01*
X022568Y011174D02*
X022590Y011227D01*
X022590Y011402D01*
X022523Y011564D01*
X022399Y011688D01*
X022237Y011756D01*
X022061Y011756D01*
X021899Y011688D01*
X021775Y011564D01*
X021708Y011402D01*
X021708Y011227D01*
X021775Y011065D01*
X021899Y010941D01*
X022061Y010874D01*
X022237Y010874D01*
X022290Y010895D01*
X022787Y010398D01*
X022787Y009045D01*
X022725Y008983D01*
X022679Y008871D01*
X022679Y008750D01*
X022725Y008638D01*
X022811Y008552D01*
X022923Y008506D01*
X023045Y008506D01*
X023157Y008552D01*
X023243Y008638D01*
X023289Y008750D01*
X023289Y008871D01*
X023243Y008983D01*
X023181Y009045D01*
X023181Y010561D01*
X023065Y010677D01*
X022568Y011174D01*
X022590Y011296D02*
X023275Y011296D01*
X023269Y011393D02*
X022590Y011393D01*
X022554Y011489D02*
X023294Y011489D01*
X023360Y011586D02*
X022501Y011586D01*
X022404Y011683D02*
X023378Y011683D01*
X023378Y011780D02*
X021606Y011780D01*
X021606Y011683D02*
X021894Y011683D01*
X021797Y011586D02*
X021606Y011586D01*
X021606Y011489D02*
X021744Y011489D01*
X021708Y011393D02*
X021606Y011393D01*
X021606Y011296D02*
X021708Y011296D01*
X021720Y011199D02*
X021606Y011199D01*
X021640Y011102D02*
X021760Y011102D01*
X021737Y011005D02*
X021835Y011005D01*
X021834Y010908D02*
X021978Y010908D01*
X021931Y010811D02*
X022374Y010811D01*
X022337Y010714D02*
X022471Y010714D01*
X022470Y010617D02*
X022568Y010617D01*
X022541Y010520D02*
X022665Y010520D01*
X022582Y010423D02*
X022762Y010423D01*
X022787Y010326D02*
X022590Y010326D01*
X022590Y010229D02*
X022787Y010229D01*
X022787Y010133D02*
X022551Y010133D01*
X022494Y010036D02*
X022787Y010036D01*
X022787Y009939D02*
X022394Y009939D01*
X022263Y009745D02*
X022787Y009745D01*
X022787Y009842D02*
X021342Y009842D01*
X021245Y009939D02*
X021904Y009939D01*
X021804Y010036D02*
X021148Y010036D01*
X021052Y010133D02*
X021747Y010133D01*
X021708Y010229D02*
X021025Y010229D01*
X021025Y010159D02*
X021025Y011450D01*
X020964Y011598D01*
X020850Y011712D01*
X020457Y012105D01*
X020308Y012167D01*
X018451Y012167D01*
X018303Y012105D01*
X018189Y011992D01*
X017727Y011530D01*
X017665Y011530D01*
X017620Y011486D01*
X016711Y011486D01*
X016562Y011424D01*
X016449Y011311D01*
X015927Y010789D01*
X011186Y010789D01*
X011120Y010793D01*
X011106Y010789D01*
X011093Y010789D01*
X011031Y010763D01*
X010968Y010742D01*
X010957Y010733D01*
X010944Y010728D01*
X010897Y010680D01*
X009446Y009411D01*
X008927Y009411D01*
X008779Y009350D01*
X008665Y009236D01*
X008604Y009088D01*
X008604Y008927D01*
X008665Y008779D01*
X008779Y008665D01*
X008927Y008604D01*
X009585Y008604D01*
X009651Y008599D01*
X009664Y008604D01*
X009678Y008604D01*
X009740Y008630D01*
X009803Y008651D01*
X009814Y008660D01*
X009827Y008665D01*
X009874Y008713D01*
X011324Y009982D01*
X016174Y009982D01*
X016323Y010043D01*
X016807Y010528D01*
X016773Y010446D01*
X016773Y010359D01*
X016291Y009876D01*
X016291Y004595D01*
X019841Y001045D01*
X019774Y001045D01*
X019661Y000998D01*
X019576Y000913D01*
X019529Y000800D01*
X019529Y000679D01*
X019576Y000567D01*
X019661Y000481D01*
X019774Y000435D01*
X019895Y000435D01*
X020007Y000481D01*
X020069Y000543D01*
X025821Y000543D01*
X026697Y001419D01*
X026785Y001419D01*
X026897Y001465D01*
X026983Y001551D01*
X027029Y001663D01*
X027029Y001785D01*
X026983Y001897D01*
X026897Y001983D01*
X026785Y002029D01*
X026663Y002029D01*
X026551Y001983D01*
X026465Y001897D01*
X026419Y001785D01*
X026419Y001697D01*
X025658Y000937D01*
X023262Y000937D01*
X023853Y001527D01*
X023968Y001642D01*
X023968Y003064D01*
X023992Y003040D01*
X024104Y002994D01*
X024226Y002994D01*
X024338Y003040D01*
X024424Y003126D01*
X024470Y003238D01*
X024470Y003326D01*
X024739Y003594D01*
X024805Y003594D01*
X024775Y003564D01*
X024708Y003402D01*
X024708Y003227D01*
X024775Y003065D01*
X024899Y002941D01*
X025061Y002874D01*
X025237Y002874D01*
X025399Y002941D01*
X025444Y002986D01*
X025444Y002888D01*
X025290Y002734D01*
X025237Y002756D01*
X025061Y002756D01*
X024899Y002688D01*
X024775Y002564D01*
X024708Y002402D01*
X024708Y002227D01*
X024775Y002065D01*
X024899Y001941D01*
X025061Y001874D01*
X025237Y001874D01*
X025399Y001941D01*
X025523Y002065D01*
X025590Y002227D01*
X025590Y002402D01*
X025568Y002455D01*
X025723Y002610D01*
X025838Y002725D01*
X025838Y003217D01*
X028184Y005563D01*
X028299Y005678D01*
X028299Y009103D01*
X028491Y009103D01*
X028656Y009171D01*
X028781Y009297D01*
X028850Y009462D01*
X028850Y009640D01*
X028781Y009804D01*
X028656Y009930D01*
X028491Y009998D01*
X027713Y009998D01*
X027548Y009930D01*
X027511Y009893D01*
X027511Y009910D01*
X027707Y010106D01*
X027713Y010103D01*
X028491Y010103D01*
X028656Y010171D01*
X028781Y010297D01*
X028850Y010462D01*
X028850Y010640D01*
X028781Y010804D01*
X028656Y010930D01*
X028491Y010998D01*
X027828Y010998D01*
X027933Y011103D01*
X028491Y011103D01*
X028656Y011171D01*
X028781Y011297D01*
X028850Y011462D01*
X028850Y011640D01*
X028781Y011804D01*
X028656Y011930D01*
X028491Y011998D01*
X027713Y011998D01*
X027548Y011930D01*
X027422Y011804D01*
X027354Y011640D01*
X027354Y011462D01*
X027422Y011297D01*
X027496Y011223D01*
X027036Y010763D01*
X026921Y010648D01*
X026921Y009024D01*
X027036Y008909D01*
X027511Y008434D01*
X027511Y006038D01*
X025461Y003988D01*
X025446Y003988D01*
X025523Y004065D01*
X025590Y004227D01*
X025590Y004402D01*
X025523Y004564D01*
X025399Y004688D01*
X025237Y004756D01*
X025061Y004756D01*
X024899Y004688D01*
X024775Y004564D01*
X024753Y004511D01*
X024312Y004511D01*
X024196Y004396D01*
X023771Y003971D01*
X023771Y004595D01*
X024294Y005118D01*
X024753Y005118D01*
X024775Y005065D01*
X024899Y004941D01*
X025061Y004874D01*
X025237Y004874D01*
X025399Y004941D01*
X025523Y005065D01*
X025590Y005227D01*
X025590Y005402D01*
X025523Y005564D01*
X025399Y005688D01*
X025237Y005756D01*
X025061Y005756D01*
X024899Y005688D01*
X024775Y005564D01*
X024753Y005511D01*
X024131Y005511D01*
X024015Y005396D01*
X023574Y004955D01*
X023574Y005186D01*
X024506Y006118D01*
X024753Y006118D01*
X024775Y006065D01*
X024899Y005941D01*
X025061Y005874D01*
X025237Y005874D01*
X025399Y005941D01*
X025523Y006065D01*
X025590Y006227D01*
X025590Y006402D01*
X025523Y006564D01*
X025399Y006688D01*
X025237Y006756D01*
X025061Y006756D01*
X024899Y006688D01*
X024775Y006564D01*
X024753Y006511D01*
X024343Y006511D01*
X024228Y006396D01*
X023181Y005349D01*
X023181Y004955D01*
X022740Y005396D01*
X022624Y005511D01*
X022545Y005511D01*
X022524Y005563D01*
X022573Y005563D01*
X022689Y005678D01*
X022957Y005946D01*
X023045Y005946D01*
X023157Y005993D01*
X023243Y006079D01*
X023289Y006191D01*
X023289Y006312D01*
X023243Y006424D01*
X023157Y006510D01*
X023045Y006557D01*
X022923Y006557D01*
X022811Y006510D01*
X022725Y006424D01*
X022679Y006312D01*
X022679Y006225D01*
X022526Y006072D01*
X022590Y006227D01*
X022590Y006402D01*
X022523Y006564D01*
X022399Y006688D01*
X022237Y006756D01*
X022061Y006756D01*
X021899Y006688D01*
X021775Y006564D01*
X021708Y006402D01*
X021708Y006227D01*
X021775Y006065D01*
X021884Y005956D01*
X021328Y005956D01*
X020639Y005267D01*
X020523Y005152D01*
X020523Y005108D01*
X020461Y005046D01*
X020415Y004934D01*
X020415Y004813D01*
X020461Y004701D01*
X020547Y004615D01*
X020659Y004569D01*
X020781Y004569D01*
X020893Y004615D01*
X020979Y004701D01*
X021025Y004813D01*
X021025Y004934D01*
X020979Y005046D01*
X020977Y005049D01*
X021491Y005563D01*
X021775Y005563D01*
X021708Y005402D01*
X021708Y005227D01*
X021775Y005065D01*
X021899Y004941D01*
X022061Y004874D01*
X022237Y004874D01*
X022399Y004941D01*
X022519Y005060D01*
X022984Y004595D01*
X022984Y004168D01*
X022756Y004396D01*
X022640Y004511D01*
X022545Y004511D01*
X022523Y004564D01*
X022399Y004688D01*
X022237Y004756D01*
X022061Y004756D01*
X021899Y004688D01*
X021775Y004564D01*
X021708Y004402D01*
X021708Y004227D01*
X021775Y004065D01*
X021899Y003941D01*
X022061Y003874D01*
X022237Y003874D01*
X022399Y003941D01*
X022523Y004065D01*
X022525Y004070D01*
X022787Y003808D01*
X022787Y002199D01*
X022509Y001921D01*
X022351Y001921D01*
X022399Y001941D01*
X022523Y002065D01*
X022590Y002227D01*
X022590Y002402D01*
X022523Y002564D01*
X022399Y002688D01*
X022237Y002756D01*
X022061Y002756D01*
X021899Y002688D01*
X021775Y002564D01*
X021708Y002402D01*
X021708Y002227D01*
X021775Y002065D01*
X021899Y001941D01*
X021947Y001921D01*
X021097Y001921D01*
X020927Y002091D01*
X020927Y002178D01*
X020880Y002291D01*
X020794Y002376D01*
X020682Y002423D01*
X020561Y002423D01*
X020449Y002376D01*
X020363Y002291D01*
X020317Y002178D01*
X020317Y002057D01*
X020348Y001981D01*
X017275Y005054D01*
X017275Y008926D01*
X017554Y009204D01*
X018714Y009204D01*
X018776Y009143D01*
X018888Y009096D01*
X019009Y009096D01*
X019121Y009143D01*
X019207Y009228D01*
X019254Y009340D01*
X019254Y009462D01*
X019207Y009574D01*
X019121Y009660D01*
X019078Y009678D01*
X019298Y009897D01*
X019298Y010268D01*
X019035Y010530D01*
X018665Y010530D01*
X018402Y010268D01*
X018402Y009913D01*
X018284Y009795D01*
X018196Y009795D01*
X018229Y009829D01*
X018298Y009993D01*
X018298Y010171D01*
X018229Y010336D01*
X018180Y010385D01*
X018341Y010385D01*
X018456Y010501D01*
X018627Y010672D01*
X018665Y010635D01*
X019035Y010635D01*
X019298Y010897D01*
X019298Y011268D01*
X019205Y011360D01*
X019495Y011360D01*
X019402Y011268D01*
X019402Y011131D01*
X019801Y011131D01*
X019801Y011033D01*
X019899Y011033D01*
X019899Y010635D01*
X020035Y010635D01*
X020218Y010817D01*
X020218Y010347D01*
X020035Y010530D01*
X019665Y010530D01*
X019402Y010268D01*
X019402Y009897D01*
X019665Y009635D01*
X020035Y009635D01*
X020246Y009845D01*
X020280Y009763D01*
X020957Y009086D01*
X021070Y008972D01*
X021219Y008911D01*
X021971Y008911D01*
X022061Y008874D01*
X022237Y008874D01*
X022399Y008941D01*
X022523Y009065D01*
X022590Y009227D01*
X022590Y009402D01*
X022523Y009564D01*
X022399Y009688D01*
X022237Y009756D01*
X022061Y009756D01*
X021971Y009718D01*
X021466Y009718D01*
X021025Y010159D01*
X021025Y010326D02*
X021708Y010326D01*
X021717Y010423D02*
X021025Y010423D01*
X021025Y010520D02*
X021665Y010520D01*
X021568Y010617D02*
X021025Y010617D01*
X021025Y010714D02*
X021471Y010714D01*
X021374Y010811D02*
X021025Y010811D01*
X021025Y010908D02*
X021277Y010908D01*
X021212Y011005D02*
X021025Y011005D01*
X021025Y011102D02*
X021212Y011102D01*
X021212Y011199D02*
X021025Y011199D01*
X021025Y011296D02*
X021212Y011296D01*
X021212Y011393D02*
X021025Y011393D01*
X021009Y011489D02*
X021212Y011489D01*
X021212Y011586D02*
X020969Y011586D01*
X020879Y011683D02*
X021212Y011683D01*
X021212Y011780D02*
X020782Y011780D01*
X020685Y011877D02*
X021212Y011877D01*
X021212Y011974D02*
X020588Y011974D01*
X020491Y012071D02*
X021212Y012071D01*
X021212Y012168D02*
X014218Y012168D01*
X014315Y012265D02*
X021212Y012265D01*
X021212Y012362D02*
X014412Y012362D01*
X014509Y012459D02*
X021212Y012459D01*
X021212Y012556D02*
X014606Y012556D01*
X014703Y012653D02*
X021212Y012653D01*
X021212Y012750D02*
X014800Y012750D01*
X014896Y012846D02*
X021212Y012846D01*
X021212Y012943D02*
X020585Y012943D01*
X020711Y013069D01*
X020779Y013233D01*
X020779Y013411D01*
X020711Y013576D01*
X020585Y013702D01*
X020420Y013770D01*
X019642Y013770D01*
X019478Y013702D01*
X019352Y013576D01*
X019283Y013411D01*
X019283Y013233D01*
X019352Y013069D01*
X019478Y012943D01*
X019642Y012875D01*
X020420Y012875D01*
X020585Y012943D01*
X020682Y013040D02*
X021212Y013040D01*
X021212Y013137D02*
X020739Y013137D01*
X020779Y013234D02*
X021212Y013234D01*
X021212Y013331D02*
X020779Y013331D01*
X020772Y013428D02*
X021212Y013428D01*
X021212Y013525D02*
X020732Y013525D01*
X020665Y013622D02*
X021212Y013622D01*
X021212Y013719D02*
X020544Y013719D01*
X020511Y013913D02*
X021212Y013913D01*
X021212Y014010D02*
X020651Y014010D01*
X020711Y014069D02*
X020585Y013943D01*
X020420Y013875D01*
X019642Y013875D01*
X019478Y013943D01*
X019352Y014069D01*
X019283Y014233D01*
X019283Y014411D01*
X019352Y014576D01*
X019478Y014702D01*
X019642Y014770D01*
X020420Y014770D01*
X020585Y014702D01*
X020711Y014576D01*
X020779Y014411D01*
X020779Y014233D01*
X020711Y014069D01*
X020726Y014106D02*
X021212Y014106D01*
X021212Y014203D02*
X020766Y014203D01*
X020779Y014300D02*
X021212Y014300D01*
X021212Y014397D02*
X020779Y014397D01*
X020744Y014494D02*
X021212Y014494D01*
X021212Y014591D02*
X020695Y014591D01*
X020599Y014688D02*
X021212Y014688D01*
X021212Y014785D02*
X014913Y014785D01*
X014913Y014882D02*
X019651Y014882D01*
X019626Y014886D02*
X019696Y014875D01*
X019982Y014875D01*
X019982Y015273D01*
X020080Y015273D01*
X020080Y014875D01*
X020366Y014875D01*
X020436Y014886D01*
X020503Y014908D01*
X020566Y014940D01*
X020623Y014981D01*
X020673Y015031D01*
X020714Y015088D01*
X020746Y015151D01*
X020768Y015218D01*
X020777Y015273D01*
X020080Y015273D01*
X020080Y015372D01*
X019982Y015372D01*
X019982Y015770D01*
X019696Y015770D01*
X019626Y015759D01*
X019559Y015737D01*
X019496Y015705D01*
X019439Y015664D01*
X019390Y015614D01*
X019348Y015557D01*
X019316Y015494D01*
X019294Y015427D01*
X019286Y015372D01*
X019982Y015372D01*
X019982Y015273D01*
X019286Y015273D01*
X019294Y015218D01*
X019316Y015151D01*
X019348Y015088D01*
X019390Y015031D01*
X019439Y014981D01*
X019496Y014940D01*
X019559Y014908D01*
X019626Y014886D01*
X019443Y014979D02*
X017384Y014979D01*
X017540Y015076D02*
X019357Y015076D01*
X019309Y015173D02*
X017622Y015173D01*
X017662Y015270D02*
X019286Y015270D01*
X019306Y015463D02*
X017680Y015463D01*
X017680Y015367D02*
X019982Y015367D01*
X019982Y015463D02*
X020080Y015463D01*
X020080Y015372D02*
X020080Y015770D01*
X020366Y015770D01*
X020436Y015759D01*
X020503Y015737D01*
X020566Y015705D01*
X020623Y015664D01*
X020673Y015614D01*
X020714Y015557D01*
X020746Y015494D01*
X020768Y015427D01*
X020777Y015372D01*
X020080Y015372D01*
X020080Y015367D02*
X021212Y015367D01*
X021212Y015463D02*
X020756Y015463D01*
X020712Y015560D02*
X021212Y015560D01*
X021212Y015657D02*
X020629Y015657D01*
X020451Y015754D02*
X021212Y015754D01*
X021177Y015851D02*
X017680Y015851D01*
X017680Y015754D02*
X019611Y015754D01*
X019433Y015657D02*
X017680Y015657D01*
X017680Y015560D02*
X019351Y015560D01*
X019982Y015560D02*
X020080Y015560D01*
X020080Y015657D02*
X019982Y015657D01*
X019982Y015754D02*
X020080Y015754D01*
X020886Y016142D02*
X017658Y016142D01*
X017680Y016045D02*
X020983Y016045D01*
X021080Y015948D02*
X017680Y015948D01*
X017618Y016239D02*
X020789Y016239D01*
X020819Y016488D02*
X021409Y015897D01*
X021409Y011055D01*
X022149Y010315D01*
X022931Y010811D02*
X025690Y010811D01*
X025593Y010714D02*
X025337Y010714D01*
X025399Y010688D02*
X025237Y010756D01*
X025061Y010756D01*
X024899Y010688D01*
X024775Y010564D01*
X024708Y010402D01*
X024708Y010227D01*
X024775Y010065D01*
X024899Y009941D01*
X025061Y009874D01*
X025237Y009874D01*
X025399Y009941D01*
X025523Y010065D01*
X025545Y010118D01*
X025554Y010118D01*
X027396Y011960D01*
X027511Y012076D01*
X027511Y012208D01*
X027548Y012171D01*
X027713Y012103D01*
X028491Y012103D01*
X028656Y012171D01*
X028781Y012297D01*
X028850Y012462D01*
X028850Y012640D01*
X028781Y012804D01*
X028656Y012930D01*
X028491Y012998D01*
X027713Y012998D01*
X027548Y012930D01*
X027422Y012804D01*
X027377Y012695D01*
X027315Y012632D01*
X027118Y012435D01*
X027118Y012239D01*
X025483Y010604D01*
X025399Y010688D01*
X025470Y010617D02*
X025496Y010617D01*
X025472Y010315D02*
X025149Y010315D01*
X025472Y010315D02*
X027315Y012157D01*
X027315Y012354D01*
X027511Y012551D01*
X028102Y012551D01*
X028624Y012943D02*
X030356Y012943D01*
X030356Y012846D02*
X028739Y012846D01*
X028804Y012750D02*
X030356Y012750D01*
X030356Y012653D02*
X028844Y012653D01*
X028850Y012556D02*
X030356Y012556D01*
X030356Y012459D02*
X028848Y012459D01*
X028808Y012362D02*
X030356Y012362D01*
X030356Y012265D02*
X028749Y012265D01*
X028647Y012168D02*
X030356Y012168D01*
X030356Y012071D02*
X027507Y012071D01*
X027511Y012168D02*
X027556Y012168D01*
X027654Y011974D02*
X027410Y011974D01*
X027495Y011877D02*
X027313Y011877D01*
X027216Y011780D02*
X027413Y011780D01*
X027372Y011683D02*
X027119Y011683D01*
X027022Y011586D02*
X027354Y011586D01*
X027354Y011489D02*
X026925Y011489D01*
X026828Y011393D02*
X027383Y011393D01*
X027424Y011296D02*
X026732Y011296D01*
X026635Y011199D02*
X027472Y011199D01*
X027375Y011102D02*
X026538Y011102D01*
X026441Y011005D02*
X027278Y011005D01*
X027181Y010908D02*
X026344Y010908D01*
X026247Y010811D02*
X027084Y010811D01*
X027036Y010763D02*
X027036Y010763D01*
X026987Y010714D02*
X026150Y010714D01*
X026053Y010617D02*
X026921Y010617D01*
X026921Y010520D02*
X025956Y010520D01*
X025859Y010423D02*
X026921Y010423D01*
X026921Y010326D02*
X025762Y010326D01*
X025665Y010229D02*
X026921Y010229D01*
X026921Y010133D02*
X025568Y010133D01*
X025494Y010036D02*
X026921Y010036D01*
X026921Y009939D02*
X025394Y009939D01*
X025319Y009723D02*
X025252Y009745D01*
X026921Y009745D01*
X026921Y009842D02*
X023181Y009842D01*
X023181Y009939D02*
X024904Y009939D01*
X024804Y010036D02*
X023181Y010036D01*
X023181Y010133D02*
X024747Y010133D01*
X024708Y010229D02*
X023181Y010229D01*
X023181Y010326D02*
X024708Y010326D01*
X024717Y010423D02*
X023181Y010423D01*
X023181Y010520D02*
X024757Y010520D01*
X024828Y010617D02*
X023125Y010617D01*
X023028Y010714D02*
X024961Y010714D01*
X024978Y010908D02*
X022834Y010908D01*
X022984Y010480D02*
X022149Y011315D01*
X022053Y011877D02*
X021606Y011877D01*
X021606Y011974D02*
X021866Y011974D01*
X021773Y012071D02*
X021606Y012071D01*
X021606Y012168D02*
X021733Y012168D01*
X021708Y012265D02*
X021606Y012265D01*
X021606Y012362D02*
X021708Y012362D01*
X021727Y012459D02*
X021606Y012459D01*
X021606Y012556D02*
X021630Y012556D01*
X021606Y012858D02*
X022149Y012315D01*
X022567Y012459D02*
X023378Y012459D01*
X023378Y012556D02*
X022527Y012556D01*
X022435Y012653D02*
X023378Y012653D01*
X023378Y012750D02*
X022252Y012750D01*
X022047Y012750D02*
X021993Y012750D01*
X021896Y012846D02*
X023378Y012846D01*
X023378Y012943D02*
X022402Y012943D01*
X022499Y013040D02*
X023378Y013040D01*
X023378Y013137D02*
X022553Y013137D01*
X022590Y013234D02*
X023378Y013234D01*
X023378Y013331D02*
X022590Y013331D01*
X022580Y013428D02*
X023378Y013428D01*
X023378Y013525D02*
X022539Y013525D01*
X022466Y013622D02*
X023378Y013622D01*
X023378Y013719D02*
X022326Y013719D01*
X022331Y013913D02*
X023273Y013913D01*
X023176Y014010D02*
X022468Y014010D01*
X022540Y014106D02*
X023079Y014106D01*
X022982Y014203D02*
X022581Y014203D01*
X022590Y014300D02*
X022885Y014300D01*
X022788Y014397D02*
X022590Y014397D01*
X022552Y014494D02*
X022691Y014494D01*
X022594Y014591D02*
X022496Y014591D01*
X022497Y014688D02*
X022400Y014688D01*
X022400Y014785D02*
X021803Y014785D01*
X021212Y014882D02*
X020411Y014882D01*
X020620Y014979D02*
X021212Y014979D01*
X021212Y015076D02*
X020705Y015076D01*
X020753Y015173D02*
X021212Y015173D01*
X021212Y015270D02*
X020776Y015270D01*
X020080Y015270D02*
X019982Y015270D01*
X019982Y015173D02*
X020080Y015173D01*
X020080Y015076D02*
X019982Y015076D01*
X019982Y014979D02*
X020080Y014979D01*
X020080Y014882D02*
X019982Y014882D01*
X019464Y014688D02*
X014913Y014688D01*
X014913Y014591D02*
X019367Y014591D01*
X019318Y014494D02*
X014913Y014494D01*
X014913Y014397D02*
X019283Y014397D01*
X019283Y014300D02*
X014913Y014300D01*
X014913Y014203D02*
X019296Y014203D01*
X019336Y014106D02*
X014913Y014106D01*
X014913Y014010D02*
X019411Y014010D01*
X019551Y013913D02*
X014913Y013913D01*
X014913Y013816D02*
X021212Y013816D01*
X021803Y013816D02*
X023370Y013816D01*
X023574Y013889D02*
X022149Y015315D01*
X021803Y015661D01*
X021803Y016094D01*
X021015Y016881D01*
X013141Y016881D01*
X012748Y016488D01*
X012748Y013141D01*
X013053Y013137D02*
X014519Y013137D01*
X014519Y013040D02*
X013036Y013040D01*
X012981Y012943D02*
X014437Y012943D01*
X014340Y012846D02*
X012833Y012846D01*
X012662Y012846D02*
X008666Y012846D01*
X008702Y012883D02*
X008770Y013047D01*
X008770Y013825D01*
X008702Y013990D01*
X008576Y014116D01*
X008412Y014184D01*
X008234Y014184D01*
X008069Y014116D01*
X007943Y013990D01*
X007875Y013825D01*
X007875Y013047D01*
X007943Y012883D01*
X008069Y012757D01*
X008234Y012689D01*
X008412Y012689D01*
X008576Y012757D01*
X008702Y012883D01*
X008727Y012943D02*
X012514Y012943D01*
X012459Y013040D02*
X008767Y013040D01*
X008770Y013137D02*
X012443Y013137D01*
X012456Y013234D02*
X008770Y013234D01*
X008770Y013331D02*
X012506Y013331D01*
X012551Y013428D02*
X008770Y013428D01*
X008770Y013525D02*
X012551Y013525D01*
X012551Y013622D02*
X008770Y013622D01*
X008770Y013719D02*
X012551Y013719D01*
X012551Y013816D02*
X008770Y013816D01*
X008734Y013913D02*
X012551Y013913D01*
X012551Y014010D02*
X008682Y014010D01*
X008585Y014106D02*
X012551Y014106D01*
X012551Y014203D02*
X005238Y014203D01*
X005335Y014300D02*
X012551Y014300D01*
X012551Y014397D02*
X005386Y014397D01*
X005386Y014591D02*
X012551Y014591D01*
X012551Y014494D02*
X005011Y014494D01*
X005011Y014397D02*
X004949Y014397D01*
X004949Y014300D02*
X005011Y014300D01*
X005011Y014203D02*
X004949Y014203D01*
X004722Y014203D02*
X004706Y014203D01*
X004717Y014106D02*
X006280Y014106D01*
X006183Y014010D02*
X004814Y014010D01*
X004886Y013913D02*
X006131Y013913D01*
X006095Y013816D02*
X004886Y013816D01*
X004886Y013719D02*
X006095Y013719D01*
X006095Y013622D02*
X004886Y013622D01*
X004810Y013525D02*
X006095Y013525D01*
X006095Y013428D02*
X004713Y013428D01*
X004312Y013363D02*
X004074Y013601D01*
X004074Y013937D01*
X004254Y014117D01*
X004254Y014219D01*
X004148Y014113D01*
X003812Y014113D01*
X003574Y014351D01*
X003574Y014687D01*
X003812Y014925D01*
X004148Y014925D01*
X004254Y014820D01*
X004254Y016582D01*
X004386Y016714D01*
X005075Y017403D01*
X017785Y017403D01*
X017804Y017448D01*
X017890Y017534D01*
X018002Y017580D01*
X018123Y017580D01*
X018235Y017534D01*
X018321Y017448D01*
X018368Y017336D01*
X018368Y017275D01*
X022946Y017275D01*
X023008Y017337D01*
X023120Y017383D01*
X023241Y017383D01*
X023354Y017337D01*
X023439Y017251D01*
X023486Y017139D01*
X023486Y017018D01*
X023439Y016906D01*
X023354Y016820D01*
X023444Y016917D02*
X030356Y016917D01*
X030356Y017014D02*
X023484Y017014D01*
X023486Y017111D02*
X030356Y017111D01*
X030356Y017208D02*
X023457Y017208D01*
X023386Y017305D02*
X030356Y017305D01*
X030356Y017402D02*
X018340Y017402D01*
X018368Y017305D02*
X022976Y017305D01*
X023181Y017078D02*
X018259Y017078D01*
X018063Y017275D01*
X018270Y017499D02*
X030356Y017499D01*
X030356Y017596D02*
X000356Y017596D01*
X000356Y017499D02*
X017855Y017499D01*
X016846Y016239D02*
X016618Y016239D01*
X016658Y016142D02*
X016806Y016142D01*
X016784Y016045D02*
X016680Y016045D01*
X016680Y015948D02*
X016784Y015948D01*
X016784Y015851D02*
X016680Y015851D01*
X016680Y015754D02*
X016784Y015754D01*
X016784Y015657D02*
X016680Y015657D01*
X016680Y015560D02*
X016784Y015560D01*
X016784Y015463D02*
X016680Y015463D01*
X016680Y015367D02*
X016784Y015367D01*
X016802Y015270D02*
X016662Y015270D01*
X016622Y015173D02*
X016842Y015173D01*
X016923Y015076D02*
X016540Y015076D01*
X016384Y014979D02*
X017080Y014979D01*
X016080Y014979D02*
X015384Y014979D01*
X015540Y015076D02*
X015923Y015076D01*
X015842Y015173D02*
X015622Y015173D01*
X015662Y015270D02*
X015802Y015270D01*
X015784Y015367D02*
X015680Y015367D01*
X015680Y015463D02*
X015784Y015463D01*
X015784Y015560D02*
X015680Y015560D01*
X015680Y015657D02*
X015784Y015657D01*
X015784Y015754D02*
X015680Y015754D01*
X015680Y015851D02*
X015784Y015851D01*
X015784Y015948D02*
X015680Y015948D01*
X015680Y016045D02*
X015784Y016045D01*
X015806Y016142D02*
X015658Y016142D01*
X015618Y016239D02*
X015846Y016239D01*
X015011Y016488D02*
X014716Y016193D01*
X014716Y012944D01*
X014126Y012354D01*
X013535Y012354D01*
X013437Y012256D01*
X013555Y011974D02*
X018171Y011974D01*
X018074Y011877D02*
X010596Y011877D01*
X010576Y011925D02*
X010624Y011807D01*
X010661Y011685D01*
X010686Y011560D01*
X010699Y011433D01*
X010699Y011419D01*
X009450Y011419D01*
X009450Y012667D01*
X009465Y012667D01*
X009592Y012655D01*
X009717Y012630D01*
X009839Y012593D01*
X009957Y012544D01*
X010069Y012484D01*
X010175Y012413D01*
X010274Y012332D01*
X010364Y012242D01*
X010445Y012144D01*
X010516Y012038D01*
X010576Y011925D01*
X010549Y011974D02*
X013319Y011974D01*
X013190Y012071D02*
X010493Y012071D01*
X010425Y012168D02*
X013143Y012168D01*
X013131Y012265D02*
X010341Y012265D01*
X010238Y012362D02*
X013150Y012362D01*
X013208Y012459D02*
X010107Y012459D01*
X009929Y012556D02*
X013364Y012556D01*
X013509Y012556D02*
X014049Y012556D01*
X014146Y012653D02*
X009603Y012653D01*
X009450Y012653D02*
X009352Y012653D01*
X009352Y012556D02*
X009450Y012556D01*
X009450Y012459D02*
X009352Y012459D01*
X009352Y012362D02*
X009450Y012362D01*
X009450Y012265D02*
X009352Y012265D01*
X009352Y012168D02*
X009450Y012168D01*
X009450Y012071D02*
X009352Y012071D01*
X009352Y011974D02*
X009450Y011974D01*
X009450Y011877D02*
X009352Y011877D01*
X009352Y011780D02*
X009450Y011780D01*
X009450Y011683D02*
X009352Y011683D01*
X009352Y011586D02*
X009450Y011586D01*
X009450Y011489D02*
X009352Y011489D01*
X009450Y011393D02*
X016531Y011393D01*
X016434Y011296D02*
X010698Y011296D01*
X010688Y011199D02*
X016337Y011199D01*
X016240Y011102D02*
X010671Y011102D01*
X010647Y011005D02*
X016143Y011005D01*
X016046Y010908D02*
X010614Y010908D01*
X010574Y010811D02*
X015949Y010811D01*
X016606Y010326D02*
X016741Y010326D01*
X016773Y010423D02*
X016703Y010423D01*
X016800Y010520D02*
X016804Y010520D01*
X017078Y010385D02*
X016488Y009795D01*
X016488Y004677D01*
X020228Y000937D01*
X022984Y000937D01*
X023771Y001724D01*
X023771Y003693D01*
X024393Y004315D01*
X025149Y004315D01*
X025485Y004026D02*
X025500Y004026D01*
X025547Y004123D02*
X025597Y004123D01*
X025587Y004220D02*
X025694Y004220D01*
X025791Y004317D02*
X025590Y004317D01*
X025585Y004414D02*
X025888Y004414D01*
X025984Y004511D02*
X025545Y004511D01*
X025480Y004608D02*
X026081Y004608D01*
X026178Y004705D02*
X025360Y004705D01*
X025297Y004899D02*
X026372Y004899D01*
X026469Y004995D02*
X025454Y004995D01*
X025535Y005092D02*
X026566Y005092D01*
X026663Y005189D02*
X025575Y005189D01*
X025590Y005286D02*
X026760Y005286D01*
X026857Y005383D02*
X025590Y005383D01*
X025558Y005480D02*
X026954Y005480D01*
X027051Y005577D02*
X025510Y005577D01*
X025414Y005674D02*
X027148Y005674D01*
X027244Y005771D02*
X024160Y005771D01*
X024256Y005868D02*
X027341Y005868D01*
X027438Y005965D02*
X025423Y005965D01*
X025520Y006062D02*
X027511Y006062D01*
X027511Y006159D02*
X025562Y006159D01*
X025590Y006256D02*
X027511Y006256D01*
X027511Y006352D02*
X025590Y006352D01*
X025571Y006449D02*
X027511Y006449D01*
X027511Y006546D02*
X025531Y006546D01*
X025444Y006643D02*
X027511Y006643D01*
X027511Y006740D02*
X025274Y006740D01*
X025237Y006874D02*
X025061Y006874D01*
X024899Y006941D01*
X024775Y007065D01*
X024708Y007227D01*
X024708Y007402D01*
X024775Y007564D01*
X024899Y007688D01*
X025061Y007756D01*
X025237Y007756D01*
X025399Y007688D01*
X025523Y007564D01*
X025590Y007402D01*
X025590Y007227D01*
X025523Y007065D01*
X025399Y006941D01*
X025237Y006874D01*
X025383Y006934D02*
X027511Y006934D01*
X027511Y007031D02*
X025489Y007031D01*
X025549Y007128D02*
X027511Y007128D01*
X027511Y007225D02*
X025589Y007225D01*
X025590Y007322D02*
X027511Y007322D01*
X027511Y007419D02*
X025584Y007419D01*
X025543Y007516D02*
X027511Y007516D01*
X027511Y007612D02*
X025475Y007612D01*
X025349Y007709D02*
X027511Y007709D01*
X027511Y007806D02*
X019650Y007806D01*
X019650Y007873D02*
X019588Y008022D01*
X019474Y008136D01*
X019324Y008198D01*
X019163Y008198D01*
X019014Y008136D01*
X018899Y008022D01*
X018838Y007873D01*
X018838Y007711D01*
X018899Y007562D01*
X019014Y007448D01*
X019163Y007386D01*
X019324Y007386D01*
X019474Y007448D01*
X019588Y007562D01*
X019650Y007711D01*
X019650Y007873D01*
X019637Y007903D02*
X021988Y007903D01*
X021980Y007906D02*
X022046Y007884D01*
X022101Y007876D01*
X022101Y008266D01*
X022198Y008266D01*
X022198Y008363D01*
X022588Y008363D01*
X022579Y008418D01*
X022558Y008484D01*
X022526Y008546D01*
X022486Y008602D01*
X022437Y008651D01*
X022380Y008692D01*
X022319Y008723D01*
X022252Y008745D01*
X022198Y008753D01*
X022198Y008363D01*
X022101Y008363D01*
X022101Y008753D01*
X022046Y008745D01*
X021980Y008723D01*
X021918Y008692D01*
X021862Y008651D01*
X021813Y008602D01*
X021772Y008546D01*
X021740Y008484D01*
X021719Y008418D01*
X021710Y008363D01*
X022101Y008363D01*
X022101Y008266D01*
X021710Y008266D01*
X021719Y008211D01*
X021740Y008145D01*
X021772Y008083D01*
X021813Y008027D01*
X021862Y007978D01*
X021918Y007937D01*
X021980Y007906D01*
X022101Y007903D02*
X022198Y007903D01*
X022198Y007876D02*
X022252Y007884D01*
X022319Y007906D01*
X022380Y007937D01*
X022437Y007978D01*
X022486Y008027D01*
X022526Y008083D01*
X022558Y008145D01*
X022579Y008211D01*
X022588Y008266D01*
X022198Y008266D01*
X022198Y007876D01*
X022311Y007903D02*
X024990Y007903D01*
X025061Y007874D02*
X025237Y007874D01*
X025399Y007941D01*
X025523Y008065D01*
X025590Y008227D01*
X025590Y008402D01*
X025523Y008564D01*
X025399Y008688D01*
X025237Y008756D01*
X025061Y008756D01*
X024899Y008688D01*
X024775Y008564D01*
X024708Y008402D01*
X024708Y008227D01*
X024775Y008065D01*
X024899Y007941D01*
X025061Y007874D01*
X024950Y007709D02*
X022349Y007709D01*
X022399Y007688D02*
X022237Y007756D01*
X022061Y007756D01*
X021899Y007688D01*
X021775Y007564D01*
X021708Y007402D01*
X021708Y007227D01*
X021775Y007065D01*
X021899Y006941D01*
X022061Y006874D01*
X022237Y006874D01*
X022399Y006941D01*
X022523Y007065D01*
X022590Y007227D01*
X022590Y007402D01*
X022523Y007564D01*
X022399Y007688D01*
X022475Y007612D02*
X024823Y007612D01*
X024755Y007516D02*
X022543Y007516D01*
X022584Y007419D02*
X024715Y007419D01*
X024708Y007322D02*
X022590Y007322D01*
X022589Y007225D02*
X024709Y007225D01*
X024749Y007128D02*
X022549Y007128D01*
X022489Y007031D02*
X024809Y007031D01*
X024915Y006934D02*
X022383Y006934D01*
X022274Y006740D02*
X025024Y006740D01*
X024854Y006643D02*
X022444Y006643D01*
X022531Y006546D02*
X022898Y006546D01*
X023070Y006546D02*
X024768Y006546D01*
X024425Y006315D02*
X025149Y006315D01*
X024875Y005965D02*
X024353Y005965D01*
X024450Y006062D02*
X024778Y006062D01*
X024885Y005674D02*
X024063Y005674D01*
X023966Y005577D02*
X024788Y005577D01*
X025149Y005315D02*
X024212Y005315D01*
X023574Y004677D01*
X023574Y001822D01*
X022885Y001133D01*
X020326Y001133D01*
X016685Y004775D01*
X016685Y009204D01*
X017563Y010082D01*
X017850Y010082D01*
X018274Y010229D02*
X018402Y010229D01*
X018402Y010133D02*
X018298Y010133D01*
X018298Y010036D02*
X018402Y010036D01*
X018402Y009939D02*
X018275Y009939D01*
X018235Y009842D02*
X018331Y009842D01*
X018366Y009598D02*
X017374Y009598D01*
X016881Y009106D01*
X016881Y004874D01*
X020425Y001330D01*
X022787Y001330D01*
X023378Y001921D01*
X023378Y005267D01*
X024425Y006315D01*
X024281Y006449D02*
X023218Y006449D01*
X023272Y006352D02*
X024184Y006352D01*
X024087Y006256D02*
X023289Y006256D01*
X023276Y006159D02*
X023990Y006159D01*
X023894Y006062D02*
X023225Y006062D01*
X023089Y005965D02*
X023797Y005965D01*
X023700Y005868D02*
X022878Y005868D01*
X022782Y005771D02*
X023603Y005771D01*
X023506Y005674D02*
X022685Y005674D01*
X022588Y005577D02*
X023409Y005577D01*
X023312Y005480D02*
X022656Y005480D01*
X022753Y005383D02*
X023215Y005383D01*
X023181Y005286D02*
X022850Y005286D01*
X022947Y005189D02*
X023181Y005189D01*
X023181Y005092D02*
X023043Y005092D01*
X023140Y004995D02*
X023181Y004995D01*
X023574Y004995D02*
X023615Y004995D01*
X023574Y005092D02*
X023712Y005092D01*
X023809Y005189D02*
X023578Y005189D01*
X023675Y005286D02*
X023906Y005286D01*
X024002Y005383D02*
X023772Y005383D01*
X023869Y005480D02*
X024099Y005480D01*
X024268Y005092D02*
X024764Y005092D01*
X024845Y004995D02*
X024172Y004995D01*
X024075Y004899D02*
X025001Y004899D01*
X024939Y004705D02*
X023881Y004705D01*
X023978Y004802D02*
X026275Y004802D01*
X027035Y004414D02*
X031439Y004414D01*
X031439Y004511D02*
X027132Y004511D01*
X027229Y004608D02*
X031439Y004608D01*
X031439Y004705D02*
X027326Y004705D01*
X027423Y004802D02*
X031439Y004802D01*
X031439Y004899D02*
X027519Y004899D01*
X027616Y004995D02*
X031439Y004995D01*
X031439Y005092D02*
X027713Y005092D01*
X027810Y005189D02*
X031439Y005189D01*
X031439Y005286D02*
X027907Y005286D01*
X028004Y005383D02*
X031439Y005383D01*
X031439Y005480D02*
X028101Y005480D01*
X028198Y005577D02*
X031439Y005577D01*
X031439Y005674D02*
X028295Y005674D01*
X028299Y005771D02*
X031439Y005771D01*
X031439Y005868D02*
X028299Y005868D01*
X028299Y005965D02*
X031439Y005965D01*
X031439Y006062D02*
X028299Y006062D01*
X028299Y006159D02*
X031439Y006159D01*
X031439Y006256D02*
X028299Y006256D01*
X028299Y006352D02*
X031439Y006352D01*
X031439Y006449D02*
X028299Y006449D01*
X028299Y006546D02*
X031439Y006546D01*
X031439Y006643D02*
X028299Y006643D01*
X028299Y006740D02*
X031439Y006740D01*
X031439Y006837D02*
X028299Y006837D01*
X028299Y006934D02*
X031439Y006934D01*
X031439Y007031D02*
X028299Y007031D01*
X028299Y007128D02*
X031439Y007128D01*
X031439Y007225D02*
X028299Y007225D01*
X028299Y007322D02*
X028981Y007322D01*
X029022Y007305D02*
X029151Y007305D01*
X029270Y007354D01*
X029349Y007433D01*
X030202Y007433D01*
X030280Y007354D01*
X030400Y007305D01*
X030529Y007305D01*
X030648Y007354D01*
X030740Y007446D01*
X030789Y007565D01*
X030789Y007694D01*
X030740Y007814D01*
X030648Y007905D01*
X030529Y007954D01*
X030400Y007954D01*
X030280Y007905D01*
X030202Y007826D01*
X029349Y007826D01*
X029270Y007905D01*
X029151Y007954D01*
X029022Y007954D01*
X028902Y007905D01*
X028811Y007814D01*
X028761Y007694D01*
X028761Y007565D01*
X028811Y007446D01*
X028902Y007354D01*
X029022Y007305D01*
X029192Y007322D02*
X030359Y007322D01*
X030216Y007419D02*
X029335Y007419D01*
X029086Y007630D02*
X030464Y007630D01*
X030769Y007516D02*
X031439Y007516D01*
X031439Y007419D02*
X030713Y007419D01*
X030570Y007322D02*
X031439Y007322D01*
X031370Y007612D02*
X030789Y007612D01*
X030783Y007709D02*
X031273Y007709D01*
X031176Y007806D02*
X030743Y007806D01*
X030650Y007903D02*
X031079Y007903D01*
X030982Y008000D02*
X028299Y008000D01*
X028299Y007903D02*
X028901Y007903D01*
X028808Y007806D02*
X028299Y007806D01*
X028299Y007709D02*
X028768Y007709D01*
X028761Y007612D02*
X028299Y007612D01*
X028299Y007516D02*
X028782Y007516D01*
X028838Y007419D02*
X028299Y007419D01*
X027511Y007903D02*
X025309Y007903D01*
X025459Y008000D02*
X027511Y008000D01*
X027511Y008097D02*
X025537Y008097D01*
X025577Y008194D02*
X027511Y008194D01*
X027511Y008291D02*
X025590Y008291D01*
X025590Y008388D02*
X027511Y008388D01*
X027460Y008485D02*
X025556Y008485D01*
X025506Y008582D02*
X027364Y008582D01*
X027267Y008679D02*
X025409Y008679D01*
X025319Y008906D02*
X025380Y008937D01*
X025437Y008978D01*
X025486Y009027D01*
X025526Y009083D01*
X025558Y009145D01*
X025579Y009211D01*
X025588Y009266D01*
X025198Y009266D01*
X025198Y009363D01*
X025588Y009363D01*
X025579Y009418D01*
X025558Y009484D01*
X025526Y009546D01*
X025486Y009602D01*
X025437Y009651D01*
X025380Y009692D01*
X025319Y009723D01*
X025252Y009745D02*
X025198Y009753D01*
X025198Y009363D01*
X025101Y009363D01*
X025101Y009753D01*
X025046Y009745D01*
X024980Y009723D01*
X024918Y009692D01*
X024862Y009651D01*
X024813Y009602D01*
X024772Y009546D01*
X024740Y009484D01*
X024719Y009418D01*
X024710Y009363D01*
X025101Y009363D01*
X025101Y009266D01*
X025198Y009266D01*
X025198Y008876D01*
X025252Y008884D01*
X025319Y008906D01*
X025425Y008969D02*
X026976Y008969D01*
X026921Y009066D02*
X025514Y009066D01*
X025564Y009163D02*
X026921Y009163D01*
X026921Y009260D02*
X025587Y009260D01*
X025568Y009454D02*
X026921Y009454D01*
X026921Y009357D02*
X025198Y009357D01*
X025198Y009260D02*
X025101Y009260D01*
X025101Y009266D02*
X025101Y008876D01*
X025046Y008884D01*
X024980Y008906D01*
X024918Y008937D01*
X024862Y008978D01*
X024813Y009027D01*
X024772Y009083D01*
X024740Y009145D01*
X024719Y009211D01*
X024710Y009266D01*
X025101Y009266D01*
X025101Y009357D02*
X023181Y009357D01*
X023181Y009260D02*
X024711Y009260D01*
X024735Y009163D02*
X023181Y009163D01*
X023181Y009066D02*
X024784Y009066D01*
X024874Y008969D02*
X023248Y008969D01*
X023288Y008873D02*
X027073Y008873D01*
X027170Y008776D02*
X023289Y008776D01*
X023259Y008679D02*
X024890Y008679D01*
X024793Y008582D02*
X023186Y008582D01*
X022984Y008811D02*
X022984Y010480D01*
X023181Y009745D02*
X025046Y009745D01*
X025101Y009745D02*
X025198Y009745D01*
X025198Y009648D02*
X025101Y009648D01*
X025101Y009551D02*
X025198Y009551D01*
X025198Y009454D02*
X025101Y009454D01*
X024859Y009648D02*
X023181Y009648D01*
X023181Y009551D02*
X024776Y009551D01*
X024731Y009454D02*
X023181Y009454D01*
X022787Y009454D02*
X022569Y009454D01*
X022590Y009357D02*
X022787Y009357D01*
X022787Y009260D02*
X022590Y009260D01*
X022564Y009163D02*
X022787Y009163D01*
X022787Y009066D02*
X022524Y009066D01*
X022428Y008969D02*
X022719Y008969D01*
X022679Y008873D02*
X017275Y008873D01*
X017275Y008776D02*
X022679Y008776D01*
X022708Y008679D02*
X022398Y008679D01*
X022500Y008582D02*
X022781Y008582D01*
X022557Y008485D02*
X024742Y008485D01*
X024708Y008388D02*
X022584Y008388D01*
X022574Y008194D02*
X024722Y008194D01*
X024708Y008291D02*
X022198Y008291D01*
X022198Y008388D02*
X022101Y008388D01*
X022101Y008485D02*
X022198Y008485D01*
X022198Y008582D02*
X022101Y008582D01*
X022101Y008679D02*
X022198Y008679D01*
X021900Y008679D02*
X017275Y008679D01*
X017275Y008582D02*
X021798Y008582D01*
X021741Y008485D02*
X017275Y008485D01*
X017275Y008388D02*
X021714Y008388D01*
X021725Y008194D02*
X019335Y008194D01*
X019153Y008194D02*
X017275Y008194D01*
X017275Y008097D02*
X018974Y008097D01*
X018890Y008000D02*
X017275Y008000D01*
X017275Y007903D02*
X018850Y007903D01*
X018838Y007806D02*
X017275Y007806D01*
X017275Y007709D02*
X018838Y007709D01*
X018879Y007612D02*
X017275Y007612D01*
X017275Y007516D02*
X018946Y007516D01*
X019084Y007419D02*
X017275Y007419D01*
X017275Y007322D02*
X021708Y007322D01*
X021715Y007419D02*
X019403Y007419D01*
X019541Y007516D02*
X021755Y007516D01*
X021823Y007612D02*
X019609Y007612D01*
X019649Y007709D02*
X021950Y007709D01*
X021840Y008000D02*
X019597Y008000D01*
X019513Y008097D02*
X021765Y008097D01*
X022101Y008097D02*
X022198Y008097D01*
X022198Y008000D02*
X022101Y008000D01*
X022101Y008194D02*
X022198Y008194D01*
X022101Y008291D02*
X017275Y008291D01*
X016291Y008291D02*
X015252Y008291D01*
X015267Y008328D02*
X015199Y008163D01*
X015073Y008037D01*
X014908Y007969D01*
X014130Y007969D01*
X013966Y008037D01*
X013840Y008163D01*
X013772Y008328D01*
X013772Y008506D01*
X013840Y008670D01*
X013966Y008796D01*
X014130Y008865D01*
X014908Y008865D01*
X015073Y008796D01*
X015199Y008670D01*
X015267Y008506D01*
X015267Y008328D01*
X015267Y008388D02*
X016291Y008388D01*
X016291Y008485D02*
X015267Y008485D01*
X015236Y008582D02*
X016291Y008582D01*
X016291Y008679D02*
X015191Y008679D01*
X015094Y008776D02*
X016291Y008776D01*
X016291Y008873D02*
X010057Y008873D01*
X010167Y008969D02*
X011624Y008969D01*
X011625Y008969D02*
X011911Y008969D01*
X011911Y009368D01*
X011215Y009368D01*
X011224Y009312D01*
X011245Y009245D01*
X011277Y009182D01*
X011319Y009125D01*
X011369Y009075D01*
X011426Y009034D01*
X011488Y009002D01*
X011555Y008980D01*
X011625Y008969D01*
X011571Y008865D02*
X011407Y008796D01*
X011281Y008670D01*
X011213Y008506D01*
X011213Y008328D01*
X011281Y008163D01*
X011407Y008037D01*
X011571Y007969D01*
X012349Y007969D01*
X012514Y008037D01*
X012640Y008163D01*
X012708Y008328D01*
X012708Y008506D01*
X012640Y008670D01*
X012514Y008796D01*
X012349Y008865D01*
X011571Y008865D01*
X011386Y008776D02*
X009946Y008776D01*
X009840Y008679D02*
X011289Y008679D01*
X011244Y008582D02*
X003889Y008582D01*
X003889Y008679D02*
X008766Y008679D01*
X008669Y008776D02*
X003889Y008776D01*
X003889Y008873D02*
X008627Y008873D01*
X008604Y008969D02*
X003889Y008969D01*
X003889Y009066D02*
X008604Y009066D01*
X008635Y009163D02*
X003889Y009163D01*
X003889Y009260D02*
X008690Y009260D01*
X008797Y009357D02*
X003889Y009357D01*
X003889Y009454D02*
X009496Y009454D01*
X009606Y009551D02*
X003889Y009551D01*
X003889Y009648D02*
X009717Y009648D01*
X009828Y009745D02*
X003889Y009745D01*
X003889Y009842D02*
X009939Y009842D01*
X010049Y009939D02*
X003889Y009939D01*
X003889Y010036D02*
X010160Y010036D01*
X010271Y010133D02*
X009793Y010133D01*
X010021Y010229D02*
X010382Y010229D01*
X010493Y010326D02*
X010175Y010326D01*
X010290Y010423D02*
X010603Y010423D01*
X010714Y010520D02*
X010383Y010520D01*
X010459Y010617D02*
X010825Y010617D01*
X010931Y010714D02*
X010522Y010714D01*
X009450Y010714D02*
X009352Y010714D01*
X009352Y010617D02*
X009450Y010617D01*
X009450Y010520D02*
X009352Y010520D01*
X009352Y010423D02*
X009450Y010423D01*
X009450Y010326D02*
X009352Y010326D01*
X009352Y010229D02*
X009450Y010229D01*
X009450Y010133D02*
X009352Y010133D01*
X009352Y010811D02*
X009450Y010811D01*
X009450Y010908D02*
X009352Y010908D01*
X009352Y011005D02*
X009450Y011005D01*
X009450Y011102D02*
X009352Y011102D01*
X009352Y011199D02*
X009450Y011199D01*
X009450Y011296D02*
X009352Y011296D01*
X008121Y011586D02*
X000356Y011586D01*
X000356Y011683D02*
X008141Y011683D01*
X008170Y011780D02*
X000356Y011780D01*
X000356Y011877D02*
X008207Y011877D01*
X008253Y011974D02*
X000356Y011974D01*
X000356Y012071D02*
X008309Y012071D01*
X008378Y012168D02*
X000356Y012168D01*
X000356Y012265D02*
X008461Y012265D01*
X008565Y012362D02*
X000356Y012362D01*
X000356Y012459D02*
X008695Y012459D01*
X008874Y012556D02*
X000356Y012556D01*
X000356Y012653D02*
X009199Y012653D01*
X008559Y012750D02*
X014243Y012750D01*
X014913Y012943D02*
X019477Y012943D01*
X019380Y013040D02*
X014913Y013040D01*
X014913Y013137D02*
X019323Y013137D01*
X019283Y013234D02*
X014913Y013234D01*
X014913Y013331D02*
X019283Y013331D01*
X019290Y013428D02*
X014913Y013428D01*
X014913Y013525D02*
X019330Y013525D01*
X019397Y013622D02*
X014913Y013622D01*
X014913Y013719D02*
X019518Y013719D01*
X021606Y012858D02*
X021606Y015996D01*
X020917Y016685D01*
X014126Y016685D01*
X013732Y016291D01*
X013732Y014716D01*
X014032Y014591D02*
X014519Y014591D01*
X014519Y014494D02*
X013969Y014494D01*
X013811Y014397D02*
X014519Y014397D01*
X014519Y014300D02*
X012944Y014300D01*
X012944Y014203D02*
X014519Y014203D01*
X014519Y014106D02*
X012944Y014106D01*
X012944Y014010D02*
X014519Y014010D01*
X014519Y013913D02*
X012944Y013913D01*
X012944Y013816D02*
X014519Y013816D01*
X014519Y013719D02*
X012944Y013719D01*
X012944Y013622D02*
X014519Y013622D01*
X014519Y013525D02*
X012944Y013525D01*
X012944Y013428D02*
X014519Y013428D01*
X014519Y013331D02*
X012989Y013331D01*
X013039Y013234D02*
X014519Y013234D01*
X013653Y014397D02*
X012944Y014397D01*
X012944Y014494D02*
X013495Y014494D01*
X013432Y014591D02*
X012944Y014591D01*
X012944Y014688D02*
X013407Y014688D01*
X013409Y014785D02*
X012944Y014785D01*
X012944Y014882D02*
X013449Y014882D01*
X013080Y014979D02*
X012944Y014979D01*
X012551Y014979D02*
X012384Y014979D01*
X012540Y015076D02*
X012551Y015076D01*
X012551Y014882D02*
X005192Y014882D01*
X005289Y014785D02*
X012551Y014785D01*
X012551Y014688D02*
X005385Y014688D01*
X005011Y014688D02*
X004949Y014688D01*
X004949Y014591D02*
X005011Y014591D01*
X005011Y014785D02*
X004949Y014785D01*
X004949Y014882D02*
X005011Y014882D01*
X004768Y014882D02*
X004706Y014882D01*
X004706Y014979D02*
X010080Y014979D01*
X010143Y014953D02*
X010321Y014953D01*
X010485Y015021D01*
X010611Y015147D01*
X010680Y015311D01*
X010680Y016089D01*
X010611Y016254D01*
X010485Y016380D01*
X010321Y016448D01*
X010143Y016448D01*
X009978Y016380D01*
X009852Y016254D01*
X009784Y016089D01*
X009784Y015311D01*
X009852Y015147D01*
X009978Y015021D01*
X010143Y014953D01*
X010384Y014979D02*
X011081Y014979D01*
X011060Y014986D02*
X011127Y014964D01*
X011183Y014955D01*
X011183Y015651D01*
X011281Y015651D01*
X011281Y014955D01*
X011337Y014964D01*
X011404Y014986D01*
X011467Y015018D01*
X011524Y015059D01*
X011573Y015109D01*
X011615Y015166D01*
X011647Y015229D01*
X011669Y015296D01*
X011680Y015365D01*
X011680Y015651D01*
X011281Y015651D01*
X011281Y015750D01*
X011183Y015750D01*
X011183Y016446D01*
X011127Y016437D01*
X011060Y016415D01*
X010997Y016383D01*
X010940Y016342D01*
X010890Y016292D01*
X010849Y016235D01*
X010817Y016172D01*
X010795Y016105D01*
X010784Y016036D01*
X010784Y015750D01*
X011183Y015750D01*
X011183Y015651D01*
X010784Y015651D01*
X010784Y015365D01*
X010795Y015296D01*
X010817Y015229D01*
X010849Y015166D01*
X010890Y015109D01*
X010940Y015059D01*
X010997Y015018D01*
X011060Y014986D01*
X011183Y014979D02*
X011281Y014979D01*
X011281Y015076D02*
X011183Y015076D01*
X011183Y015173D02*
X011281Y015173D01*
X011281Y015270D02*
X011183Y015270D01*
X011183Y015367D02*
X011281Y015367D01*
X011281Y015463D02*
X011183Y015463D01*
X011183Y015560D02*
X011281Y015560D01*
X011281Y015657D02*
X011784Y015657D01*
X011784Y015560D02*
X011680Y015560D01*
X011680Y015463D02*
X011784Y015463D01*
X011784Y015367D02*
X011680Y015367D01*
X011660Y015270D02*
X011802Y015270D01*
X011842Y015173D02*
X011618Y015173D01*
X011540Y015076D02*
X011923Y015076D01*
X012080Y014979D02*
X011383Y014979D01*
X010923Y015076D02*
X010540Y015076D01*
X010622Y015173D02*
X010846Y015173D01*
X010804Y015270D02*
X010662Y015270D01*
X010680Y015367D02*
X010784Y015367D01*
X010784Y015463D02*
X010680Y015463D01*
X010680Y015560D02*
X010784Y015560D01*
X010680Y015657D02*
X011183Y015657D01*
X011183Y015754D02*
X011281Y015754D01*
X011281Y015750D02*
X011281Y016446D01*
X011337Y016437D01*
X011404Y016415D01*
X011467Y016383D01*
X011524Y016342D01*
X011573Y016292D01*
X011615Y016235D01*
X011647Y016172D01*
X011669Y016105D01*
X011680Y016036D01*
X011680Y015750D01*
X011281Y015750D01*
X011281Y015851D02*
X011183Y015851D01*
X011183Y015948D02*
X011281Y015948D01*
X011281Y016045D02*
X011183Y016045D01*
X011183Y016142D02*
X011281Y016142D01*
X011281Y016239D02*
X011183Y016239D01*
X011183Y016336D02*
X011281Y016336D01*
X011281Y016433D02*
X011183Y016433D01*
X011114Y016433D02*
X010358Y016433D01*
X010530Y016336D02*
X010934Y016336D01*
X010852Y016239D02*
X010618Y016239D01*
X010658Y016142D02*
X010807Y016142D01*
X010786Y016045D02*
X010680Y016045D01*
X010680Y015948D02*
X010784Y015948D01*
X010784Y015851D02*
X010680Y015851D01*
X010680Y015754D02*
X010784Y015754D01*
X011680Y015754D02*
X011784Y015754D01*
X011784Y015851D02*
X011680Y015851D01*
X011680Y015948D02*
X011784Y015948D01*
X011784Y016045D02*
X011678Y016045D01*
X011657Y016142D02*
X011806Y016142D01*
X011846Y016239D02*
X011612Y016239D01*
X011530Y016336D02*
X011934Y016336D01*
X012106Y016433D02*
X011350Y016433D01*
X012358Y016433D02*
X012551Y016433D01*
X012551Y016530D02*
X009131Y016530D01*
X009228Y016627D02*
X012608Y016627D01*
X013141Y016881D02*
X009204Y016881D01*
X008614Y016291D01*
X008417Y016090D01*
X008323Y015996D01*
X007875Y015948D02*
X006592Y015948D01*
X006592Y015947D02*
X006592Y016045D01*
X007875Y016045D01*
X007875Y016142D02*
X006990Y016142D01*
X006990Y016045D02*
X006592Y016045D01*
X006493Y016045D01*
X004706Y016045D01*
X004706Y016142D02*
X006095Y016142D01*
X006095Y016045D02*
X006493Y016045D01*
X006493Y015947D01*
X006095Y015947D01*
X006095Y015661D01*
X006106Y015591D01*
X006128Y015524D01*
X006160Y015462D01*
X006201Y015405D01*
X006251Y015355D01*
X006308Y015313D01*
X006371Y015281D01*
X006438Y015260D01*
X006493Y015251D01*
X006493Y015947D01*
X006592Y015947D01*
X006990Y015947D01*
X006990Y015661D01*
X006979Y015591D01*
X006958Y015524D01*
X006926Y015462D01*
X006884Y015405D01*
X006834Y015355D01*
X006777Y015313D01*
X006715Y015281D01*
X006647Y015260D01*
X006592Y015251D01*
X006592Y015947D01*
X006592Y015851D02*
X006493Y015851D01*
X006493Y015754D02*
X006592Y015754D01*
X006592Y015657D02*
X006493Y015657D01*
X006493Y015560D02*
X006592Y015560D01*
X006592Y015463D02*
X006493Y015463D01*
X006493Y015367D02*
X006592Y015367D01*
X006592Y015270D02*
X006493Y015270D01*
X006407Y015270D02*
X004706Y015270D01*
X004706Y015367D02*
X006239Y015367D01*
X006159Y015463D02*
X004706Y015463D01*
X004706Y015560D02*
X006116Y015560D01*
X006096Y015657D02*
X004706Y015657D01*
X004706Y015754D02*
X006095Y015754D01*
X006095Y015851D02*
X004706Y015851D01*
X004706Y015948D02*
X006493Y015948D01*
X006493Y016045D02*
X006493Y016742D01*
X006438Y016733D01*
X006371Y016711D01*
X006308Y016679D01*
X006251Y016638D01*
X006201Y016588D01*
X006160Y016531D01*
X006128Y016468D01*
X006106Y016401D01*
X006095Y016331D01*
X006095Y016045D01*
X006095Y016239D02*
X004706Y016239D01*
X004706Y016336D02*
X006096Y016336D01*
X006116Y016433D02*
X004745Y016433D01*
X004842Y016530D02*
X006159Y016530D01*
X006240Y016627D02*
X004939Y016627D01*
X005036Y016723D02*
X006409Y016723D01*
X006493Y016723D02*
X006592Y016723D01*
X006592Y016742D02*
X006592Y016045D01*
X006592Y016142D02*
X006493Y016142D01*
X006493Y016239D02*
X006592Y016239D01*
X006592Y016336D02*
X006493Y016336D01*
X006493Y016433D02*
X006592Y016433D01*
X006592Y016530D02*
X006493Y016530D01*
X006493Y016627D02*
X006592Y016627D01*
X006592Y016742D02*
X006647Y016733D01*
X006715Y016711D01*
X006777Y016679D01*
X006834Y016638D01*
X006884Y016588D01*
X006926Y016531D01*
X006958Y016468D01*
X006979Y016401D01*
X006990Y016331D01*
X006990Y016045D01*
X006990Y015851D02*
X007875Y015851D01*
X007875Y015754D02*
X006990Y015754D01*
X006990Y015657D02*
X007875Y015657D01*
X007894Y015560D02*
X006969Y015560D01*
X006926Y015463D02*
X007935Y015463D01*
X008019Y015367D02*
X006846Y015367D01*
X006678Y015270D02*
X008183Y015270D01*
X008463Y015270D02*
X009802Y015270D01*
X009784Y015367D02*
X008626Y015367D01*
X008711Y015463D02*
X009784Y015463D01*
X009784Y015560D02*
X008751Y015560D01*
X008770Y015657D02*
X009784Y015657D01*
X009784Y015754D02*
X008770Y015754D01*
X008770Y015851D02*
X009784Y015851D01*
X009784Y015948D02*
X008770Y015948D01*
X008770Y016045D02*
X009784Y016045D01*
X009806Y016142D02*
X008770Y016142D01*
X008840Y016239D02*
X009846Y016239D01*
X009934Y016336D02*
X008937Y016336D01*
X009034Y016433D02*
X010106Y016433D01*
X008962Y016917D02*
X005230Y016917D01*
X005133Y016820D02*
X008865Y016820D01*
X008768Y016723D02*
X008461Y016723D01*
X008625Y016627D02*
X008671Y016627D01*
X008185Y016723D02*
X006676Y016723D01*
X006845Y016627D02*
X008020Y016627D01*
X007935Y016530D02*
X006926Y016530D01*
X006969Y016433D02*
X007895Y016433D01*
X007875Y016336D02*
X006990Y016336D01*
X006990Y016239D02*
X007875Y016239D01*
X009842Y015173D02*
X004706Y015173D01*
X004706Y015076D02*
X009923Y015076D01*
X008060Y014106D02*
X006805Y014106D01*
X006902Y014010D02*
X007963Y014010D01*
X007911Y013913D02*
X006954Y013913D01*
X006990Y013816D02*
X007875Y013816D01*
X007875Y013719D02*
X006990Y013719D01*
X006990Y013622D02*
X007875Y013622D01*
X007875Y013525D02*
X006990Y013525D01*
X006990Y013428D02*
X007875Y013428D01*
X007875Y013331D02*
X006990Y013331D01*
X006990Y013234D02*
X007875Y013234D01*
X007875Y013137D02*
X006990Y013137D01*
X006987Y013040D02*
X007878Y013040D01*
X007918Y012943D02*
X006947Y012943D01*
X006886Y012846D02*
X007979Y012846D01*
X008086Y012750D02*
X006779Y012750D01*
X004150Y013525D02*
X000356Y013525D01*
X000356Y013622D02*
X004074Y013622D01*
X004074Y013719D02*
X000356Y013719D01*
X000356Y013816D02*
X004074Y013816D01*
X004074Y013913D02*
X000356Y013913D01*
X000356Y014010D02*
X004146Y014010D01*
X004243Y014106D02*
X000356Y014106D01*
X000356Y014203D02*
X003722Y014203D01*
X003625Y014300D02*
X000356Y014300D01*
X000356Y014397D02*
X003574Y014397D01*
X003574Y014494D02*
X000356Y014494D01*
X000356Y014591D02*
X003574Y014591D01*
X003574Y014688D02*
X000356Y014688D01*
X000356Y014785D02*
X003671Y014785D01*
X003768Y014882D02*
X000356Y014882D01*
X000356Y014979D02*
X004254Y014979D01*
X004254Y015076D02*
X000356Y015076D01*
X000356Y015173D02*
X004254Y015173D01*
X004254Y015270D02*
X000356Y015270D01*
X000356Y015367D02*
X004254Y015367D01*
X004254Y015463D02*
X000356Y015463D01*
X000356Y015560D02*
X004254Y015560D01*
X004254Y015657D02*
X000356Y015657D01*
X000356Y015754D02*
X004254Y015754D01*
X004254Y015851D02*
X000356Y015851D01*
X000356Y015948D02*
X004254Y015948D01*
X004254Y016045D02*
X000356Y016045D01*
X000356Y016142D02*
X004254Y016142D01*
X004254Y016239D02*
X000356Y016239D01*
X000356Y016336D02*
X004254Y016336D01*
X004254Y016433D02*
X000356Y016433D01*
X000356Y016530D02*
X004254Y016530D01*
X004299Y016627D02*
X000356Y016627D01*
X000356Y016723D02*
X004395Y016723D01*
X004492Y016820D02*
X000356Y016820D01*
X000356Y016917D02*
X004589Y016917D01*
X004686Y017014D02*
X000356Y017014D01*
X000356Y017111D02*
X004783Y017111D01*
X004880Y017208D02*
X000356Y017208D01*
X000356Y017305D02*
X004977Y017305D01*
X005074Y017402D02*
X000356Y017402D01*
X004192Y014882D02*
X004254Y014882D01*
X004238Y014203D02*
X004254Y014203D01*
X010633Y011780D02*
X017977Y011780D01*
X017880Y011683D02*
X010662Y011683D01*
X010681Y011586D02*
X017783Y011586D01*
X017624Y011489D02*
X010693Y011489D01*
X011275Y009939D02*
X016353Y009939D01*
X016304Y010036D02*
X016450Y010036D01*
X016412Y010133D02*
X016547Y010133D01*
X016509Y010229D02*
X016644Y010229D01*
X017078Y010385D02*
X017275Y010582D01*
X018259Y010582D01*
X018759Y011082D01*
X018850Y011082D01*
X019298Y011102D02*
X019801Y011102D01*
X019801Y011033D02*
X019402Y011033D01*
X019402Y010897D01*
X019665Y010635D01*
X019801Y010635D01*
X019801Y011033D01*
X019801Y011005D02*
X019899Y011005D01*
X019899Y010908D02*
X019801Y010908D01*
X019801Y010811D02*
X019899Y010811D01*
X019899Y010714D02*
X019801Y010714D01*
X019585Y010714D02*
X019115Y010714D01*
X019212Y010811D02*
X019488Y010811D01*
X019402Y010908D02*
X019298Y010908D01*
X019298Y011005D02*
X019402Y011005D01*
X019402Y011199D02*
X019298Y011199D01*
X019270Y011296D02*
X019430Y011296D01*
X020115Y010714D02*
X020218Y010714D01*
X020218Y010617D02*
X018573Y010617D01*
X018655Y010520D02*
X018476Y010520D01*
X018558Y010423D02*
X018379Y010423D01*
X018461Y010326D02*
X018233Y010326D01*
X018850Y010082D02*
X018366Y009598D01*
X018948Y009401D02*
X017472Y009401D01*
X017078Y009007D01*
X017078Y004972D01*
X020523Y001527D01*
X022689Y001527D01*
X023181Y002019D01*
X023181Y004677D01*
X022543Y005315D01*
X022149Y005315D01*
X021740Y005480D02*
X021408Y005480D01*
X021311Y005383D02*
X021708Y005383D01*
X021708Y005286D02*
X021214Y005286D01*
X021117Y005189D02*
X021724Y005189D01*
X021764Y005092D02*
X021020Y005092D01*
X021000Y004995D02*
X021845Y004995D01*
X022001Y004899D02*
X021025Y004899D01*
X021021Y004802D02*
X022777Y004802D01*
X022681Y004899D02*
X022297Y004899D01*
X022454Y004995D02*
X022584Y004995D01*
X022360Y004705D02*
X022874Y004705D01*
X022971Y004608D02*
X022480Y004608D01*
X022641Y004511D02*
X022984Y004511D01*
X022984Y004414D02*
X022738Y004414D01*
X022835Y004317D02*
X022984Y004317D01*
X022984Y004220D02*
X022932Y004220D01*
X022984Y003889D02*
X022559Y004315D01*
X022149Y004315D01*
X021708Y004317D02*
X018012Y004317D01*
X018109Y004220D02*
X021711Y004220D01*
X021751Y004123D02*
X018206Y004123D01*
X018303Y004026D02*
X021814Y004026D01*
X021927Y003929D02*
X018399Y003929D01*
X018496Y003832D02*
X022762Y003832D01*
X022787Y003735D02*
X022286Y003735D01*
X022237Y003756D02*
X022399Y003688D01*
X022523Y003564D01*
X022590Y003402D01*
X022590Y003227D01*
X022523Y003065D01*
X022399Y002941D01*
X022237Y002874D01*
X022061Y002874D01*
X021899Y002941D01*
X021775Y003065D01*
X021708Y003227D01*
X021708Y003402D01*
X021775Y003564D01*
X021899Y003688D01*
X022061Y003756D01*
X022237Y003756D01*
X022372Y003929D02*
X022666Y003929D01*
X022569Y004026D02*
X022485Y004026D01*
X022449Y003639D02*
X022787Y003639D01*
X022787Y003542D02*
X022533Y003542D01*
X022573Y003445D02*
X022787Y003445D01*
X022787Y003348D02*
X022590Y003348D01*
X022590Y003251D02*
X022787Y003251D01*
X022787Y003154D02*
X022560Y003154D01*
X022515Y003057D02*
X022787Y003057D01*
X022787Y002960D02*
X022418Y002960D01*
X022787Y002863D02*
X019466Y002863D01*
X019563Y002766D02*
X022787Y002766D01*
X022787Y002669D02*
X022418Y002669D01*
X022515Y002572D02*
X022787Y002572D01*
X022787Y002475D02*
X022560Y002475D01*
X022590Y002378D02*
X022787Y002378D01*
X022787Y002282D02*
X022590Y002282D01*
X022573Y002185D02*
X022772Y002185D01*
X022675Y002088D02*
X022533Y002088D01*
X022579Y001991D02*
X022449Y001991D01*
X022590Y001724D02*
X022984Y002118D01*
X022984Y003889D01*
X023771Y004026D02*
X023827Y004026D01*
X023771Y004123D02*
X023924Y004123D01*
X024020Y004220D02*
X023771Y004220D01*
X023771Y004317D02*
X024117Y004317D01*
X024214Y004414D02*
X023771Y004414D01*
X023771Y004511D02*
X024311Y004511D01*
X024819Y004608D02*
X023784Y004608D01*
X024657Y003791D02*
X025543Y003791D01*
X027708Y005956D01*
X027708Y008515D01*
X027118Y009106D01*
X027118Y010567D01*
X028102Y011551D01*
X028709Y011877D02*
X030356Y011877D01*
X030356Y011780D02*
X028791Y011780D01*
X028832Y011683D02*
X030356Y011683D01*
X030356Y011586D02*
X028850Y011586D01*
X028850Y011489D02*
X030356Y011489D01*
X030356Y011393D02*
X028821Y011393D01*
X028780Y011296D02*
X030356Y011296D01*
X030356Y011199D02*
X028683Y011199D01*
X028678Y010908D02*
X030356Y010908D01*
X030356Y011005D02*
X027834Y011005D01*
X027931Y011102D02*
X030356Y011102D01*
X030356Y010811D02*
X028775Y010811D01*
X028819Y010714D02*
X030356Y010714D01*
X030356Y010617D02*
X028850Y010617D01*
X028850Y010520D02*
X030356Y010520D01*
X030356Y010423D02*
X028834Y010423D01*
X028794Y010326D02*
X030356Y010326D01*
X030356Y010229D02*
X028714Y010229D01*
X028562Y010133D02*
X030356Y010133D01*
X030356Y010036D02*
X027637Y010036D01*
X027569Y009939D02*
X027540Y009939D01*
X027315Y009992D02*
X027874Y010551D01*
X028102Y010551D01*
X028635Y009939D02*
X030356Y009939D01*
X030356Y009842D02*
X028744Y009842D01*
X028806Y009745D02*
X030356Y009745D01*
X030356Y009648D02*
X028846Y009648D01*
X028850Y009551D02*
X030356Y009551D01*
X030356Y009454D02*
X028846Y009454D01*
X028806Y009357D02*
X030356Y009357D01*
X030356Y009260D02*
X028744Y009260D01*
X028636Y009163D02*
X030356Y009163D01*
X030356Y009066D02*
X028299Y009066D01*
X028299Y008969D02*
X030356Y008969D01*
X030356Y008873D02*
X028299Y008873D01*
X028299Y008776D02*
X030356Y008776D01*
X030356Y008679D02*
X028299Y008679D01*
X028299Y008582D02*
X030401Y008582D01*
X030477Y008506D02*
X030477Y008506D01*
X030498Y008485D02*
X028299Y008485D01*
X028299Y008388D02*
X030595Y008388D01*
X030692Y008291D02*
X028299Y008291D01*
X028299Y008194D02*
X030788Y008194D01*
X030885Y008097D02*
X028299Y008097D01*
X027905Y008614D02*
X027315Y009204D01*
X027315Y009992D01*
X026921Y009648D02*
X025440Y009648D01*
X025523Y009551D02*
X026921Y009551D01*
X028102Y009551D02*
X028102Y005759D01*
X025641Y003299D01*
X025641Y002807D01*
X025149Y002315D01*
X024738Y002475D02*
X023968Y002475D01*
X023968Y002378D02*
X024708Y002378D01*
X024708Y002282D02*
X023968Y002282D01*
X023968Y002185D02*
X024726Y002185D01*
X024766Y002088D02*
X023968Y002088D01*
X023968Y001991D02*
X024849Y001991D01*
X025012Y001894D02*
X023968Y001894D01*
X023968Y001797D02*
X026424Y001797D01*
X026419Y001700D02*
X023968Y001700D01*
X023929Y001603D02*
X026325Y001603D01*
X026228Y001506D02*
X023832Y001506D01*
X023853Y001527D02*
X023853Y001527D01*
X023735Y001409D02*
X026131Y001409D01*
X026034Y001312D02*
X023638Y001312D01*
X023541Y001215D02*
X025937Y001215D01*
X025840Y001118D02*
X023444Y001118D01*
X023347Y001022D02*
X025743Y001022D01*
X025740Y000740D02*
X026724Y001724D01*
X026938Y001506D02*
X031439Y001506D01*
X031439Y001409D02*
X026688Y001409D01*
X026591Y001312D02*
X031439Y001312D01*
X031439Y001215D02*
X026494Y001215D01*
X026397Y001118D02*
X031439Y001118D01*
X031439Y001022D02*
X026300Y001022D01*
X026203Y000925D02*
X031439Y000925D01*
X031439Y000828D02*
X026106Y000828D01*
X026009Y000731D02*
X031439Y000731D01*
X031439Y000634D02*
X025912Y000634D01*
X025740Y000740D02*
X019834Y000740D01*
X019717Y001022D02*
X018161Y001022D01*
X018171Y000997D02*
X018124Y001109D01*
X018039Y001195D01*
X017926Y001242D01*
X017812Y001242D01*
X016886Y002036D01*
X016886Y002286D01*
X016648Y002524D01*
X016312Y002524D01*
X016074Y002286D01*
X016074Y001950D01*
X016312Y001712D01*
X016648Y001712D01*
X016653Y001717D01*
X017561Y000939D01*
X017561Y000876D01*
X017607Y000764D01*
X017693Y000678D01*
X017805Y000631D01*
X017926Y000631D01*
X018039Y000678D01*
X018124Y000764D01*
X018171Y000876D01*
X018171Y000997D01*
X018171Y000925D02*
X019588Y000925D01*
X019540Y000828D02*
X018151Y000828D01*
X018091Y000731D02*
X019529Y000731D01*
X019548Y000634D02*
X017932Y000634D01*
X017799Y000634D02*
X009364Y000634D01*
X009391Y000731D02*
X017640Y000731D01*
X017581Y000828D02*
X009401Y000828D01*
X009401Y000925D02*
X017561Y000925D01*
X017464Y001022D02*
X009401Y001022D01*
X009401Y001118D02*
X017351Y001118D01*
X017238Y001215D02*
X013673Y001215D01*
X013720Y001235D02*
X013861Y001376D01*
X013937Y001559D01*
X013937Y002463D01*
X013861Y002647D01*
X013720Y002788D01*
X013536Y002864D01*
X013337Y002864D01*
X013153Y002788D01*
X013013Y002647D01*
X012936Y002463D01*
X012936Y001559D01*
X013013Y001376D01*
X013153Y001235D01*
X013337Y001159D01*
X013536Y001159D01*
X013720Y001235D01*
X013797Y001312D02*
X017125Y001312D01*
X017012Y001409D02*
X013875Y001409D01*
X013915Y001506D02*
X016899Y001506D01*
X016786Y001603D02*
X013937Y001603D01*
X013937Y001700D02*
X016673Y001700D01*
X017051Y001894D02*
X017130Y001894D01*
X017074Y001950D02*
X017312Y001712D01*
X017648Y001712D01*
X017886Y001950D01*
X017886Y002286D01*
X017648Y002524D01*
X017312Y002524D01*
X017074Y002286D01*
X017074Y001950D01*
X017074Y001991D02*
X016938Y001991D01*
X016886Y002088D02*
X017074Y002088D01*
X017074Y002185D02*
X016886Y002185D01*
X016886Y002282D02*
X017074Y002282D01*
X017166Y002378D02*
X016793Y002378D01*
X016696Y002475D02*
X017263Y002475D01*
X017696Y002475D02*
X018411Y002475D01*
X018508Y002378D02*
X017793Y002378D01*
X017886Y002282D02*
X018605Y002282D01*
X018702Y002185D02*
X017886Y002185D01*
X017886Y002088D02*
X018798Y002088D01*
X018895Y001991D02*
X017886Y001991D01*
X017830Y001894D02*
X018992Y001894D01*
X019089Y001797D02*
X017733Y001797D01*
X017504Y001506D02*
X019380Y001506D01*
X019477Y001409D02*
X017617Y001409D01*
X017730Y001312D02*
X019574Y001312D01*
X019671Y001215D02*
X017990Y001215D01*
X018115Y001118D02*
X019768Y001118D01*
X019283Y001603D02*
X017391Y001603D01*
X017278Y001700D02*
X019186Y001700D01*
X020047Y002282D02*
X020359Y002282D01*
X020319Y002185D02*
X020144Y002185D01*
X020241Y002088D02*
X020317Y002088D01*
X020338Y001991D02*
X020344Y001991D01*
X020622Y002118D02*
X021015Y001724D01*
X022590Y001724D01*
X021849Y001991D02*
X021027Y001991D01*
X020930Y002088D02*
X021766Y002088D01*
X021726Y002185D02*
X020924Y002185D01*
X020884Y002282D02*
X021708Y002282D01*
X021708Y002378D02*
X020789Y002378D01*
X020454Y002378D02*
X019950Y002378D01*
X019853Y002475D02*
X021738Y002475D01*
X021783Y002572D02*
X019756Y002572D01*
X019660Y002669D02*
X021880Y002669D01*
X021880Y002960D02*
X019369Y002960D01*
X019272Y003057D02*
X021783Y003057D01*
X021738Y003154D02*
X019175Y003154D01*
X019078Y003251D02*
X021708Y003251D01*
X021708Y003348D02*
X018981Y003348D01*
X018884Y003445D02*
X021726Y003445D01*
X021766Y003542D02*
X018787Y003542D01*
X018690Y003639D02*
X021849Y003639D01*
X022013Y003735D02*
X018593Y003735D01*
X017732Y003154D02*
X006842Y003154D01*
X006842Y003251D02*
X017635Y003251D01*
X017538Y003348D02*
X006842Y003348D01*
X006842Y003445D02*
X017441Y003445D01*
X017345Y003542D02*
X006842Y003542D01*
X006842Y003639D02*
X017248Y003639D01*
X017151Y003735D02*
X006842Y003735D01*
X006842Y003832D02*
X008830Y003832D01*
X008835Y003828D02*
X008947Y003781D01*
X009068Y003781D01*
X009116Y003801D01*
X009293Y003801D01*
X009340Y003781D01*
X009462Y003781D01*
X009509Y003801D01*
X011852Y003801D01*
X011900Y003781D01*
X012021Y003781D01*
X012068Y003801D01*
X015789Y003801D01*
X015837Y003781D01*
X015958Y003781D01*
X016070Y003828D01*
X016156Y003913D01*
X016202Y004026D01*
X016860Y004026D01*
X016957Y003929D02*
X016163Y003929D01*
X016202Y004026D02*
X016202Y004147D01*
X016156Y004259D01*
X016070Y004345D01*
X015958Y004391D01*
X015837Y004391D01*
X015789Y004372D01*
X012068Y004372D01*
X012021Y004391D01*
X011900Y004391D01*
X011852Y004372D01*
X009509Y004372D01*
X009462Y004391D01*
X009340Y004391D01*
X009293Y004372D01*
X009116Y004372D01*
X009068Y004391D01*
X008947Y004391D01*
X008835Y004345D01*
X008749Y004259D01*
X008702Y004147D01*
X008702Y004026D01*
X006842Y004026D01*
X006842Y003929D02*
X008742Y003929D01*
X008749Y003913D02*
X008835Y003828D01*
X008749Y003913D02*
X008702Y004026D01*
X008702Y004123D02*
X006842Y004123D01*
X006842Y004220D02*
X008733Y004220D01*
X008807Y004317D02*
X006842Y004317D01*
X006842Y004414D02*
X016472Y004414D01*
X016375Y004511D02*
X006842Y004511D01*
X006842Y004608D02*
X016291Y004608D01*
X016291Y004705D02*
X006842Y004705D01*
X006842Y004802D02*
X016291Y004802D01*
X016291Y004899D02*
X006842Y004899D01*
X006842Y004995D02*
X016291Y004995D01*
X016291Y005092D02*
X006842Y005092D01*
X006842Y005189D02*
X016291Y005189D01*
X016291Y005286D02*
X006842Y005286D01*
X006842Y005383D02*
X016291Y005383D01*
X016291Y005480D02*
X006842Y005480D01*
X006842Y005577D02*
X016291Y005577D01*
X016291Y005674D02*
X006842Y005674D01*
X006842Y005771D02*
X016291Y005771D01*
X016291Y005868D02*
X006842Y005868D01*
X006842Y005965D02*
X016291Y005965D01*
X016291Y006062D02*
X006434Y006062D01*
X006426Y006159D02*
X016291Y006159D01*
X016291Y006256D02*
X014810Y006256D01*
X014777Y006242D02*
X014889Y006288D01*
X014975Y006374D01*
X015021Y006486D01*
X015021Y006608D01*
X014975Y006720D01*
X014889Y006806D01*
X014777Y006852D01*
X014655Y006852D01*
X014543Y006806D01*
X014481Y006744D01*
X012912Y006744D01*
X012566Y007090D01*
X012640Y007163D01*
X012708Y007328D01*
X012708Y007506D01*
X012640Y007670D01*
X012514Y007796D01*
X012349Y007865D01*
X011571Y007865D01*
X011407Y007796D01*
X011281Y007670D01*
X011213Y007506D01*
X011213Y007328D01*
X011281Y007163D01*
X011407Y007037D01*
X011571Y006969D01*
X012129Y006969D01*
X012749Y006350D01*
X014481Y006350D01*
X014543Y006288D01*
X014655Y006242D01*
X014777Y006242D01*
X014622Y006256D02*
X008940Y006256D01*
X008928Y006250D02*
X009145Y006340D01*
X009311Y006506D01*
X009401Y006723D01*
X009401Y007843D01*
X009311Y008060D01*
X009145Y008226D01*
X008928Y008316D01*
X008693Y008316D01*
X008476Y008226D01*
X008310Y008060D01*
X008220Y007843D01*
X008220Y006723D01*
X008310Y006506D01*
X008476Y006340D01*
X008693Y006250D01*
X008928Y006250D01*
X008681Y006256D02*
X006494Y006256D01*
X006531Y006352D02*
X008464Y006352D01*
X008367Y006449D02*
X005882Y006449D01*
X005803Y006449D02*
X003889Y006449D01*
X003889Y006352D02*
X005153Y006352D01*
X005190Y006256D02*
X003889Y006256D01*
X003889Y006159D02*
X005258Y006159D01*
X005251Y006062D02*
X003889Y006062D01*
X004690Y005674D02*
X005152Y005674D01*
X005143Y005695D02*
X005208Y005539D01*
X005305Y005443D01*
X005291Y005433D01*
X005244Y005386D01*
X005205Y005332D01*
X005174Y005272D01*
X005154Y005209D01*
X005144Y005149D01*
X005803Y005149D01*
X005803Y005070D01*
X005881Y005070D01*
X005881Y004687D01*
X006151Y004687D01*
X006217Y004697D01*
X006280Y004718D01*
X006340Y004748D01*
X006393Y004787D01*
X006441Y004834D01*
X006480Y004888D01*
X006510Y004947D01*
X006531Y005011D01*
X006540Y005070D01*
X005882Y005070D01*
X005882Y005149D01*
X006540Y005149D01*
X006531Y005209D01*
X006510Y005272D01*
X006480Y005332D01*
X006441Y005386D01*
X006393Y005433D01*
X006380Y005443D01*
X006477Y005539D01*
X006541Y005695D01*
X006541Y005759D01*
X006547Y005759D01*
X006547Y002610D01*
X000356Y002610D01*
X000356Y004185D01*
X003200Y004185D01*
X004775Y005759D01*
X005143Y005759D01*
X005143Y005695D01*
X005192Y005577D02*
X004593Y005577D01*
X004496Y005480D02*
X005267Y005480D01*
X005242Y005383D02*
X004399Y005383D01*
X004302Y005286D02*
X005181Y005286D01*
X005151Y005189D02*
X004205Y005189D01*
X004108Y005092D02*
X005803Y005092D01*
X005803Y005070D02*
X005144Y005070D01*
X005154Y005011D01*
X005174Y004947D01*
X005205Y004888D01*
X005244Y004834D01*
X005291Y004787D01*
X005345Y004748D01*
X005404Y004718D01*
X005467Y004697D01*
X005533Y004687D01*
X005803Y004687D01*
X005803Y005070D01*
X005803Y004995D02*
X005881Y004995D01*
X005881Y004899D02*
X005803Y004899D01*
X005803Y004802D02*
X005881Y004802D01*
X005881Y004705D02*
X005803Y004705D01*
X005444Y004705D02*
X003720Y004705D01*
X003624Y004608D02*
X006547Y004608D01*
X006547Y004705D02*
X006240Y004705D01*
X006408Y004802D02*
X006547Y004802D01*
X006547Y004899D02*
X006485Y004899D01*
X006526Y004995D02*
X006547Y004995D01*
X006547Y005092D02*
X005882Y005092D01*
X006442Y005383D02*
X006547Y005383D01*
X006547Y005286D02*
X006503Y005286D01*
X006534Y005189D02*
X006547Y005189D01*
X006547Y005480D02*
X006417Y005480D01*
X006492Y005577D02*
X006547Y005577D01*
X006547Y005674D02*
X006532Y005674D01*
X005881Y006256D02*
X005803Y006256D01*
X005803Y006352D02*
X005881Y006352D01*
X005881Y006546D02*
X005803Y006546D01*
X005803Y006643D02*
X005881Y006643D01*
X006425Y006740D02*
X008220Y006740D01*
X008220Y006837D02*
X006436Y006837D01*
X006500Y006934D02*
X008220Y006934D01*
X008220Y007031D02*
X006540Y007031D01*
X006541Y007128D02*
X008220Y007128D01*
X008220Y007225D02*
X006531Y007225D01*
X006491Y007322D02*
X008220Y007322D01*
X008220Y007419D02*
X006415Y007419D01*
X006444Y007516D02*
X008220Y007516D01*
X008220Y007612D02*
X006504Y007612D01*
X006534Y007709D02*
X008220Y007709D01*
X008220Y007806D02*
X005882Y007806D01*
X005803Y007806D02*
X003889Y007806D01*
X003889Y007709D02*
X005150Y007709D01*
X005180Y007612D02*
X003889Y007612D01*
X003889Y007516D02*
X005241Y007516D01*
X005269Y007419D02*
X003889Y007419D01*
X003889Y007322D02*
X005193Y007322D01*
X005153Y007225D02*
X003889Y007225D01*
X003889Y007128D02*
X005143Y007128D01*
X005144Y007031D02*
X003889Y007031D01*
X003889Y006934D02*
X005185Y006934D01*
X005249Y006837D02*
X003889Y006837D01*
X003889Y006740D02*
X005260Y006740D01*
X005191Y006643D02*
X003889Y006643D01*
X003889Y006546D02*
X005154Y006546D01*
X006493Y006643D02*
X008254Y006643D01*
X008294Y006546D02*
X006531Y006546D01*
X006525Y007903D02*
X008245Y007903D01*
X008286Y008000D02*
X006484Y008000D01*
X006406Y008097D02*
X008348Y008097D01*
X008445Y008194D02*
X006235Y008194D01*
X005881Y008194D02*
X005803Y008194D01*
X005803Y008210D02*
X005533Y008210D01*
X005467Y008200D01*
X005404Y008179D01*
X005345Y008149D01*
X005291Y008110D01*
X005244Y008063D01*
X005205Y008009D01*
X005174Y007949D01*
X005154Y007886D01*
X005144Y007826D01*
X005803Y007826D01*
X005803Y008210D01*
X005803Y008097D02*
X005881Y008097D01*
X005881Y008000D02*
X005803Y008000D01*
X005803Y007903D02*
X005881Y007903D01*
X005450Y008194D02*
X003889Y008194D01*
X003889Y008097D02*
X005278Y008097D01*
X005200Y008000D02*
X003889Y008000D01*
X003889Y007903D02*
X005159Y007903D01*
X003889Y008291D02*
X008633Y008291D01*
X008988Y008291D02*
X011228Y008291D01*
X011213Y008388D02*
X003889Y008388D01*
X003889Y008485D02*
X011213Y008485D01*
X011268Y008194D02*
X009177Y008194D01*
X009274Y008097D02*
X011347Y008097D01*
X011497Y008000D02*
X009336Y008000D01*
X009376Y007903D02*
X016291Y007903D01*
X016291Y007806D02*
X015049Y007806D01*
X015073Y007796D02*
X014908Y007865D01*
X014130Y007865D01*
X013966Y007796D01*
X013840Y007670D01*
X013772Y007506D01*
X013772Y007328D01*
X013840Y007163D01*
X013966Y007037D01*
X014130Y006969D01*
X014908Y006969D01*
X015073Y007037D01*
X015199Y007163D01*
X015267Y007328D01*
X015267Y007506D01*
X015199Y007670D01*
X015073Y007796D01*
X015160Y007709D02*
X016291Y007709D01*
X016291Y007612D02*
X015223Y007612D01*
X015263Y007516D02*
X016291Y007516D01*
X016291Y007419D02*
X015267Y007419D01*
X015264Y007322D02*
X016291Y007322D01*
X016291Y007225D02*
X015224Y007225D01*
X015163Y007128D02*
X016291Y007128D01*
X016291Y007031D02*
X015057Y007031D01*
X014954Y006740D02*
X016291Y006740D01*
X016291Y006643D02*
X015006Y006643D01*
X015021Y006546D02*
X016291Y006546D01*
X016291Y006449D02*
X015006Y006449D01*
X014953Y006352D02*
X016291Y006352D01*
X016291Y006837D02*
X014813Y006837D01*
X014619Y006837D02*
X012818Y006837D01*
X012722Y006934D02*
X016291Y006934D01*
X017275Y006934D02*
X021915Y006934D01*
X021809Y007031D02*
X017275Y007031D01*
X017275Y007128D02*
X021749Y007128D01*
X021709Y007225D02*
X017275Y007225D01*
X017275Y006837D02*
X027511Y006837D01*
X027905Y005858D02*
X027905Y008614D01*
X029272Y007903D02*
X030279Y007903D01*
X027905Y005858D02*
X025362Y003315D01*
X025149Y003315D01*
X024738Y003154D02*
X024435Y003154D01*
X024470Y003251D02*
X024708Y003251D01*
X024708Y003348D02*
X024492Y003348D01*
X024589Y003445D02*
X024726Y003445D01*
X024686Y003542D02*
X024766Y003542D01*
X024657Y003791D02*
X024165Y003299D01*
X024355Y003057D02*
X024783Y003057D01*
X024880Y002960D02*
X023968Y002960D01*
X023968Y002863D02*
X025419Y002863D01*
X025418Y002960D02*
X025444Y002960D01*
X025322Y002766D02*
X023968Y002766D01*
X023968Y002669D02*
X024880Y002669D01*
X024783Y002572D02*
X023968Y002572D01*
X023968Y003057D02*
X023975Y003057D01*
X025588Y002475D02*
X031439Y002475D01*
X031439Y002378D02*
X025590Y002378D01*
X025590Y002282D02*
X031439Y002282D01*
X031439Y002185D02*
X025573Y002185D01*
X025533Y002088D02*
X031439Y002088D01*
X031439Y001991D02*
X026877Y001991D01*
X026984Y001894D02*
X031439Y001894D01*
X031439Y001797D02*
X027024Y001797D01*
X027029Y001700D02*
X031439Y001700D01*
X031439Y001603D02*
X027004Y001603D01*
X026464Y001894D02*
X025286Y001894D01*
X025449Y001991D02*
X026571Y001991D01*
X025782Y002669D02*
X031439Y002669D01*
X031439Y002572D02*
X025685Y002572D01*
X025838Y002766D02*
X031439Y002766D01*
X031439Y002863D02*
X025838Y002863D01*
X025838Y002960D02*
X031439Y002960D01*
X031439Y003057D02*
X025838Y003057D01*
X025838Y003154D02*
X031439Y003154D01*
X031439Y003251D02*
X025872Y003251D01*
X025969Y003348D02*
X031439Y003348D01*
X031439Y003445D02*
X026066Y003445D01*
X026163Y003542D02*
X031439Y003542D01*
X031439Y003639D02*
X026259Y003639D01*
X026356Y003735D02*
X031439Y003735D01*
X031439Y003832D02*
X026453Y003832D01*
X026550Y003929D02*
X031439Y003929D01*
X031439Y004026D02*
X026647Y004026D01*
X026744Y004123D02*
X031439Y004123D01*
X031439Y004220D02*
X026841Y004220D01*
X026938Y004317D02*
X031439Y004317D01*
X031439Y000537D02*
X020063Y000537D01*
X019908Y000440D02*
X031439Y000440D01*
X022984Y006252D02*
X022492Y005759D01*
X021409Y005759D01*
X020720Y005070D01*
X020720Y004874D01*
X020507Y005092D02*
X017275Y005092D01*
X017275Y005189D02*
X020561Y005189D01*
X020657Y005286D02*
X017275Y005286D01*
X017275Y005383D02*
X020754Y005383D01*
X020851Y005480D02*
X017275Y005480D01*
X017275Y005577D02*
X018985Y005577D01*
X019014Y005548D02*
X019163Y005486D01*
X019324Y005486D01*
X019474Y005548D01*
X019588Y005662D01*
X019650Y005811D01*
X019650Y005973D01*
X019588Y006122D01*
X019474Y006236D01*
X019324Y006298D01*
X019163Y006298D01*
X019014Y006236D01*
X018899Y006122D01*
X018838Y005973D01*
X018838Y005811D01*
X018899Y005662D01*
X019014Y005548D01*
X018895Y005674D02*
X017275Y005674D01*
X017275Y005771D02*
X018854Y005771D01*
X018838Y005868D02*
X017275Y005868D01*
X017275Y005965D02*
X018838Y005965D01*
X018874Y006062D02*
X017275Y006062D01*
X017275Y006159D02*
X018936Y006159D01*
X019060Y006256D02*
X017275Y006256D01*
X017275Y006352D02*
X021708Y006352D01*
X021708Y006256D02*
X019427Y006256D01*
X019551Y006159D02*
X021736Y006159D01*
X021778Y006062D02*
X019613Y006062D01*
X019650Y005965D02*
X021875Y005965D01*
X021728Y006449D02*
X017275Y006449D01*
X017275Y006546D02*
X021768Y006546D01*
X021854Y006643D02*
X017275Y006643D01*
X017275Y006740D02*
X022024Y006740D01*
X022571Y006449D02*
X022750Y006449D01*
X022695Y006352D02*
X022590Y006352D01*
X022590Y006256D02*
X022679Y006256D01*
X022612Y006159D02*
X022562Y006159D01*
X021239Y005868D02*
X019650Y005868D01*
X019633Y005771D02*
X021142Y005771D01*
X021045Y005674D02*
X019593Y005674D01*
X019503Y005577D02*
X020948Y005577D01*
X020440Y004995D02*
X017333Y004995D01*
X017430Y004899D02*
X020415Y004899D01*
X020420Y004802D02*
X017527Y004802D01*
X017624Y004705D02*
X020460Y004705D01*
X020565Y004608D02*
X017721Y004608D01*
X017818Y004511D02*
X021753Y004511D01*
X021713Y004414D02*
X017915Y004414D01*
X017054Y003832D02*
X016075Y003832D01*
X016202Y004123D02*
X016763Y004123D01*
X016666Y004220D02*
X016172Y004220D01*
X016098Y004317D02*
X016569Y004317D01*
X017829Y003057D02*
X006842Y003057D01*
X006842Y002960D02*
X017926Y002960D01*
X018023Y002863D02*
X013538Y002863D01*
X013335Y002863D02*
X011570Y002863D01*
X011568Y002864D02*
X011369Y002864D01*
X011185Y002788D01*
X011044Y002647D01*
X010968Y002463D01*
X010968Y001559D01*
X011044Y001376D01*
X011185Y001235D01*
X011369Y001159D01*
X011568Y001159D01*
X011751Y001235D01*
X011892Y001376D01*
X011968Y001559D01*
X011968Y002463D01*
X011892Y002647D01*
X011751Y002788D01*
X011568Y002864D01*
X011366Y002863D02*
X006842Y002863D01*
X006842Y002766D02*
X011163Y002766D01*
X011066Y002669D02*
X006842Y002669D01*
X006842Y002572D02*
X011013Y002572D01*
X010973Y002475D02*
X006842Y002475D01*
X006842Y002378D02*
X010968Y002378D01*
X010968Y002282D02*
X009009Y002282D01*
X008860Y002282D02*
X008761Y002282D01*
X008761Y002315D02*
X008672Y002301D01*
X008584Y002272D01*
X008501Y002230D01*
X008426Y002176D01*
X008360Y002110D01*
X008306Y002035D01*
X008264Y001952D01*
X008235Y001864D01*
X008220Y001772D01*
X008220Y001332D01*
X008761Y001332D01*
X008761Y002315D01*
X008761Y002185D02*
X008860Y002185D01*
X008860Y002088D02*
X008761Y002088D01*
X008761Y001991D02*
X008860Y001991D01*
X008860Y001894D02*
X008761Y001894D01*
X008761Y001797D02*
X008860Y001797D01*
X008860Y001700D02*
X008761Y001700D01*
X008761Y001603D02*
X008860Y001603D01*
X008860Y001506D02*
X008761Y001506D01*
X008761Y001409D02*
X008860Y001409D01*
X008860Y001312D02*
X011107Y001312D01*
X011030Y001409D02*
X009401Y001409D01*
X009401Y001506D02*
X010990Y001506D01*
X010968Y001603D02*
X009401Y001603D01*
X009401Y001700D02*
X010968Y001700D01*
X010968Y001797D02*
X009397Y001797D01*
X009376Y001894D02*
X010968Y001894D01*
X010968Y001991D02*
X009338Y001991D01*
X009277Y002088D02*
X010968Y002088D01*
X010968Y002185D02*
X009183Y002185D01*
X008612Y002282D02*
X000356Y002282D01*
X000356Y002185D02*
X008438Y002185D01*
X008344Y002088D02*
X000356Y002088D01*
X000356Y001991D02*
X008283Y001991D01*
X008245Y001894D02*
X006050Y001894D01*
X006026Y001917D02*
X005889Y001917D01*
X005889Y001542D01*
X006264Y001542D01*
X006264Y001680D01*
X006026Y001917D01*
X005889Y001894D02*
X005827Y001894D01*
X005827Y001917D02*
X005690Y001917D01*
X005452Y001680D01*
X005452Y001542D01*
X005827Y001542D01*
X005827Y001481D01*
X005452Y001481D01*
X005452Y001343D01*
X005690Y001105D01*
X005827Y001105D01*
X005827Y001481D01*
X005889Y001481D01*
X005889Y001542D01*
X005827Y001542D01*
X005827Y001917D01*
X005827Y001797D02*
X005889Y001797D01*
X005889Y001700D02*
X005827Y001700D01*
X005827Y001603D02*
X005889Y001603D01*
X005889Y001506D02*
X008220Y001506D01*
X008220Y001409D02*
X006264Y001409D01*
X006264Y001343D02*
X006264Y001481D01*
X005889Y001481D01*
X005889Y001105D01*
X006026Y001105D01*
X006264Y001343D01*
X006233Y001312D02*
X008761Y001312D01*
X008220Y001215D02*
X006136Y001215D01*
X006039Y001118D02*
X008220Y001118D01*
X008220Y001022D02*
X002758Y001022D01*
X002745Y001004D02*
X002792Y001068D01*
X002827Y001138D01*
X002852Y001213D01*
X002862Y001281D01*
X002061Y001281D01*
X002061Y001380D01*
X001962Y001380D01*
X001962Y001830D01*
X001620Y001830D01*
X001542Y001818D01*
X001467Y001794D01*
X001397Y001758D01*
X001333Y001712D01*
X001277Y001656D01*
X001231Y001592D01*
X001195Y001522D01*
X001171Y001447D01*
X001160Y001380D01*
X001962Y001380D01*
X001962Y001281D01*
X001160Y001281D01*
X001171Y001213D01*
X001195Y001138D01*
X001231Y001068D01*
X001277Y001004D01*
X001333Y000949D01*
X001397Y000903D01*
X001467Y000867D01*
X001542Y000842D01*
X001620Y000830D01*
X001962Y000830D01*
X001962Y001281D01*
X002061Y001281D01*
X002061Y000830D01*
X002403Y000830D01*
X002481Y000842D01*
X002556Y000867D01*
X002626Y000903D01*
X002690Y000949D01*
X002745Y001004D01*
X002656Y000925D02*
X008220Y000925D01*
X008220Y000828D02*
X000356Y000828D01*
X000356Y000925D02*
X001366Y000925D01*
X001265Y001022D02*
X000356Y001022D01*
X000356Y001118D02*
X001206Y001118D01*
X001171Y001215D02*
X000356Y001215D01*
X000356Y001312D02*
X001962Y001312D01*
X001962Y001215D02*
X002061Y001215D01*
X002061Y001118D02*
X001962Y001118D01*
X001962Y001022D02*
X002061Y001022D01*
X002061Y000925D02*
X001962Y000925D01*
X002061Y001312D02*
X005483Y001312D01*
X005452Y001409D02*
X002858Y001409D01*
X002862Y001380D02*
X002852Y001447D01*
X002827Y001522D01*
X002792Y001592D01*
X002745Y001656D01*
X002690Y001712D01*
X002626Y001758D01*
X002556Y001794D01*
X002481Y001818D01*
X002403Y001830D01*
X002061Y001830D01*
X002061Y001380D01*
X002862Y001380D01*
X002833Y001506D02*
X005827Y001506D01*
X005827Y001409D02*
X005889Y001409D01*
X005889Y001312D02*
X005827Y001312D01*
X005827Y001215D02*
X005889Y001215D01*
X005889Y001118D02*
X005827Y001118D01*
X005677Y001118D02*
X002817Y001118D01*
X002852Y001215D02*
X005580Y001215D01*
X005452Y001603D02*
X002784Y001603D01*
X002702Y001700D02*
X005472Y001700D01*
X005569Y001797D02*
X002546Y001797D01*
X002061Y001797D02*
X001962Y001797D01*
X001962Y001700D02*
X002061Y001700D01*
X002061Y001603D02*
X001962Y001603D01*
X001962Y001506D02*
X002061Y001506D01*
X002061Y001409D02*
X001962Y001409D01*
X001477Y001797D02*
X000356Y001797D01*
X000356Y001894D02*
X005666Y001894D01*
X006147Y001797D02*
X008224Y001797D01*
X008220Y001700D02*
X006244Y001700D01*
X006264Y001603D02*
X008220Y001603D01*
X008231Y000731D02*
X000356Y000731D01*
X000356Y000634D02*
X008257Y000634D01*
X008303Y000537D02*
X000356Y000537D01*
X000356Y000440D02*
X008377Y000440D01*
X009245Y000440D02*
X019761Y000440D01*
X019606Y000537D02*
X009318Y000537D01*
X009401Y001215D02*
X011232Y001215D01*
X011704Y001215D02*
X013200Y001215D01*
X013076Y001312D02*
X011829Y001312D01*
X011906Y001409D02*
X012999Y001409D01*
X012959Y001506D02*
X011946Y001506D01*
X011968Y001603D02*
X012936Y001603D01*
X012936Y001700D02*
X011968Y001700D01*
X011968Y001797D02*
X012936Y001797D01*
X012936Y001894D02*
X011968Y001894D01*
X011968Y001991D02*
X012936Y001991D01*
X012936Y002088D02*
X011968Y002088D01*
X011968Y002185D02*
X012936Y002185D01*
X012936Y002282D02*
X011968Y002282D01*
X011968Y002378D02*
X012936Y002378D01*
X012941Y002475D02*
X011963Y002475D01*
X011923Y002572D02*
X012982Y002572D01*
X013035Y002669D02*
X011870Y002669D01*
X011773Y002766D02*
X013132Y002766D01*
X013742Y002766D02*
X018120Y002766D01*
X018217Y002669D02*
X013839Y002669D01*
X013892Y002572D02*
X018314Y002572D01*
X017226Y001797D02*
X017165Y001797D01*
X016488Y002118D02*
X017866Y000937D01*
X016226Y001797D02*
X013937Y001797D01*
X013937Y001894D02*
X016130Y001894D01*
X016074Y001991D02*
X013937Y001991D01*
X013937Y002088D02*
X016074Y002088D01*
X016074Y002185D02*
X013937Y002185D01*
X013937Y002282D02*
X016074Y002282D01*
X016166Y002378D02*
X013937Y002378D01*
X013932Y002475D02*
X016263Y002475D01*
X016480Y002118D02*
X016488Y002118D01*
X020876Y004608D02*
X021819Y004608D01*
X021939Y004705D02*
X020980Y004705D01*
X022459Y008000D02*
X024840Y008000D01*
X024762Y008097D02*
X022533Y008097D01*
X021078Y008969D02*
X017319Y008969D01*
X017416Y009066D02*
X020976Y009066D01*
X020879Y009163D02*
X019142Y009163D01*
X019220Y009260D02*
X020782Y009260D01*
X020686Y009357D02*
X019254Y009357D01*
X019254Y009454D02*
X020589Y009454D01*
X020492Y009551D02*
X019217Y009551D01*
X019133Y009648D02*
X019651Y009648D01*
X019554Y009745D02*
X019146Y009745D01*
X019243Y009842D02*
X019457Y009842D01*
X019402Y009939D02*
X019298Y009939D01*
X019298Y010036D02*
X019402Y010036D01*
X019402Y010133D02*
X019298Y010133D01*
X019298Y010229D02*
X019402Y010229D01*
X019461Y010326D02*
X019239Y010326D01*
X019142Y010423D02*
X019558Y010423D01*
X019655Y010520D02*
X019045Y010520D01*
X020045Y010520D02*
X020218Y010520D01*
X020218Y010423D02*
X020142Y010423D01*
X020212Y010811D02*
X020218Y010811D01*
X020243Y009842D02*
X020247Y009842D01*
X020298Y009745D02*
X020146Y009745D01*
X020049Y009648D02*
X020395Y009648D01*
X021439Y009745D02*
X022035Y009745D01*
X022440Y009648D02*
X022787Y009648D01*
X022787Y009551D02*
X022529Y009551D01*
X025101Y009163D02*
X025198Y009163D01*
X025198Y009066D02*
X025101Y009066D01*
X025101Y008969D02*
X025198Y008969D01*
X025320Y010908D02*
X025787Y010908D01*
X025884Y011005D02*
X025463Y011005D01*
X025538Y011102D02*
X025981Y011102D01*
X026078Y011199D02*
X025650Y011199D01*
X025747Y011296D02*
X026175Y011296D01*
X026272Y011393D02*
X025844Y011393D01*
X025941Y011489D02*
X026369Y011489D01*
X026466Y011586D02*
X026038Y011586D01*
X026135Y011683D02*
X026562Y011683D01*
X026659Y011780D02*
X026232Y011780D01*
X026329Y011877D02*
X026756Y011877D01*
X026853Y011974D02*
X026426Y011974D01*
X026523Y012071D02*
X026950Y012071D01*
X027047Y012168D02*
X026620Y012168D01*
X026717Y012265D02*
X027118Y012265D01*
X027118Y012362D02*
X026813Y012362D01*
X026910Y012459D02*
X027141Y012459D01*
X027238Y012556D02*
X026921Y012556D01*
X026921Y012653D02*
X027335Y012653D01*
X027400Y012750D02*
X026921Y012750D01*
X026921Y012846D02*
X027465Y012846D01*
X027580Y012943D02*
X027001Y012943D01*
X027098Y013040D02*
X030356Y013040D01*
X030356Y013137D02*
X028573Y013137D01*
X028718Y013234D02*
X030356Y013234D01*
X030356Y013331D02*
X028795Y013331D01*
X028836Y013428D02*
X030356Y013428D01*
X030356Y013525D02*
X028850Y013525D01*
X028850Y013622D02*
X030356Y013622D01*
X030356Y013719D02*
X028817Y013719D01*
X028770Y013816D02*
X030356Y013816D01*
X030356Y013913D02*
X028673Y013913D01*
X028102Y013551D02*
X027330Y013551D01*
X026724Y012944D01*
X026724Y012551D01*
X025488Y011315D01*
X025149Y011315D01*
X025404Y011683D02*
X025578Y011683D01*
X025053Y011877D02*
X023771Y011877D01*
X023771Y011974D02*
X024866Y011974D01*
X024773Y012071D02*
X023771Y012071D01*
X023771Y012168D02*
X024733Y012168D01*
X024708Y012265D02*
X023771Y012265D01*
X023771Y012362D02*
X024708Y012362D01*
X024732Y012459D02*
X023771Y012459D01*
X023771Y012556D02*
X024772Y012556D01*
X024863Y012653D02*
X023771Y012653D01*
X023378Y012362D02*
X022590Y012362D01*
X022590Y012265D02*
X023378Y012265D01*
X023378Y012168D02*
X022566Y012168D01*
X022526Y012071D02*
X023378Y012071D01*
X023378Y011974D02*
X022433Y011974D01*
X022246Y011877D02*
X023378Y011877D01*
X023574Y011370D02*
X023574Y013889D01*
X021967Y013913D02*
X021803Y013913D01*
X021803Y014010D02*
X021830Y014010D01*
X021803Y013719D02*
X021973Y013719D01*
X021833Y013622D02*
X021803Y013622D01*
X021803Y012943D02*
X021897Y012943D01*
X025149Y012315D02*
X025504Y012315D01*
X026133Y012944D01*
X026133Y013338D01*
X027346Y014551D01*
X028102Y014551D01*
X027516Y014203D02*
X027277Y014203D01*
X027374Y014300D02*
X027421Y014300D01*
X027389Y013331D02*
X027408Y013331D01*
X027486Y013234D02*
X027292Y013234D01*
X027195Y013137D02*
X027631Y013137D01*
X028550Y011974D02*
X030356Y011974D01*
X023007Y016820D02*
X021355Y016820D01*
X020819Y016488D02*
X015011Y016488D01*
X014923Y015076D02*
X014913Y015076D01*
X014913Y014979D02*
X015080Y014979D01*
X014519Y014785D02*
X014055Y014785D01*
X014057Y014688D02*
X014519Y014688D01*
X014321Y014953D02*
X014143Y014953D01*
X012551Y016336D02*
X012530Y016336D01*
X013684Y012071D02*
X018268Y012071D01*
X016291Y009842D02*
X014960Y009842D01*
X014991Y009832D02*
X014924Y009854D01*
X014855Y009865D01*
X014569Y009865D01*
X014569Y009466D01*
X015265Y009466D01*
X015256Y009522D01*
X015234Y009589D01*
X015202Y009652D01*
X015161Y009709D01*
X015111Y009758D01*
X015054Y009800D01*
X014991Y009832D01*
X015124Y009745D02*
X016291Y009745D01*
X016291Y009648D02*
X015204Y009648D01*
X015246Y009551D02*
X016291Y009551D01*
X016291Y009454D02*
X014569Y009454D01*
X014569Y009466D02*
X014569Y009368D01*
X015265Y009368D01*
X015256Y009312D01*
X015234Y009245D01*
X015202Y009182D01*
X015161Y009125D01*
X015111Y009075D01*
X015054Y009034D01*
X014991Y009002D01*
X014924Y008980D01*
X014855Y008969D01*
X014569Y008969D01*
X014569Y009368D01*
X014470Y009368D01*
X013774Y009368D01*
X013783Y009312D01*
X013804Y009245D01*
X013836Y009182D01*
X013878Y009125D01*
X013928Y009075D01*
X013985Y009034D01*
X014047Y009002D01*
X014114Y008980D01*
X014184Y008969D01*
X014470Y008969D01*
X014470Y009368D01*
X014470Y009466D01*
X013774Y009466D01*
X013783Y009522D01*
X013804Y009589D01*
X013836Y009652D01*
X013878Y009709D01*
X013928Y009758D01*
X013985Y009800D01*
X014047Y009832D01*
X014114Y009854D01*
X014184Y009865D01*
X014470Y009865D01*
X014470Y009466D01*
X014569Y009466D01*
X014569Y009551D02*
X014470Y009551D01*
X014470Y009648D02*
X014569Y009648D01*
X014569Y009745D02*
X014470Y009745D01*
X014470Y009842D02*
X014569Y009842D01*
X014470Y009454D02*
X012009Y009454D01*
X012009Y009466D02*
X012706Y009466D01*
X012697Y009522D01*
X012675Y009589D01*
X012643Y009652D01*
X012602Y009709D01*
X012552Y009758D01*
X012495Y009800D01*
X012432Y009832D01*
X012365Y009854D01*
X012295Y009865D01*
X012009Y009865D01*
X012009Y009466D01*
X011911Y009466D01*
X011911Y009368D01*
X012009Y009368D01*
X012009Y008969D01*
X012295Y008969D01*
X012365Y008980D01*
X012432Y009002D01*
X012495Y009034D01*
X012552Y009075D01*
X012602Y009125D01*
X012643Y009182D01*
X012675Y009245D01*
X012697Y009312D01*
X012706Y009368D01*
X012009Y009368D01*
X012009Y009466D01*
X012009Y009551D02*
X011911Y009551D01*
X011911Y009466D02*
X011911Y009865D01*
X011625Y009865D01*
X011555Y009854D01*
X011488Y009832D01*
X011426Y009800D01*
X011369Y009758D01*
X011319Y009709D01*
X011277Y009652D01*
X011245Y009589D01*
X011224Y009522D01*
X011215Y009466D01*
X011911Y009466D01*
X011911Y009454D02*
X010721Y009454D01*
X010610Y009357D02*
X011216Y009357D01*
X011240Y009260D02*
X010500Y009260D01*
X010389Y009163D02*
X011291Y009163D01*
X011381Y009066D02*
X010278Y009066D01*
X010832Y009551D02*
X011233Y009551D01*
X011276Y009648D02*
X010943Y009648D01*
X011054Y009745D02*
X011355Y009745D01*
X011519Y009842D02*
X011164Y009842D01*
X011911Y009842D02*
X012009Y009842D01*
X012009Y009745D02*
X011911Y009745D01*
X011911Y009648D02*
X012009Y009648D01*
X012401Y009842D02*
X014078Y009842D01*
X013914Y009745D02*
X012565Y009745D01*
X012645Y009648D02*
X013835Y009648D01*
X013792Y009551D02*
X012687Y009551D01*
X012704Y009357D02*
X013776Y009357D01*
X013800Y009260D02*
X012680Y009260D01*
X012629Y009163D02*
X013850Y009163D01*
X013940Y009066D02*
X012539Y009066D01*
X012296Y008969D02*
X014183Y008969D01*
X014470Y008969D02*
X014569Y008969D01*
X014569Y009066D02*
X014470Y009066D01*
X014470Y009163D02*
X014569Y009163D01*
X014569Y009260D02*
X014470Y009260D01*
X014470Y009357D02*
X014569Y009357D01*
X015098Y009066D02*
X016291Y009066D01*
X016291Y008969D02*
X014855Y008969D01*
X015188Y009163D02*
X016291Y009163D01*
X016291Y009260D02*
X015239Y009260D01*
X015263Y009357D02*
X016291Y009357D01*
X017513Y009163D02*
X018755Y009163D01*
X016291Y008194D02*
X015211Y008194D01*
X015133Y008097D02*
X016291Y008097D01*
X016291Y008000D02*
X014983Y008000D01*
X014056Y008000D02*
X012424Y008000D01*
X012573Y008097D02*
X013906Y008097D01*
X013827Y008194D02*
X012652Y008194D01*
X012693Y008291D02*
X013787Y008291D01*
X013772Y008388D02*
X012708Y008388D01*
X012708Y008485D02*
X013772Y008485D01*
X013803Y008582D02*
X012676Y008582D01*
X012632Y008679D02*
X013848Y008679D01*
X013945Y008776D02*
X012535Y008776D01*
X012009Y008969D02*
X011911Y008969D01*
X011911Y009066D02*
X012009Y009066D01*
X012009Y009163D02*
X011911Y009163D01*
X011911Y009260D02*
X012009Y009260D01*
X012009Y009357D02*
X011911Y009357D01*
X011431Y007806D02*
X009401Y007806D01*
X009401Y007709D02*
X011320Y007709D01*
X011257Y007612D02*
X009401Y007612D01*
X009401Y007516D02*
X011217Y007516D01*
X011213Y007419D02*
X009401Y007419D01*
X009401Y007322D02*
X011215Y007322D01*
X011255Y007225D02*
X009401Y007225D01*
X009401Y007128D02*
X011316Y007128D01*
X011422Y007031D02*
X009401Y007031D01*
X009401Y006934D02*
X012165Y006934D01*
X012262Y006837D02*
X009401Y006837D01*
X009401Y006740D02*
X012359Y006740D01*
X012456Y006643D02*
X009368Y006643D01*
X009327Y006546D02*
X012552Y006546D01*
X012649Y006449D02*
X009254Y006449D01*
X009157Y006352D02*
X012746Y006352D01*
X012830Y006547D02*
X011960Y007417D01*
X012490Y007806D02*
X013990Y007806D01*
X013879Y007709D02*
X012601Y007709D01*
X012664Y007612D02*
X013816Y007612D01*
X013776Y007516D02*
X012704Y007516D01*
X012708Y007419D02*
X013772Y007419D01*
X013774Y007322D02*
X012705Y007322D01*
X012665Y007225D02*
X013814Y007225D01*
X013875Y007128D02*
X012604Y007128D01*
X012625Y007031D02*
X013981Y007031D01*
X014716Y006547D02*
X012830Y006547D01*
X006547Y004511D02*
X003527Y004511D01*
X003430Y004414D02*
X006547Y004414D01*
X006547Y004317D02*
X003333Y004317D01*
X003236Y004220D02*
X006547Y004220D01*
X006547Y004123D02*
X000356Y004123D01*
X000356Y004026D02*
X006547Y004026D01*
X006547Y003929D02*
X000356Y003929D01*
X000356Y003832D02*
X005607Y003832D01*
X005599Y003827D02*
X005542Y003770D01*
X005498Y003704D01*
X005467Y003630D01*
X005452Y003551D01*
X005452Y003542D01*
X005827Y003542D01*
X005827Y003481D01*
X005452Y003481D01*
X005452Y003471D01*
X005467Y003393D01*
X005498Y003319D01*
X005542Y003253D01*
X005599Y003196D01*
X005666Y003152D01*
X005739Y003121D01*
X005818Y003105D01*
X005827Y003105D01*
X005827Y003481D01*
X005889Y003481D01*
X005889Y003542D01*
X006264Y003542D01*
X006264Y003551D01*
X006248Y003630D01*
X006218Y003704D01*
X006173Y003770D01*
X006117Y003827D01*
X006050Y003871D01*
X005976Y003902D01*
X005898Y003917D01*
X005889Y003917D01*
X005889Y003542D01*
X005827Y003542D01*
X005827Y003917D01*
X005818Y003917D01*
X005739Y003902D01*
X005666Y003871D01*
X005599Y003827D01*
X005519Y003735D02*
X002609Y003735D01*
X002626Y003727D02*
X002556Y003762D01*
X002481Y003787D01*
X002403Y003799D01*
X002061Y003799D01*
X002061Y003348D01*
X002862Y003348D01*
X002852Y003416D01*
X002827Y003491D01*
X002792Y003561D01*
X002745Y003625D01*
X002690Y003680D01*
X002626Y003727D01*
X002732Y003639D02*
X005471Y003639D01*
X005457Y003445D02*
X002842Y003445D01*
X002802Y003542D02*
X005827Y003542D01*
X005889Y003542D02*
X006547Y003542D01*
X006547Y003639D02*
X006245Y003639D01*
X006197Y003735D02*
X006547Y003735D01*
X006547Y003832D02*
X006108Y003832D01*
X005889Y003832D02*
X005827Y003832D01*
X005827Y003735D02*
X005889Y003735D01*
X005889Y003639D02*
X005827Y003639D01*
X005889Y003481D02*
X006264Y003481D01*
X006264Y003471D01*
X006248Y003393D01*
X006218Y003319D01*
X006173Y003253D01*
X006117Y003196D01*
X006050Y003152D01*
X005976Y003121D01*
X005898Y003105D01*
X005889Y003105D01*
X005889Y003481D01*
X005889Y003445D02*
X005827Y003445D01*
X005827Y003348D02*
X005889Y003348D01*
X005889Y003251D02*
X005827Y003251D01*
X005827Y003154D02*
X005889Y003154D01*
X006054Y003154D02*
X006547Y003154D01*
X006547Y003251D02*
X006172Y003251D01*
X006230Y003348D02*
X006547Y003348D01*
X006547Y003445D02*
X006259Y003445D01*
X005662Y003154D02*
X002843Y003154D01*
X002852Y003182D02*
X002827Y003107D01*
X002792Y003037D01*
X002745Y002973D01*
X002690Y002917D01*
X002626Y002871D01*
X002556Y002835D01*
X002481Y002811D01*
X002403Y002799D01*
X002061Y002799D01*
X002061Y003250D01*
X002061Y003348D01*
X001962Y003348D01*
X001962Y003250D01*
X001160Y003250D01*
X001171Y003182D01*
X001195Y003107D01*
X001231Y003037D01*
X001277Y002973D01*
X001333Y002917D01*
X001397Y002871D01*
X001467Y002835D01*
X001542Y002811D01*
X001620Y002799D01*
X001962Y002799D01*
X001962Y003250D01*
X002061Y003250D01*
X002862Y003250D01*
X002852Y003182D01*
X002802Y003057D02*
X006547Y003057D01*
X006547Y002960D02*
X002732Y002960D01*
X002610Y002863D02*
X006547Y002863D01*
X006547Y002766D02*
X000356Y002766D01*
X000356Y002669D02*
X006547Y002669D01*
X005544Y003251D02*
X002061Y003251D01*
X002061Y003348D02*
X005486Y003348D01*
X005276Y004802D02*
X003817Y004802D01*
X003914Y004899D02*
X005199Y004899D01*
X005159Y004995D02*
X004011Y004995D01*
X001962Y003799D02*
X001620Y003799D01*
X001542Y003787D01*
X001467Y003762D01*
X001397Y003727D01*
X001333Y003680D01*
X001277Y003625D01*
X001231Y003561D01*
X001195Y003491D01*
X001171Y003416D01*
X001160Y003348D01*
X001962Y003348D01*
X001962Y003799D01*
X001962Y003735D02*
X002061Y003735D01*
X002061Y003639D02*
X001962Y003639D01*
X001962Y003542D02*
X002061Y003542D01*
X002061Y003445D02*
X001962Y003445D01*
X001962Y003348D02*
X000356Y003348D01*
X000356Y003445D02*
X001180Y003445D01*
X001221Y003542D02*
X000356Y003542D01*
X000356Y003639D02*
X001291Y003639D01*
X001414Y003735D02*
X000356Y003735D01*
X000356Y003251D02*
X001962Y003251D01*
X001962Y003154D02*
X002061Y003154D01*
X002061Y003057D02*
X001962Y003057D01*
X001962Y002960D02*
X002061Y002960D01*
X002061Y002863D02*
X001962Y002863D01*
X001412Y002863D02*
X000356Y002863D01*
X000356Y002960D02*
X001290Y002960D01*
X001221Y003057D02*
X000356Y003057D01*
X000356Y003154D02*
X001180Y003154D01*
X001321Y001700D02*
X000356Y001700D01*
X000356Y001603D02*
X001239Y001603D01*
X001190Y001506D02*
X000356Y001506D01*
X000356Y001409D02*
X001165Y001409D01*
D24*
X007039Y004480D03*
X008023Y005267D03*
X009007Y004086D03*
X009401Y004086D03*
X010189Y003594D03*
X010189Y004578D03*
X011960Y004086D03*
X010779Y006055D03*
X014519Y006055D03*
X014716Y006547D03*
X016094Y006645D03*
X019244Y006842D03*
X020720Y004874D03*
X019244Y004283D03*
X016586Y004086D03*
X015897Y004086D03*
X018161Y002511D03*
X020622Y002118D03*
X022590Y002807D03*
X024165Y003299D03*
X022590Y003791D03*
X022984Y005464D03*
X022984Y006252D03*
X025838Y007767D03*
X023319Y008220D03*
X022984Y008811D03*
X023476Y009696D03*
X021212Y010444D03*
X019933Y009303D03*
X018948Y009401D03*
X017078Y010385D03*
X016389Y011527D03*
X015307Y012354D03*
X014322Y013141D03*
X013437Y012256D03*
X012748Y013141D03*
X010385Y014322D03*
X009204Y016291D03*
X009401Y017531D03*
X005070Y015405D03*
X003889Y015405D03*
X002511Y016291D03*
X003102Y014126D03*
X002118Y012354D03*
X009007Y009007D03*
X009598Y009007D03*
X016488Y014126D03*
X018850Y012610D03*
X022689Y012846D03*
X023574Y011370D03*
X026626Y009893D03*
X028594Y007925D03*
X026429Y005759D03*
X028004Y004775D03*
X028988Y003299D03*
X030858Y004283D03*
X026724Y001724D03*
X024756Y001330D03*
X019834Y000740D03*
X017866Y000937D03*
X016094Y000740D03*
X030661Y001527D03*
X023476Y015011D03*
X025149Y016094D03*
X023771Y017275D03*
X023181Y017078D03*
X019834Y017472D03*
X018063Y017275D03*
D25*
X017964Y017177D01*
X005169Y017177D01*
X004480Y016488D01*
X004480Y013769D01*
D26*
X013732Y014716D03*
X029086Y007630D03*
X030464Y007630D03*
D27*
X022149Y009315D02*
X021299Y009315D01*
X020622Y009992D01*
X020622Y011370D01*
X020228Y011763D01*
X018531Y011763D01*
X017850Y011082D01*
X016791Y011082D01*
X016094Y010385D01*
X011173Y010385D01*
X009598Y009007D01*
X009007Y009007D01*
D28*
X009007Y004086D02*
X009401Y004086D01*
X011960Y004086D01*
X015897Y004086D01*
M02*
