G75*
%MOIN*%
%OFA0B0*%
%FSLAX24Y24*%
%IPPOS*%
%LPD*%
%AMOC8*
5,1,8,0,0,1.08239X$1,22.5*
%
%ADD10C,0.0000*%
%ADD11C,0.0060*%
%ADD12C,0.0030*%
%ADD13C,0.0080*%
%ADD14C,0.0040*%
%ADD15C,0.0160*%
%ADD16C,0.0050*%
%ADD17R,0.0500X0.0350*%
%ADD18R,0.2100X0.0400*%
%ADD19R,0.0200X0.1000*%
%ADD20C,0.0020*%
%ADD21C,0.0200*%
%ADD22R,0.0300X0.4200*%
%ADD23R,0.0200X0.0750*%
%ADD24R,0.0200X0.0300*%
%ADD25R,0.0240X0.0620*%
%ADD26C,0.0100*%
D10*
X000149Y000149D02*
X000149Y017866D01*
X030563Y017866D01*
X030563Y008712D01*
X031645Y007630D01*
X031645Y000149D01*
X000149Y000149D01*
D11*
X000361Y000349D02*
X001302Y000349D01*
X003902Y000349D01*
X003902Y004279D01*
X003981Y004279D01*
X003981Y000349D01*
X003902Y000349D01*
X003181Y001329D02*
X003183Y001357D01*
X003189Y001384D01*
X003198Y001410D01*
X003211Y001435D01*
X003228Y001458D01*
X003247Y001478D01*
X003269Y001495D01*
X003293Y001509D01*
X003319Y001519D01*
X003346Y001526D01*
X003374Y001529D01*
X003402Y001528D01*
X003429Y001523D01*
X003456Y001514D01*
X003481Y001502D01*
X003504Y001487D01*
X003525Y001468D01*
X003543Y001447D01*
X003558Y001423D01*
X003569Y001397D01*
X003577Y001371D01*
X003581Y001343D01*
X003581Y001315D01*
X003577Y001287D01*
X003569Y001261D01*
X003558Y001235D01*
X003543Y001211D01*
X003525Y001190D01*
X003504Y001171D01*
X003481Y001156D01*
X003456Y001144D01*
X003429Y001135D01*
X003402Y001130D01*
X003374Y001129D01*
X003346Y001132D01*
X003319Y001139D01*
X003293Y001149D01*
X003269Y001163D01*
X003247Y001180D01*
X003228Y001200D01*
X003211Y001223D01*
X003198Y001248D01*
X003189Y001274D01*
X003183Y001301D01*
X003181Y001329D01*
X001302Y001679D02*
X001302Y002949D01*
X001302Y003649D02*
X001302Y004279D01*
X003902Y004279D01*
X003181Y003299D02*
X003183Y003327D01*
X003189Y003354D01*
X003198Y003380D01*
X003211Y003405D01*
X003228Y003428D01*
X003247Y003448D01*
X003269Y003465D01*
X003293Y003479D01*
X003319Y003489D01*
X003346Y003496D01*
X003374Y003499D01*
X003402Y003498D01*
X003429Y003493D01*
X003456Y003484D01*
X003481Y003472D01*
X003504Y003457D01*
X003525Y003438D01*
X003543Y003417D01*
X003558Y003393D01*
X003569Y003367D01*
X003577Y003341D01*
X003581Y003313D01*
X003581Y003285D01*
X003577Y003257D01*
X003569Y003231D01*
X003558Y003205D01*
X003543Y003181D01*
X003525Y003160D01*
X003504Y003141D01*
X003481Y003126D01*
X003456Y003114D01*
X003429Y003105D01*
X003402Y003100D01*
X003374Y003099D01*
X003346Y003102D01*
X003319Y003109D01*
X003293Y003119D01*
X003269Y003133D01*
X003247Y003150D01*
X003228Y003170D01*
X003211Y003193D01*
X003198Y003218D01*
X003189Y003244D01*
X003183Y003271D01*
X003181Y003299D01*
X001302Y004279D02*
X000361Y004279D01*
X000361Y000349D01*
X001302Y000349D02*
X001302Y000979D01*
X005508Y002311D02*
X005858Y002311D01*
X006208Y002311D01*
X006208Y002441D01*
X005508Y002441D01*
X005508Y002311D01*
X005558Y002381D02*
X006158Y002381D01*
X006208Y002581D02*
X006208Y002711D01*
X005858Y002711D01*
X005508Y002711D01*
X005508Y002581D01*
X006208Y002581D01*
X004158Y002511D02*
X004160Y002593D01*
X004166Y002675D01*
X004176Y002757D01*
X004190Y002838D01*
X004207Y002918D01*
X004229Y002997D01*
X004254Y003075D01*
X004284Y003152D01*
X004316Y003227D01*
X004353Y003301D01*
X004393Y003373D01*
X004436Y003443D01*
X004483Y003510D01*
X004533Y003576D01*
X004586Y003638D01*
X004641Y003698D01*
X004700Y003756D01*
X004762Y003810D01*
X004826Y003862D01*
X004892Y003910D01*
X004961Y003955D01*
X005032Y003997D01*
X005105Y004035D01*
X005179Y004070D01*
X005255Y004101D01*
X005333Y004128D01*
X005411Y004151D01*
X005491Y004171D01*
X005572Y004187D01*
X005653Y004199D01*
X005735Y004207D01*
X005817Y004211D01*
X005899Y004211D01*
X005981Y004207D01*
X006063Y004199D01*
X006144Y004187D01*
X006225Y004171D01*
X006305Y004151D01*
X006383Y004128D01*
X006461Y004101D01*
X006537Y004070D01*
X006611Y004035D01*
X006684Y003997D01*
X006755Y003955D01*
X006824Y003910D01*
X006890Y003862D01*
X006954Y003810D01*
X007016Y003756D01*
X007075Y003698D01*
X007130Y003638D01*
X007183Y003576D01*
X007233Y003510D01*
X007280Y003443D01*
X007323Y003373D01*
X007363Y003301D01*
X007400Y003227D01*
X007432Y003152D01*
X007462Y003075D01*
X007487Y002997D01*
X007509Y002918D01*
X007526Y002838D01*
X007540Y002757D01*
X007550Y002675D01*
X007556Y002593D01*
X007558Y002511D01*
X007556Y002429D01*
X007550Y002347D01*
X007540Y002265D01*
X007526Y002184D01*
X007509Y002104D01*
X007487Y002025D01*
X007462Y001947D01*
X007432Y001870D01*
X007400Y001795D01*
X007363Y001721D01*
X007323Y001649D01*
X007280Y001579D01*
X007233Y001512D01*
X007183Y001446D01*
X007130Y001384D01*
X007075Y001324D01*
X007016Y001266D01*
X006954Y001212D01*
X006890Y001160D01*
X006824Y001112D01*
X006755Y001067D01*
X006684Y001025D01*
X006611Y000987D01*
X006537Y000952D01*
X006461Y000921D01*
X006383Y000894D01*
X006305Y000871D01*
X006225Y000851D01*
X006144Y000835D01*
X006063Y000823D01*
X005981Y000815D01*
X005899Y000811D01*
X005817Y000811D01*
X005735Y000815D01*
X005653Y000823D01*
X005572Y000835D01*
X005491Y000851D01*
X005411Y000871D01*
X005333Y000894D01*
X005255Y000921D01*
X005179Y000952D01*
X005105Y000987D01*
X005032Y001025D01*
X004961Y001067D01*
X004892Y001112D01*
X004826Y001160D01*
X004762Y001212D01*
X004700Y001266D01*
X004641Y001324D01*
X004586Y001384D01*
X004533Y001446D01*
X004483Y001512D01*
X004436Y001579D01*
X004393Y001649D01*
X004353Y001721D01*
X004316Y001795D01*
X004284Y001870D01*
X004254Y001947D01*
X004229Y002025D01*
X004207Y002104D01*
X004190Y002184D01*
X004176Y002265D01*
X004166Y002347D01*
X004160Y002429D01*
X004158Y002511D01*
X005858Y002311D02*
X005858Y001961D01*
X005858Y002711D02*
X005858Y003061D01*
X006108Y003011D02*
X006308Y003011D01*
X006208Y002911D02*
X006208Y003111D01*
X007761Y002283D02*
X007761Y006283D01*
X009861Y006283D01*
X009861Y002283D01*
X007761Y002283D01*
X008811Y003283D02*
X008811Y004283D01*
X009041Y004283D01*
X009041Y004433D01*
X008811Y004283D02*
X008581Y004283D01*
X008581Y004133D01*
X008811Y004283D02*
X008581Y003783D01*
X009041Y003783D01*
X008811Y004283D01*
X008811Y004783D01*
X010488Y003981D02*
X010488Y003902D01*
X014418Y003902D01*
X014418Y001302D01*
X014418Y000361D01*
X010488Y000361D01*
X010488Y001302D01*
X010488Y003902D01*
X010488Y003981D02*
X014418Y003981D01*
X014418Y003902D01*
X013238Y003381D02*
X013240Y003409D01*
X013246Y003436D01*
X013255Y003462D01*
X013268Y003487D01*
X013285Y003510D01*
X013304Y003530D01*
X013326Y003547D01*
X013350Y003561D01*
X013376Y003571D01*
X013403Y003578D01*
X013431Y003581D01*
X013459Y003580D01*
X013486Y003575D01*
X013513Y003566D01*
X013538Y003554D01*
X013561Y003539D01*
X013582Y003520D01*
X013600Y003499D01*
X013615Y003475D01*
X013626Y003449D01*
X013634Y003423D01*
X013638Y003395D01*
X013638Y003367D01*
X013634Y003339D01*
X013626Y003313D01*
X013615Y003287D01*
X013600Y003263D01*
X013582Y003242D01*
X013561Y003223D01*
X013538Y003208D01*
X013513Y003196D01*
X013486Y003187D01*
X013459Y003182D01*
X013431Y003181D01*
X013403Y003184D01*
X013376Y003191D01*
X013350Y003201D01*
X013326Y003215D01*
X013304Y003232D01*
X013285Y003252D01*
X013268Y003275D01*
X013255Y003300D01*
X013246Y003326D01*
X013240Y003353D01*
X013238Y003381D01*
X011268Y003381D02*
X011270Y003409D01*
X011276Y003436D01*
X011285Y003462D01*
X011298Y003487D01*
X011315Y003510D01*
X011334Y003530D01*
X011356Y003547D01*
X011380Y003561D01*
X011406Y003571D01*
X011433Y003578D01*
X011461Y003581D01*
X011489Y003580D01*
X011516Y003575D01*
X011543Y003566D01*
X011568Y003554D01*
X011591Y003539D01*
X011612Y003520D01*
X011630Y003499D01*
X011645Y003475D01*
X011656Y003449D01*
X011664Y003423D01*
X011668Y003395D01*
X011668Y003367D01*
X011664Y003339D01*
X011656Y003313D01*
X011645Y003287D01*
X011630Y003263D01*
X011612Y003242D01*
X011591Y003223D01*
X011568Y003208D01*
X011543Y003196D01*
X011516Y003187D01*
X011489Y003182D01*
X011461Y003181D01*
X011433Y003184D01*
X011406Y003191D01*
X011380Y003201D01*
X011356Y003215D01*
X011334Y003232D01*
X011315Y003252D01*
X011298Y003275D01*
X011285Y003300D01*
X011276Y003326D01*
X011270Y003353D01*
X011268Y003381D01*
X011118Y001302D02*
X010488Y001302D01*
X011818Y001302D02*
X013088Y001302D01*
X013788Y001302D02*
X014418Y001302D01*
X015980Y002118D02*
X015982Y002181D01*
X015988Y002243D01*
X015998Y002305D01*
X016011Y002367D01*
X016029Y002427D01*
X016050Y002486D01*
X016075Y002544D01*
X016104Y002600D01*
X016136Y002654D01*
X016171Y002706D01*
X016209Y002755D01*
X016251Y002803D01*
X016295Y002847D01*
X016343Y002889D01*
X016392Y002927D01*
X016444Y002962D01*
X016498Y002994D01*
X016554Y003023D01*
X016612Y003048D01*
X016671Y003069D01*
X016731Y003087D01*
X016793Y003100D01*
X016855Y003110D01*
X016917Y003116D01*
X016980Y003118D01*
X017043Y003116D01*
X017105Y003110D01*
X017167Y003100D01*
X017229Y003087D01*
X017289Y003069D01*
X017348Y003048D01*
X017406Y003023D01*
X017462Y002994D01*
X017516Y002962D01*
X017568Y002927D01*
X017617Y002889D01*
X017665Y002847D01*
X017709Y002803D01*
X017751Y002755D01*
X017789Y002706D01*
X017824Y002654D01*
X017856Y002600D01*
X017885Y002544D01*
X017910Y002486D01*
X017931Y002427D01*
X017949Y002367D01*
X017962Y002305D01*
X017972Y002243D01*
X017978Y002181D01*
X017980Y002118D01*
X017978Y002055D01*
X017972Y001993D01*
X017962Y001931D01*
X017949Y001869D01*
X017931Y001809D01*
X017910Y001750D01*
X017885Y001692D01*
X017856Y001636D01*
X017824Y001582D01*
X017789Y001530D01*
X017751Y001481D01*
X017709Y001433D01*
X017665Y001389D01*
X017617Y001347D01*
X017568Y001309D01*
X017516Y001274D01*
X017462Y001242D01*
X017406Y001213D01*
X017348Y001188D01*
X017289Y001167D01*
X017229Y001149D01*
X017167Y001136D01*
X017105Y001126D01*
X017043Y001120D01*
X016980Y001118D01*
X016917Y001120D01*
X016855Y001126D01*
X016793Y001136D01*
X016731Y001149D01*
X016671Y001167D01*
X016612Y001188D01*
X016554Y001213D01*
X016498Y001242D01*
X016444Y001274D01*
X016392Y001309D01*
X016343Y001347D01*
X016295Y001389D01*
X016251Y001433D01*
X016209Y001481D01*
X016171Y001530D01*
X016136Y001582D01*
X016104Y001636D01*
X016075Y001692D01*
X016050Y001750D01*
X016029Y001809D01*
X016011Y001869D01*
X015998Y001931D01*
X015988Y001993D01*
X015982Y002055D01*
X015980Y002118D01*
X022169Y002745D02*
X022169Y002885D01*
X022169Y003745D02*
X022169Y003885D01*
X022169Y004745D02*
X022169Y004885D01*
X022169Y005745D02*
X022169Y005885D01*
X022169Y006745D02*
X022169Y006885D01*
X022169Y007745D02*
X022169Y007885D01*
X022169Y008745D02*
X022169Y008885D01*
X022169Y009745D02*
X022169Y009885D01*
X022169Y010745D02*
X022169Y010885D01*
X022169Y011745D02*
X022169Y011885D01*
X022169Y012745D02*
X022169Y012885D01*
X022169Y013745D02*
X022169Y013885D01*
X022169Y014745D02*
X022169Y014885D01*
X022559Y015665D02*
X023529Y015665D01*
X023769Y015665D01*
X024909Y015665D01*
X025129Y014885D02*
X025129Y014745D01*
X025129Y013885D02*
X025129Y013745D01*
X025129Y012885D02*
X025129Y012745D01*
X025129Y011885D02*
X025129Y011745D01*
X025129Y010885D02*
X025129Y010745D01*
X025129Y009885D02*
X025129Y009745D01*
X025129Y008885D02*
X025129Y008745D01*
X025129Y007885D02*
X025129Y007745D01*
X025129Y006885D02*
X025129Y006745D01*
X025129Y005885D02*
X025129Y005745D01*
X025129Y004885D02*
X025129Y004745D01*
X025129Y003885D02*
X025129Y003745D01*
X025129Y002885D02*
X025129Y002745D01*
X024909Y001965D02*
X022389Y001965D01*
X028680Y002552D02*
X028680Y002652D01*
X028680Y003052D02*
X028680Y003152D01*
X028680Y003552D02*
X028680Y003652D01*
X028680Y004002D02*
X028682Y004019D01*
X028686Y004036D01*
X028693Y004052D01*
X028703Y004066D01*
X028716Y004079D01*
X028730Y004089D01*
X028746Y004096D01*
X028763Y004100D01*
X028780Y004102D01*
X030180Y004102D01*
X030197Y004100D01*
X030214Y004096D01*
X030230Y004089D01*
X030244Y004079D01*
X030257Y004066D01*
X030267Y004052D01*
X030274Y004036D01*
X030278Y004019D01*
X030280Y004002D01*
X030280Y003652D02*
X030280Y003552D01*
X030280Y003152D02*
X030280Y003052D01*
X030280Y002652D02*
X030280Y002552D01*
X029730Y002402D02*
X029732Y002426D01*
X029738Y002450D01*
X029747Y002472D01*
X029760Y002492D01*
X029776Y002510D01*
X029795Y002525D01*
X029816Y002538D01*
X029838Y002546D01*
X029862Y002551D01*
X029886Y002552D01*
X029910Y002549D01*
X029933Y002542D01*
X029955Y002532D01*
X029975Y002518D01*
X029992Y002501D01*
X030007Y002482D01*
X030018Y002461D01*
X030026Y002438D01*
X030030Y002414D01*
X030030Y002390D01*
X030026Y002366D01*
X030018Y002343D01*
X030007Y002322D01*
X029992Y002303D01*
X029975Y002286D01*
X029955Y002272D01*
X029933Y002262D01*
X029910Y002255D01*
X029886Y002252D01*
X029862Y002253D01*
X029838Y002258D01*
X029816Y002266D01*
X029795Y002279D01*
X029776Y002294D01*
X029760Y002312D01*
X029747Y002332D01*
X029738Y002354D01*
X029732Y002378D01*
X029730Y002402D01*
X030180Y002102D02*
X030197Y002104D01*
X030214Y002108D01*
X030230Y002115D01*
X030244Y002125D01*
X030257Y002138D01*
X030267Y002152D01*
X030274Y002168D01*
X030278Y002185D01*
X030280Y002202D01*
X030180Y002102D02*
X028780Y002102D01*
X028763Y002104D01*
X028746Y002108D01*
X028730Y002115D01*
X028716Y002125D01*
X028703Y002138D01*
X028693Y002152D01*
X028686Y002168D01*
X028682Y002185D01*
X028680Y002202D01*
X019894Y005642D02*
X019894Y008042D01*
X019892Y008092D01*
X019886Y008141D01*
X019877Y008190D01*
X019864Y008238D01*
X019847Y008285D01*
X019827Y008330D01*
X019803Y008374D01*
X019776Y008416D01*
X019745Y008456D01*
X019712Y008493D01*
X019676Y008527D01*
X019638Y008559D01*
X019597Y008588D01*
X019555Y008613D01*
X019510Y008635D01*
X019464Y008654D01*
X019416Y008669D01*
X019368Y008680D01*
X019319Y008688D01*
X019269Y008692D01*
X019219Y008692D01*
X019169Y008688D01*
X019120Y008680D01*
X019072Y008669D01*
X019024Y008654D01*
X018978Y008635D01*
X018933Y008613D01*
X018891Y008588D01*
X018850Y008559D01*
X018812Y008527D01*
X018776Y008493D01*
X018743Y008456D01*
X018712Y008416D01*
X018685Y008374D01*
X018661Y008330D01*
X018641Y008285D01*
X018624Y008238D01*
X018611Y008190D01*
X018602Y008141D01*
X018596Y008092D01*
X018594Y008042D01*
X018594Y005642D01*
X018596Y005592D01*
X018602Y005543D01*
X018611Y005494D01*
X018624Y005446D01*
X018641Y005399D01*
X018661Y005354D01*
X018685Y005310D01*
X018712Y005268D01*
X018743Y005228D01*
X018776Y005191D01*
X018812Y005157D01*
X018850Y005125D01*
X018891Y005096D01*
X018933Y005071D01*
X018978Y005049D01*
X019024Y005030D01*
X019072Y005015D01*
X019120Y005004D01*
X019169Y004996D01*
X019219Y004992D01*
X019269Y004992D01*
X019319Y004996D01*
X019368Y005004D01*
X019416Y005015D01*
X019464Y005030D01*
X019510Y005049D01*
X019555Y005071D01*
X019597Y005096D01*
X019638Y005125D01*
X019676Y005157D01*
X019712Y005191D01*
X019745Y005228D01*
X019776Y005268D01*
X019803Y005310D01*
X019827Y005354D01*
X019847Y005399D01*
X019864Y005446D01*
X019877Y005494D01*
X019886Y005543D01*
X019892Y005592D01*
X019894Y005642D01*
X019244Y006342D02*
X019244Y006592D01*
X019544Y006592D01*
X019544Y006742D02*
X018944Y006742D01*
X018944Y006942D01*
X019544Y006942D01*
X019544Y006742D01*
X019244Y006592D02*
X018944Y006592D01*
X018944Y007092D02*
X019244Y007092D01*
X019244Y007342D01*
X019244Y007092D02*
X019544Y007092D01*
X015219Y006567D02*
X015119Y006467D01*
X013969Y006417D01*
X015219Y006567D02*
X015219Y010267D01*
X015119Y010367D01*
X013969Y010417D01*
X012660Y010267D02*
X012660Y006567D01*
X012560Y006467D01*
X011410Y006417D01*
X017350Y009832D02*
X017600Y009582D01*
X018100Y009582D01*
X018350Y009832D01*
X018600Y009582D01*
X019100Y009582D01*
X019350Y009832D01*
X019600Y009582D01*
X020100Y009582D01*
X020350Y009832D01*
X020350Y011332D01*
X020100Y011582D01*
X019600Y011582D01*
X019350Y011332D01*
X019100Y011582D01*
X018600Y011582D01*
X018350Y011332D01*
X018100Y011582D01*
X017600Y011582D01*
X017350Y011332D01*
X017350Y009832D01*
X015976Y011978D02*
X012276Y011978D01*
X012253Y011980D01*
X012230Y011985D01*
X012208Y011994D01*
X012188Y012007D01*
X012170Y012022D01*
X012155Y012040D01*
X012142Y012060D01*
X012133Y012082D01*
X012128Y012105D01*
X012126Y012128D01*
X012126Y012548D01*
X012126Y012948D01*
X012126Y013368D01*
X012128Y013391D01*
X012133Y013414D01*
X012142Y013436D01*
X012155Y013456D01*
X012170Y013474D01*
X012188Y013489D01*
X012208Y013502D01*
X012230Y013511D01*
X012253Y013516D01*
X012276Y013518D01*
X015976Y013518D01*
X015999Y013516D01*
X016022Y013511D01*
X016044Y013502D01*
X016064Y013489D01*
X016082Y013474D01*
X016097Y013456D01*
X016110Y013436D01*
X016119Y013414D01*
X016124Y013391D01*
X016126Y013368D01*
X016126Y012128D01*
X016124Y012105D01*
X016119Y012082D01*
X016110Y012060D01*
X016097Y012040D01*
X016082Y012022D01*
X016064Y012007D01*
X016044Y011994D01*
X016022Y011985D01*
X015999Y011980D01*
X015976Y011978D01*
X012660Y010267D02*
X012560Y010367D01*
X011410Y010417D01*
X008051Y011370D02*
X008053Y011443D01*
X008059Y011516D01*
X008069Y011588D01*
X008083Y011660D01*
X008100Y011731D01*
X008122Y011801D01*
X008147Y011870D01*
X008176Y011937D01*
X008208Y012002D01*
X008244Y012066D01*
X008284Y012128D01*
X008326Y012187D01*
X008372Y012244D01*
X008421Y012298D01*
X008473Y012350D01*
X008527Y012399D01*
X008584Y012445D01*
X008643Y012487D01*
X008705Y012527D01*
X008769Y012563D01*
X008834Y012595D01*
X008901Y012624D01*
X008970Y012649D01*
X009040Y012671D01*
X009111Y012688D01*
X009183Y012702D01*
X009255Y012712D01*
X009328Y012718D01*
X009401Y012720D01*
X009474Y012718D01*
X009547Y012712D01*
X009619Y012702D01*
X009691Y012688D01*
X009762Y012671D01*
X009832Y012649D01*
X009901Y012624D01*
X009968Y012595D01*
X010033Y012563D01*
X010097Y012527D01*
X010159Y012487D01*
X010218Y012445D01*
X010275Y012399D01*
X010329Y012350D01*
X010381Y012298D01*
X010430Y012244D01*
X010476Y012187D01*
X010518Y012128D01*
X010558Y012066D01*
X010594Y012002D01*
X010626Y011937D01*
X010655Y011870D01*
X010680Y011801D01*
X010702Y011731D01*
X010719Y011660D01*
X010733Y011588D01*
X010743Y011516D01*
X010749Y011443D01*
X010751Y011370D01*
X010749Y011297D01*
X010743Y011224D01*
X010733Y011152D01*
X010719Y011080D01*
X010702Y011009D01*
X010680Y010939D01*
X010655Y010870D01*
X010626Y010803D01*
X010594Y010738D01*
X010558Y010674D01*
X010518Y010612D01*
X010476Y010553D01*
X010430Y010496D01*
X010381Y010442D01*
X010329Y010390D01*
X010275Y010341D01*
X010218Y010295D01*
X010159Y010253D01*
X010097Y010213D01*
X010033Y010177D01*
X009968Y010145D01*
X009901Y010116D01*
X009832Y010091D01*
X009762Y010069D01*
X009691Y010052D01*
X009619Y010038D01*
X009547Y010028D01*
X009474Y010022D01*
X009401Y010020D01*
X009328Y010022D01*
X009255Y010028D01*
X009183Y010038D01*
X009111Y010052D01*
X009040Y010069D01*
X008970Y010091D01*
X008901Y010116D01*
X008834Y010145D01*
X008769Y010177D01*
X008705Y010213D01*
X008643Y010253D01*
X008584Y010295D01*
X008527Y010341D01*
X008473Y010390D01*
X008421Y010442D01*
X008372Y010496D01*
X008326Y010553D01*
X008284Y010612D01*
X008244Y010674D01*
X008208Y010738D01*
X008176Y010803D01*
X008147Y010870D01*
X008122Y010939D01*
X008100Y011009D01*
X008083Y011080D01*
X008069Y011152D01*
X008059Y011224D01*
X008053Y011297D01*
X008051Y011370D01*
X006211Y010582D02*
X005911Y010582D01*
X003661Y010582D02*
X003663Y010671D01*
X003669Y010760D01*
X003679Y010849D01*
X003693Y010937D01*
X003710Y011024D01*
X003732Y011110D01*
X003758Y011196D01*
X003787Y011280D01*
X003820Y011363D01*
X003856Y011444D01*
X003897Y011524D01*
X003940Y011601D01*
X003987Y011677D01*
X004038Y011750D01*
X004091Y011821D01*
X004148Y011890D01*
X004208Y011956D01*
X004271Y012020D01*
X004336Y012080D01*
X004404Y012138D01*
X004475Y012192D01*
X004548Y012243D01*
X004623Y012291D01*
X004700Y012336D01*
X004779Y012377D01*
X004860Y012414D01*
X004942Y012448D01*
X005026Y012479D01*
X005111Y012505D01*
X005197Y012528D01*
X005284Y012546D01*
X005372Y012561D01*
X005461Y012572D01*
X005550Y012579D01*
X005639Y012582D01*
X005728Y012581D01*
X005817Y012576D01*
X005905Y012567D01*
X005994Y012554D01*
X006081Y012537D01*
X006168Y012517D01*
X006254Y012492D01*
X006338Y012464D01*
X006421Y012432D01*
X006503Y012396D01*
X006583Y012357D01*
X006661Y012314D01*
X006737Y012268D01*
X006811Y012218D01*
X006883Y012165D01*
X006952Y012109D01*
X007019Y012050D01*
X007083Y011988D01*
X007144Y011924D01*
X007203Y011856D01*
X007258Y011786D01*
X007310Y011714D01*
X007359Y011639D01*
X007404Y011563D01*
X007446Y011484D01*
X007484Y011404D01*
X007519Y011322D01*
X007550Y011238D01*
X007578Y011153D01*
X007601Y011067D01*
X007621Y010980D01*
X007637Y010893D01*
X007649Y010804D01*
X007657Y010716D01*
X007661Y010627D01*
X007661Y010537D01*
X007657Y010448D01*
X007649Y010360D01*
X007637Y010271D01*
X007621Y010184D01*
X007601Y010097D01*
X007578Y010011D01*
X007550Y009926D01*
X007519Y009842D01*
X007484Y009760D01*
X007446Y009680D01*
X007404Y009601D01*
X007359Y009525D01*
X007310Y009450D01*
X007258Y009378D01*
X007203Y009308D01*
X007144Y009240D01*
X007083Y009176D01*
X007019Y009114D01*
X006952Y009055D01*
X006883Y008999D01*
X006811Y008946D01*
X006737Y008896D01*
X006661Y008850D01*
X006583Y008807D01*
X006503Y008768D01*
X006421Y008732D01*
X006338Y008700D01*
X006254Y008672D01*
X006168Y008647D01*
X006081Y008627D01*
X005994Y008610D01*
X005905Y008597D01*
X005817Y008588D01*
X005728Y008583D01*
X005639Y008582D01*
X005550Y008585D01*
X005461Y008592D01*
X005372Y008603D01*
X005284Y008618D01*
X005197Y008636D01*
X005111Y008659D01*
X005026Y008685D01*
X004942Y008716D01*
X004860Y008750D01*
X004779Y008787D01*
X004700Y008828D01*
X004623Y008873D01*
X004548Y008921D01*
X004475Y008972D01*
X004404Y009026D01*
X004336Y009084D01*
X004271Y009144D01*
X004208Y009208D01*
X004148Y009274D01*
X004091Y009343D01*
X004038Y009414D01*
X003987Y009487D01*
X003940Y009563D01*
X003897Y009640D01*
X003856Y009720D01*
X003820Y009801D01*
X003787Y009884D01*
X003758Y009968D01*
X003732Y010054D01*
X003710Y010140D01*
X003693Y010227D01*
X003679Y010315D01*
X003669Y010404D01*
X003663Y010493D01*
X003661Y010582D01*
X004711Y011232D02*
X005111Y011232D01*
X004911Y011032D02*
X004911Y011432D01*
X005411Y011082D02*
X005411Y010582D01*
X005411Y010082D01*
X005611Y010082D01*
X005611Y011082D01*
X005411Y011082D01*
X005411Y010582D02*
X005111Y010582D01*
X007133Y013416D02*
X007733Y013416D01*
X007733Y013516D01*
X007833Y013516D01*
X007133Y013516D02*
X007033Y013516D01*
X007133Y013516D02*
X007133Y013416D01*
X006233Y013866D02*
X006233Y014266D01*
X006233Y015216D01*
X006233Y015566D01*
X007033Y015916D02*
X007133Y015916D01*
X007133Y016016D01*
X007733Y016016D01*
X007733Y015916D01*
X007833Y015916D01*
X008633Y015566D02*
X008633Y015216D01*
X008633Y014216D01*
X008633Y013866D01*
X007333Y014716D02*
X007335Y014736D01*
X007341Y014754D01*
X007350Y014772D01*
X007362Y014787D01*
X007377Y014799D01*
X007395Y014808D01*
X007413Y014814D01*
X007433Y014816D01*
X007453Y014814D01*
X007471Y014808D01*
X007489Y014799D01*
X007504Y014787D01*
X007516Y014772D01*
X007525Y014754D01*
X007531Y014736D01*
X007533Y014716D01*
X007531Y014696D01*
X007525Y014678D01*
X007516Y014660D01*
X007504Y014645D01*
X007489Y014633D01*
X007471Y014624D01*
X007453Y014618D01*
X007433Y014616D01*
X007413Y014618D01*
X007395Y014624D01*
X007377Y014633D01*
X007362Y014645D01*
X007350Y014660D01*
X007341Y014678D01*
X007335Y014696D01*
X007333Y014716D01*
X006733Y014716D02*
X006735Y014768D01*
X006741Y014820D01*
X006751Y014872D01*
X006764Y014922D01*
X006781Y014972D01*
X006802Y015020D01*
X006827Y015066D01*
X006855Y015110D01*
X006886Y015152D01*
X006920Y015192D01*
X006957Y015229D01*
X006997Y015263D01*
X007039Y015294D01*
X007083Y015322D01*
X007129Y015347D01*
X007177Y015368D01*
X007227Y015385D01*
X007277Y015398D01*
X007329Y015408D01*
X007381Y015414D01*
X007433Y015416D01*
X007485Y015414D01*
X007537Y015408D01*
X007589Y015398D01*
X007639Y015385D01*
X007689Y015368D01*
X007737Y015347D01*
X007783Y015322D01*
X007827Y015294D01*
X007869Y015263D01*
X007909Y015229D01*
X007946Y015192D01*
X007980Y015152D01*
X008011Y015110D01*
X008039Y015066D01*
X008064Y015020D01*
X008085Y014972D01*
X008102Y014922D01*
X008115Y014872D01*
X008125Y014820D01*
X008131Y014768D01*
X008133Y014716D01*
X008131Y014664D01*
X008125Y014612D01*
X008115Y014560D01*
X008102Y014510D01*
X008085Y014460D01*
X008064Y014412D01*
X008039Y014366D01*
X008011Y014322D01*
X007980Y014280D01*
X007946Y014240D01*
X007909Y014203D01*
X007869Y014169D01*
X007827Y014138D01*
X007783Y014110D01*
X007737Y014085D01*
X007689Y014064D01*
X007639Y014047D01*
X007589Y014034D01*
X007537Y014024D01*
X007485Y014018D01*
X007433Y014016D01*
X007381Y014018D01*
X007329Y014024D01*
X007277Y014034D01*
X007227Y014047D01*
X007177Y014064D01*
X007129Y014085D01*
X007083Y014110D01*
X007039Y014138D01*
X006997Y014169D01*
X006957Y014203D01*
X006920Y014240D01*
X006886Y014280D01*
X006855Y014322D01*
X006827Y014366D01*
X006802Y014412D01*
X006781Y014460D01*
X006764Y014510D01*
X006751Y014560D01*
X006741Y014612D01*
X006735Y014664D01*
X006733Y014716D01*
X005525Y014619D02*
X005367Y014619D01*
X005305Y015169D02*
X003655Y015169D01*
X003593Y014619D02*
X003435Y014619D01*
X003655Y015169D02*
X003618Y015118D01*
X003583Y015065D01*
X003551Y015009D01*
X003523Y014952D01*
X003499Y014893D01*
X003478Y014833D01*
X003461Y014772D01*
X003447Y014710D01*
X003438Y014647D01*
X003432Y014584D01*
X003430Y014520D01*
X003432Y014456D01*
X003438Y014393D01*
X003447Y014330D01*
X003460Y014268D01*
X003478Y014207D01*
X003498Y014147D01*
X003523Y014088D01*
X003550Y014031D01*
X003582Y013975D01*
X003616Y013922D01*
X003654Y013871D01*
X003695Y013822D01*
X003739Y013776D01*
X003785Y013732D01*
X003834Y013691D01*
X003885Y013654D01*
X003939Y013619D01*
X003994Y013588D01*
X004051Y013560D01*
X004110Y013536D01*
X004170Y013516D01*
X004790Y013516D02*
X004850Y013536D01*
X004909Y013560D01*
X004966Y013588D01*
X005021Y013619D01*
X005075Y013654D01*
X005126Y013691D01*
X005175Y013732D01*
X005221Y013776D01*
X005265Y013822D01*
X005306Y013871D01*
X005344Y013922D01*
X005378Y013975D01*
X005409Y014031D01*
X005437Y014088D01*
X005462Y014147D01*
X005482Y014207D01*
X005500Y014268D01*
X005513Y014330D01*
X005522Y014393D01*
X005528Y014456D01*
X005530Y014520D01*
X005528Y014584D01*
X005522Y014647D01*
X005513Y014710D01*
X005499Y014772D01*
X005482Y014833D01*
X005461Y014893D01*
X005437Y014952D01*
X005409Y015009D01*
X005377Y015065D01*
X005342Y015118D01*
X005305Y015169D01*
X009732Y015450D02*
X009982Y015200D01*
X010482Y015200D01*
X010732Y015450D01*
X010982Y015200D01*
X011482Y015200D01*
X011732Y015450D01*
X011982Y015200D01*
X012482Y015200D01*
X012732Y015450D01*
X012982Y015200D01*
X013482Y015200D01*
X013732Y015450D01*
X013982Y015200D01*
X014482Y015200D01*
X014732Y015450D01*
X014982Y015200D01*
X015482Y015200D01*
X015732Y015450D01*
X015982Y015200D01*
X016482Y015200D01*
X016732Y015450D01*
X016982Y015200D01*
X017482Y015200D01*
X017732Y015450D01*
X017732Y015950D01*
X017482Y016200D01*
X016982Y016200D01*
X016732Y015950D01*
X016482Y016200D01*
X015982Y016200D01*
X015732Y015950D01*
X015482Y016200D01*
X014982Y016200D01*
X014732Y015950D01*
X014482Y016200D01*
X013982Y016200D01*
X013732Y015950D01*
X013482Y016200D01*
X012982Y016200D01*
X012732Y015950D01*
X012482Y016200D01*
X011982Y016200D01*
X011732Y015950D01*
X011482Y016200D01*
X010982Y016200D01*
X010732Y015950D01*
X010482Y016200D01*
X009982Y016200D01*
X009732Y015950D01*
X009732Y015450D01*
X012126Y012948D02*
X012153Y012946D01*
X012180Y012941D01*
X012206Y012931D01*
X012230Y012919D01*
X012252Y012903D01*
X012272Y012885D01*
X012289Y012863D01*
X012304Y012840D01*
X012314Y012815D01*
X012322Y012789D01*
X012326Y012762D01*
X012326Y012734D01*
X012322Y012707D01*
X012314Y012681D01*
X012304Y012656D01*
X012289Y012633D01*
X012272Y012611D01*
X012252Y012593D01*
X012230Y012577D01*
X012206Y012565D01*
X012180Y012555D01*
X012153Y012550D01*
X012126Y012548D01*
X019531Y013072D02*
X019531Y013572D01*
X019781Y013822D01*
X019531Y014072D01*
X019531Y014572D01*
X019781Y014822D01*
X019531Y015072D01*
X019531Y015572D01*
X019781Y015822D01*
X020281Y015822D01*
X020531Y015572D01*
X020531Y015072D01*
X020281Y014822D01*
X020531Y014572D01*
X020531Y014072D01*
X020281Y013822D01*
X020531Y013572D01*
X020531Y013072D01*
X020281Y012822D01*
X019781Y012822D01*
X019531Y013072D01*
X023529Y015665D02*
X023531Y015644D01*
X023536Y015624D01*
X023545Y015605D01*
X023557Y015588D01*
X023572Y015573D01*
X023589Y015561D01*
X023608Y015552D01*
X023628Y015547D01*
X023649Y015545D01*
X023670Y015547D01*
X023690Y015552D01*
X023709Y015561D01*
X023726Y015573D01*
X023741Y015588D01*
X023753Y015605D01*
X023762Y015624D01*
X023767Y015644D01*
X023769Y015665D01*
X027602Y015801D02*
X027602Y015301D01*
X027852Y015051D01*
X027602Y014801D01*
X027602Y014301D01*
X027852Y014051D01*
X027602Y013801D01*
X027602Y013301D01*
X027852Y013051D01*
X027602Y012801D01*
X027602Y012301D01*
X027852Y012051D01*
X027602Y011801D01*
X027602Y011301D01*
X027852Y011051D01*
X027602Y010801D01*
X027602Y010301D01*
X027852Y010051D01*
X027602Y009801D01*
X027602Y009301D01*
X027852Y009051D01*
X028352Y009051D01*
X028602Y009301D01*
X028602Y009801D01*
X028352Y010051D01*
X028602Y010301D01*
X028602Y010801D01*
X028352Y011051D01*
X028602Y011301D01*
X028602Y011801D01*
X028352Y012051D01*
X028602Y012301D01*
X028602Y012801D01*
X028352Y013051D01*
X028602Y013301D01*
X028602Y013801D01*
X028352Y014051D01*
X028602Y014301D01*
X028602Y014801D01*
X028352Y015051D01*
X028602Y015301D01*
X028602Y015801D01*
X028352Y016051D01*
X027852Y016051D01*
X027602Y015801D01*
D12*
X022248Y015748D02*
X021934Y016062D01*
X022091Y016062D02*
X022091Y015748D01*
X021934Y015748D02*
X022248Y016062D01*
X022248Y015905D02*
X021934Y015905D01*
X004061Y012382D02*
X004061Y012135D01*
X003999Y012074D01*
X003876Y012074D01*
X003814Y012135D01*
X004061Y012382D01*
X003999Y012444D01*
X003876Y012444D01*
X003814Y012382D01*
X003814Y012135D01*
X003693Y012074D02*
X003446Y012074D01*
X003569Y012074D02*
X003569Y012444D01*
X003446Y012321D01*
X003324Y012382D02*
X003263Y012444D01*
X003139Y012444D01*
X003078Y012382D01*
X003078Y012135D01*
X003139Y012074D01*
X003263Y012074D01*
X003324Y012135D01*
X003263Y016208D02*
X003139Y016208D01*
X003078Y016269D01*
X003078Y016516D01*
X003139Y016578D01*
X003263Y016578D01*
X003324Y016516D01*
X003446Y016516D02*
X003446Y016454D01*
X003508Y016393D01*
X003693Y016393D01*
X003693Y016516D02*
X003693Y016269D01*
X003631Y016208D01*
X003508Y016208D01*
X003446Y016269D01*
X003324Y016269D02*
X003263Y016208D01*
X003446Y016516D02*
X003508Y016578D01*
X003631Y016578D01*
X003693Y016516D01*
D13*
X008653Y011370D02*
X008655Y011425D01*
X008661Y011479D01*
X008671Y011533D01*
X008685Y011585D01*
X008702Y011637D01*
X008724Y011687D01*
X008749Y011736D01*
X008777Y011783D01*
X008809Y011827D01*
X008844Y011869D01*
X008882Y011908D01*
X008923Y011945D01*
X008966Y011978D01*
X009011Y012008D01*
X009059Y012035D01*
X009108Y012058D01*
X009159Y012078D01*
X009212Y012094D01*
X009265Y012106D01*
X009319Y012114D01*
X009374Y012118D01*
X009428Y012118D01*
X009483Y012114D01*
X009537Y012106D01*
X009590Y012094D01*
X009643Y012078D01*
X009694Y012058D01*
X009743Y012035D01*
X009791Y012008D01*
X009836Y011978D01*
X009879Y011945D01*
X009920Y011908D01*
X009958Y011869D01*
X009993Y011827D01*
X010025Y011783D01*
X010053Y011736D01*
X010078Y011687D01*
X010100Y011637D01*
X010117Y011585D01*
X010131Y011533D01*
X010141Y011479D01*
X010147Y011425D01*
X010149Y011370D01*
X010147Y011315D01*
X010141Y011261D01*
X010131Y011207D01*
X010117Y011155D01*
X010100Y011103D01*
X010078Y011053D01*
X010053Y011004D01*
X010025Y010957D01*
X009993Y010913D01*
X009958Y010871D01*
X009920Y010832D01*
X009879Y010795D01*
X009836Y010762D01*
X009791Y010732D01*
X009743Y010705D01*
X009694Y010682D01*
X009643Y010662D01*
X009590Y010646D01*
X009537Y010634D01*
X009483Y010626D01*
X009428Y010622D01*
X009374Y010622D01*
X009319Y010626D01*
X009265Y010634D01*
X009212Y010646D01*
X009159Y010662D01*
X009108Y010682D01*
X009059Y010705D01*
X009011Y010732D01*
X008966Y010762D01*
X008923Y010795D01*
X008882Y010832D01*
X008844Y010871D01*
X008809Y010913D01*
X008777Y010957D01*
X008749Y011004D01*
X008724Y011053D01*
X008702Y011103D01*
X008685Y011155D01*
X008671Y011207D01*
X008661Y011261D01*
X008655Y011315D01*
X008653Y011370D01*
X003358Y011035D02*
X003358Y008259D01*
X004110Y008417D02*
X004110Y004480D01*
X004543Y004480D01*
X004543Y008417D01*
X004110Y008417D01*
X003358Y007393D02*
X003358Y004618D01*
X000484Y004618D01*
X000484Y007393D01*
X000484Y008259D02*
X000484Y011035D01*
X003358Y011035D01*
X011830Y005070D02*
X012233Y005464D01*
X012233Y004677D01*
X011830Y005070D01*
X015132Y005464D02*
X015132Y004677D01*
X015535Y005070D01*
X015132Y005464D01*
X017980Y002868D02*
X017980Y001368D01*
X022999Y001486D02*
X022999Y000869D01*
X023122Y000745D01*
X023369Y000745D01*
X023492Y000869D01*
X023492Y001486D01*
X023754Y001239D02*
X024001Y001486D01*
X024001Y000745D01*
X023754Y000745D02*
X024248Y000745D01*
X019637Y016291D02*
X019637Y016685D01*
X019244Y016488D01*
X019637Y016291D01*
D14*
X019501Y016958D02*
X019501Y017418D01*
X019271Y017188D01*
X019578Y017188D01*
X019117Y017035D02*
X019117Y017341D01*
X019041Y017418D01*
X018811Y017418D01*
X018811Y016958D01*
X019041Y016958D01*
X019117Y017035D01*
X020929Y017085D02*
X021006Y017008D01*
X021159Y017008D01*
X021236Y017085D01*
X021389Y017085D02*
X021389Y017161D01*
X021466Y017238D01*
X021620Y017238D01*
X021696Y017161D01*
X021696Y017085D01*
X021620Y017008D01*
X021466Y017008D01*
X021389Y017085D01*
X021466Y017238D02*
X021389Y017315D01*
X021389Y017391D01*
X021466Y017468D01*
X021620Y017468D01*
X021696Y017391D01*
X021696Y017315D01*
X021620Y017238D01*
X021236Y017391D02*
X021159Y017468D01*
X021006Y017468D01*
X020929Y017391D01*
X020929Y017085D01*
X024132Y016878D02*
X024132Y016417D01*
X024132Y016571D02*
X024362Y016571D01*
X024439Y016647D01*
X024439Y016801D01*
X024362Y016878D01*
X024132Y016878D01*
X024285Y016571D02*
X024439Y016417D01*
X024592Y016417D02*
X024899Y016417D01*
X024746Y016417D02*
X024746Y016878D01*
X024592Y016724D01*
X018058Y014362D02*
X017598Y014362D01*
X017828Y014132D01*
X017828Y014439D01*
X017828Y013979D02*
X017675Y013979D01*
X017598Y013902D01*
X017598Y013672D01*
X018058Y013672D01*
X017905Y013672D02*
X017905Y013902D01*
X017828Y013979D01*
X017905Y013825D02*
X018058Y013979D01*
X011759Y013902D02*
X011759Y013595D01*
X011759Y013748D02*
X011299Y013748D01*
X011452Y013595D01*
X011759Y013441D02*
X011759Y013134D01*
X011759Y013288D02*
X011299Y013288D01*
X011452Y013134D01*
X011375Y012981D02*
X011299Y012904D01*
X011299Y012751D01*
X011375Y012674D01*
X011682Y012674D01*
X011759Y012751D01*
X011759Y012904D01*
X011682Y012981D01*
X008364Y009714D02*
X008287Y009791D01*
X008134Y009791D01*
X008057Y009714D01*
X007903Y009714D02*
X007903Y009561D01*
X007827Y009484D01*
X007596Y009484D01*
X007596Y009331D02*
X007596Y009791D01*
X007827Y009791D01*
X007903Y009714D01*
X007750Y009484D02*
X007903Y009331D01*
X008057Y009407D02*
X008134Y009331D01*
X008287Y009331D01*
X008364Y009407D01*
X008364Y009484D01*
X008287Y009561D01*
X008210Y009561D01*
X008287Y009561D02*
X008364Y009638D01*
X008364Y009714D01*
X007184Y007495D02*
X007184Y007188D01*
X006877Y007495D01*
X006801Y007495D01*
X006724Y007418D01*
X006724Y007265D01*
X006801Y007188D01*
X006724Y007034D02*
X007108Y007034D01*
X007184Y006958D01*
X007184Y006804D01*
X007108Y006727D01*
X006724Y006727D01*
X010039Y005522D02*
X010039Y005368D01*
X010116Y005291D01*
X010116Y005138D02*
X010039Y005061D01*
X010039Y004831D01*
X010500Y004831D01*
X010500Y005061D01*
X010423Y005138D01*
X010116Y005138D01*
X010500Y005291D02*
X010193Y005598D01*
X010116Y005598D01*
X010039Y005522D01*
X010500Y005598D02*
X010500Y005291D01*
X011267Y005820D02*
X013047Y005820D01*
X014318Y005820D02*
X016098Y005820D01*
X015986Y005940D02*
X016063Y006017D01*
X016063Y006324D01*
X015986Y006401D01*
X015756Y006401D01*
X015756Y005940D01*
X015986Y005940D01*
X016217Y006017D02*
X016293Y005940D01*
X016447Y005940D01*
X016524Y006017D01*
X016524Y006094D01*
X016447Y006171D01*
X016370Y006171D01*
X016447Y006171D02*
X016524Y006247D01*
X016524Y006324D01*
X016447Y006401D01*
X016293Y006401D01*
X016217Y006324D01*
X017246Y005240D02*
X017170Y005163D01*
X017170Y004856D01*
X017246Y004779D01*
X017400Y004779D01*
X017477Y004856D01*
X017630Y004856D02*
X017707Y004779D01*
X017860Y004779D01*
X017937Y004856D01*
X017937Y005010D01*
X017860Y005086D01*
X017784Y005086D01*
X017630Y005010D01*
X017630Y005240D01*
X017937Y005240D01*
X017477Y005163D02*
X017400Y005240D01*
X017246Y005240D01*
X016098Y004320D02*
X014318Y004320D01*
X013047Y004320D02*
X011267Y004320D01*
X014683Y001326D02*
X014913Y001326D01*
X014990Y001250D01*
X014990Y001096D01*
X014913Y001020D01*
X014683Y001020D01*
X014836Y001020D02*
X014990Y000866D01*
X015143Y000866D02*
X015450Y000866D01*
X015297Y000866D02*
X015297Y001326D01*
X015143Y001173D01*
X014683Y001326D02*
X014683Y000866D01*
X015604Y000943D02*
X015681Y000866D01*
X015834Y000866D01*
X015911Y000943D01*
X015911Y001250D01*
X015604Y000943D01*
X015604Y001250D01*
X015681Y001326D01*
X015834Y001326D01*
X015911Y001250D01*
X018151Y001560D02*
X018387Y001560D01*
X018514Y001560D02*
X018750Y001560D01*
X018877Y001560D02*
X019054Y001560D01*
X019113Y001619D01*
X019113Y001855D01*
X019054Y001914D01*
X018877Y001914D01*
X018877Y001560D01*
X018632Y001737D02*
X018514Y001737D01*
X018514Y001914D02*
X018514Y001560D01*
X018151Y001560D02*
X018151Y001914D01*
X018514Y001914D02*
X018750Y001914D01*
X019239Y001796D02*
X019357Y001914D01*
X019357Y001560D01*
X019239Y001560D02*
X019475Y001560D01*
X019703Y001523D02*
X019933Y001523D01*
X020010Y001447D01*
X020010Y001293D01*
X019933Y001216D01*
X019703Y001216D01*
X019703Y001063D02*
X019703Y001523D01*
X020163Y001447D02*
X020163Y001370D01*
X020240Y001293D01*
X020470Y001293D01*
X020470Y001140D02*
X020470Y001447D01*
X020393Y001523D01*
X020240Y001523D01*
X020163Y001447D01*
X020163Y001140D02*
X020240Y001063D01*
X020393Y001063D01*
X020470Y001140D01*
X020010Y001063D02*
X019856Y001216D01*
X019284Y002713D02*
X019130Y002713D01*
X019053Y002789D01*
X018900Y002713D02*
X018593Y002713D01*
X018746Y002713D02*
X018746Y003173D01*
X018593Y003019D01*
X018439Y002943D02*
X018363Y002866D01*
X018133Y002866D01*
X018286Y002866D02*
X018439Y002713D01*
X018439Y002943D02*
X018439Y003096D01*
X018363Y003173D01*
X018133Y003173D01*
X018133Y002713D01*
X019053Y003096D02*
X019130Y003173D01*
X019284Y003173D01*
X019360Y003096D01*
X019360Y003019D01*
X019284Y002943D01*
X019360Y002866D01*
X019360Y002789D01*
X019284Y002713D01*
X019284Y002943D02*
X019207Y002943D01*
X019360Y003500D02*
X019053Y003500D01*
X019360Y003807D01*
X019360Y003884D01*
X019284Y003960D01*
X019130Y003960D01*
X019053Y003884D01*
X018746Y003960D02*
X018746Y003500D01*
X018593Y003500D02*
X018900Y003500D01*
X018439Y003500D02*
X018286Y003653D01*
X018363Y003653D02*
X018133Y003653D01*
X018133Y003500D02*
X018133Y003960D01*
X018363Y003960D01*
X018439Y003884D01*
X018439Y003730D01*
X018363Y003653D01*
X018593Y003807D02*
X018746Y003960D01*
X020392Y005394D02*
X020392Y005854D01*
X020622Y005854D01*
X020699Y005777D01*
X020699Y005624D01*
X020622Y005547D01*
X020392Y005547D01*
X020545Y005547D02*
X020699Y005394D01*
X020852Y005394D02*
X021159Y005701D01*
X021159Y005777D01*
X021082Y005854D01*
X020929Y005854D01*
X020852Y005777D01*
X020852Y005394D02*
X021159Y005394D01*
X017149Y007718D02*
X017072Y007642D01*
X016765Y007642D01*
X016689Y007718D01*
X016689Y007872D01*
X016765Y007949D01*
X016919Y008102D02*
X016919Y008409D01*
X017149Y008332D02*
X016689Y008332D01*
X016919Y008102D01*
X017072Y007949D02*
X017149Y007872D01*
X017149Y007718D01*
X016751Y008634D02*
X016444Y008634D01*
X016291Y008634D02*
X015984Y008634D01*
X016137Y008634D02*
X016137Y009094D01*
X015984Y008941D01*
X015830Y009017D02*
X015830Y008864D01*
X015754Y008787D01*
X015524Y008787D01*
X015677Y008787D02*
X015830Y008634D01*
X015524Y008634D02*
X015524Y009094D01*
X015754Y009094D01*
X015830Y009017D01*
X016444Y008941D02*
X016598Y009094D01*
X016598Y008634D01*
X021240Y008652D02*
X021240Y008805D01*
X021316Y008882D01*
X021393Y008882D01*
X021470Y008805D01*
X021547Y008882D01*
X021623Y008882D01*
X021700Y008805D01*
X021700Y008652D01*
X021623Y008575D01*
X021623Y008421D02*
X021700Y008345D01*
X021700Y008191D01*
X021623Y008115D01*
X021316Y008115D01*
X021240Y008191D01*
X021240Y008345D01*
X021316Y008421D01*
X021316Y008575D02*
X021240Y008652D01*
X021470Y008728D02*
X021470Y008805D01*
X026441Y008915D02*
X026518Y008839D01*
X026671Y008839D01*
X026748Y008915D01*
X026901Y008839D02*
X027208Y008839D01*
X027055Y008839D02*
X027055Y009299D01*
X026901Y009145D01*
X026748Y009222D02*
X026671Y009299D01*
X026518Y009299D01*
X026441Y009222D01*
X026441Y008915D01*
X026400Y006815D02*
X026323Y006738D01*
X026323Y006431D01*
X026400Y006354D01*
X026553Y006354D01*
X026630Y006431D01*
X026784Y006354D02*
X027091Y006661D01*
X027091Y006738D01*
X027014Y006815D01*
X026860Y006815D01*
X026784Y006738D01*
X026630Y006738D02*
X026553Y006815D01*
X026400Y006815D01*
X026784Y006354D02*
X027091Y006354D01*
X028337Y005634D02*
X028567Y005634D01*
X028644Y005557D01*
X028644Y005403D01*
X028567Y005327D01*
X028337Y005327D01*
X028490Y005327D02*
X028644Y005173D01*
X028797Y005173D02*
X028797Y005250D01*
X029104Y005557D01*
X029104Y005634D01*
X028797Y005634D01*
X028337Y005634D02*
X028337Y005173D01*
X027655Y004498D02*
X027578Y004574D01*
X027425Y004574D01*
X027348Y004498D01*
X027348Y004421D01*
X027425Y004344D01*
X027578Y004344D01*
X027655Y004268D01*
X027655Y004191D01*
X027578Y004114D01*
X027425Y004114D01*
X027348Y004191D01*
X027348Y004268D01*
X027425Y004344D01*
X027578Y004344D02*
X027655Y004421D01*
X027655Y004498D01*
X027195Y004498D02*
X027195Y004344D01*
X027118Y004268D01*
X026888Y004268D01*
X027041Y004268D02*
X027195Y004114D01*
X026888Y004114D02*
X026888Y004574D01*
X027118Y004574D01*
X027195Y004498D01*
X030207Y005075D02*
X030207Y005535D01*
X030437Y005535D01*
X030514Y005458D01*
X030514Y005305D01*
X030437Y005228D01*
X030207Y005228D01*
X030361Y005228D02*
X030514Y005075D01*
X030667Y005151D02*
X030744Y005075D01*
X030898Y005075D01*
X030974Y005151D01*
X030974Y005228D01*
X030898Y005305D01*
X030667Y005305D01*
X030667Y005151D01*
X030667Y005305D02*
X030821Y005458D01*
X030974Y005535D01*
X029770Y001008D02*
X029616Y001008D01*
X029540Y000931D01*
X029770Y001008D02*
X029846Y000931D01*
X029846Y000854D01*
X029540Y000547D01*
X029846Y000547D01*
X029386Y000547D02*
X029079Y000547D01*
X029233Y000547D02*
X029233Y001008D01*
X029079Y000854D01*
X028926Y000931D02*
X028849Y001008D01*
X028695Y001008D01*
X028619Y000931D01*
X028619Y000624D01*
X028695Y000547D01*
X028849Y000547D01*
X028926Y000624D01*
X003141Y012649D02*
X002610Y012118D01*
X001094Y012118D01*
X001094Y012767D01*
X001213Y012806D02*
X001236Y012749D01*
X001263Y012694D01*
X001293Y012640D01*
X001327Y012588D01*
X001364Y012539D01*
X001404Y012492D01*
X001447Y012447D01*
X001493Y012406D01*
X001541Y012367D01*
X001592Y012332D01*
X001645Y012300D01*
X001700Y012271D01*
X001756Y012246D01*
X001814Y012225D01*
X001873Y012207D01*
X001934Y012194D01*
X001995Y012184D01*
X002056Y012178D01*
X002118Y012176D01*
X002180Y012178D01*
X002241Y012184D01*
X002302Y012194D01*
X002363Y012207D01*
X002422Y012225D01*
X002480Y012246D01*
X002536Y012271D01*
X002591Y012300D01*
X002644Y012332D01*
X002695Y012367D01*
X002743Y012406D01*
X002789Y012447D01*
X002832Y012492D01*
X002872Y012539D01*
X002909Y012588D01*
X002943Y012640D01*
X002973Y012694D01*
X003000Y012749D01*
X003023Y012806D01*
X003141Y012767D02*
X003141Y012649D01*
X003023Y013476D02*
X003000Y013533D01*
X002973Y013588D01*
X002943Y013642D01*
X002909Y013694D01*
X002872Y013743D01*
X002832Y013790D01*
X002789Y013835D01*
X002743Y013876D01*
X002695Y013915D01*
X002644Y013950D01*
X002591Y013982D01*
X002536Y014011D01*
X002480Y014036D01*
X002422Y014057D01*
X002363Y014075D01*
X002302Y014088D01*
X002241Y014098D01*
X002180Y014104D01*
X002118Y014106D01*
X002056Y014104D01*
X001995Y014098D01*
X001934Y014088D01*
X001873Y014075D01*
X001814Y014057D01*
X001756Y014036D01*
X001700Y014011D01*
X001645Y013982D01*
X001592Y013950D01*
X001541Y013915D01*
X001493Y013876D01*
X001447Y013835D01*
X001404Y013790D01*
X001364Y013743D01*
X001327Y013694D01*
X001293Y013642D01*
X001263Y013588D01*
X001236Y013533D01*
X001213Y013476D01*
X001094Y013515D02*
X001094Y014165D01*
X002610Y014165D01*
X003141Y013633D01*
X003141Y013515D01*
X002610Y014480D02*
X001094Y014480D01*
X001094Y015130D01*
X001213Y015169D02*
X001236Y015112D01*
X001263Y015057D01*
X001293Y015003D01*
X001327Y014951D01*
X001364Y014902D01*
X001404Y014855D01*
X001447Y014810D01*
X001493Y014769D01*
X001541Y014730D01*
X001592Y014695D01*
X001645Y014663D01*
X001700Y014634D01*
X001756Y014609D01*
X001814Y014588D01*
X001873Y014570D01*
X001934Y014557D01*
X001995Y014547D01*
X002056Y014541D01*
X002118Y014539D01*
X002180Y014541D01*
X002241Y014547D01*
X002302Y014557D01*
X002363Y014570D01*
X002422Y014588D01*
X002480Y014609D01*
X002536Y014634D01*
X002591Y014663D01*
X002644Y014695D01*
X002695Y014730D01*
X002743Y014769D01*
X002789Y014810D01*
X002832Y014855D01*
X002872Y014902D01*
X002909Y014951D01*
X002943Y015003D01*
X002973Y015057D01*
X003000Y015112D01*
X003023Y015169D01*
X003141Y015130D02*
X003141Y015011D01*
X002610Y014480D01*
X003023Y015839D02*
X003000Y015896D01*
X002973Y015951D01*
X002943Y016005D01*
X002909Y016057D01*
X002872Y016106D01*
X002832Y016153D01*
X002789Y016198D01*
X002743Y016239D01*
X002695Y016278D01*
X002644Y016313D01*
X002591Y016345D01*
X002536Y016374D01*
X002480Y016399D01*
X002422Y016420D01*
X002363Y016438D01*
X002302Y016451D01*
X002241Y016461D01*
X002180Y016467D01*
X002118Y016469D01*
X002056Y016467D01*
X001995Y016461D01*
X001934Y016451D01*
X001873Y016438D01*
X001814Y016420D01*
X001756Y016399D01*
X001700Y016374D01*
X001645Y016345D01*
X001592Y016313D01*
X001541Y016278D01*
X001493Y016239D01*
X001447Y016198D01*
X001404Y016153D01*
X001364Y016106D01*
X001327Y016057D01*
X001293Y016005D01*
X001263Y015951D01*
X001236Y015896D01*
X001213Y015839D01*
X001094Y015878D02*
X001094Y016527D01*
X002610Y016527D01*
X003141Y015996D01*
X003141Y015878D01*
X005037Y016811D02*
X005037Y017271D01*
X005268Y017271D01*
X005344Y017195D01*
X005344Y017041D01*
X005268Y016964D01*
X005037Y016964D01*
X005191Y016964D02*
X005344Y016811D01*
X005498Y016888D02*
X005574Y016811D01*
X005728Y016811D01*
X005805Y016888D01*
X005805Y017041D01*
X005728Y017118D01*
X005651Y017118D01*
X005498Y017041D01*
X005498Y017271D01*
X005805Y017271D01*
X002651Y009693D02*
X002651Y009386D01*
X002651Y009539D02*
X002190Y009539D01*
X002344Y009386D01*
X002651Y009233D02*
X002651Y008926D01*
X002190Y008926D01*
D15*
X018394Y008042D02*
X018394Y005642D01*
X018396Y005585D01*
X018402Y005529D01*
X018411Y005473D01*
X018424Y005417D01*
X018441Y005363D01*
X018461Y005310D01*
X018485Y005259D01*
X018513Y005209D01*
X018543Y005161D01*
X018577Y005115D01*
X018614Y005072D01*
X018653Y005031D01*
X018695Y004993D01*
X018740Y004958D01*
X018787Y004926D01*
X018836Y004897D01*
X018886Y004871D01*
X018939Y004849D01*
X018992Y004830D01*
X019047Y004815D01*
X019103Y004804D01*
X019159Y004796D01*
X019216Y004792D01*
X019272Y004792D01*
X019329Y004796D01*
X019385Y004804D01*
X019441Y004815D01*
X019496Y004830D01*
X019549Y004849D01*
X019602Y004871D01*
X019652Y004897D01*
X019701Y004926D01*
X019748Y004958D01*
X019793Y004993D01*
X019835Y005031D01*
X019874Y005072D01*
X019911Y005115D01*
X019945Y005161D01*
X019975Y005209D01*
X020003Y005259D01*
X020027Y005310D01*
X020047Y005363D01*
X020064Y005417D01*
X020077Y005473D01*
X020086Y005529D01*
X020092Y005585D01*
X020094Y005642D01*
X020094Y008042D01*
X020092Y008099D01*
X020086Y008155D01*
X020077Y008211D01*
X020064Y008267D01*
X020047Y008321D01*
X020027Y008374D01*
X020003Y008425D01*
X019975Y008475D01*
X019945Y008523D01*
X019911Y008569D01*
X019874Y008612D01*
X019835Y008653D01*
X019793Y008691D01*
X019748Y008726D01*
X019701Y008758D01*
X019652Y008787D01*
X019602Y008813D01*
X019549Y008835D01*
X019496Y008854D01*
X019441Y008869D01*
X019385Y008880D01*
X019329Y008888D01*
X019272Y008892D01*
X019216Y008892D01*
X019159Y008888D01*
X019103Y008880D01*
X019047Y008869D01*
X018992Y008854D01*
X018939Y008835D01*
X018886Y008813D01*
X018836Y008787D01*
X018787Y008758D01*
X018740Y008726D01*
X018695Y008691D01*
X018653Y008653D01*
X018614Y008612D01*
X018577Y008569D01*
X018543Y008523D01*
X018513Y008475D01*
X018485Y008425D01*
X018461Y008374D01*
X018441Y008321D01*
X018424Y008267D01*
X018411Y008211D01*
X018402Y008155D01*
X018396Y008099D01*
X018394Y008042D01*
D16*
X017925Y008957D02*
X017625Y008957D01*
X017775Y008957D02*
X017775Y009408D01*
X017625Y009258D01*
X016092Y010410D02*
X015792Y010410D01*
X016092Y010711D01*
X016092Y010786D01*
X016017Y010861D01*
X015867Y010861D01*
X015792Y010786D01*
X015632Y010861D02*
X015332Y010861D01*
X015482Y010861D02*
X015482Y010410D01*
X013502Y010408D02*
X013202Y010408D01*
X013352Y010408D02*
X013352Y010859D01*
X013202Y010709D01*
X013041Y010859D02*
X012741Y010859D01*
X012891Y010859D02*
X012891Y010408D01*
X016303Y012364D02*
X016453Y012364D01*
X016378Y012364D02*
X016378Y012814D01*
X016303Y012814D02*
X016453Y012814D01*
X016610Y012739D02*
X016610Y012439D01*
X016685Y012364D01*
X016835Y012364D01*
X016911Y012439D01*
X017071Y012364D02*
X017371Y012364D01*
X017221Y012364D02*
X017221Y012814D01*
X017071Y012664D01*
X016911Y012739D02*
X016835Y012814D01*
X016685Y012814D01*
X016610Y012739D01*
X018162Y012306D02*
X018313Y012306D01*
X018237Y012306D02*
X018237Y011856D01*
X018162Y011856D02*
X018313Y011856D01*
X018469Y011931D02*
X018544Y011856D01*
X018695Y011856D01*
X018770Y011931D01*
X018930Y011931D02*
X019005Y011856D01*
X019155Y011856D01*
X019230Y011931D01*
X019230Y012006D01*
X019155Y012081D01*
X019005Y012081D01*
X018930Y012156D01*
X018930Y012231D01*
X019005Y012306D01*
X019155Y012306D01*
X019230Y012231D01*
X019390Y012306D02*
X019615Y012306D01*
X019690Y012231D01*
X019690Y012081D01*
X019615Y012006D01*
X019390Y012006D01*
X019390Y011856D02*
X019390Y012306D01*
X018770Y012231D02*
X018695Y012306D01*
X018544Y012306D01*
X018469Y012231D01*
X018469Y011931D01*
X020475Y011082D02*
X020475Y010932D01*
X020550Y010857D01*
X020700Y010857D01*
X020775Y010932D01*
X020775Y011007D01*
X020700Y011082D01*
X020475Y011082D01*
X020625Y011233D01*
X020775Y011308D01*
X019183Y013536D02*
X018807Y013536D01*
X018807Y013837D02*
X019183Y013837D01*
X019258Y013762D01*
X019258Y013611D01*
X019183Y013536D01*
X019258Y013997D02*
X018957Y013997D01*
X018807Y014147D01*
X018957Y014297D01*
X019258Y014297D01*
X019258Y014457D02*
X018807Y014457D01*
X018807Y014682D01*
X018882Y014757D01*
X019032Y014757D01*
X019108Y014682D01*
X019108Y014457D01*
X019108Y014607D02*
X019258Y014757D01*
X018807Y014918D02*
X018807Y015218D01*
X018807Y015068D02*
X019258Y015068D01*
X019032Y014297D02*
X019032Y013997D01*
X019956Y015887D02*
X019806Y016037D01*
X020256Y016037D01*
X020256Y015887D02*
X020256Y016187D01*
X017307Y016450D02*
X017232Y016375D01*
X017082Y016375D01*
X017007Y016450D01*
X017007Y016526D01*
X017082Y016601D01*
X017232Y016601D01*
X017307Y016526D01*
X017307Y016450D01*
X017232Y016601D02*
X017307Y016676D01*
X017307Y016751D01*
X017232Y016826D01*
X017082Y016826D01*
X017007Y016751D01*
X017007Y016676D01*
X017082Y016601D01*
X010978Y016450D02*
X010978Y016751D01*
X010903Y016826D01*
X010678Y016826D01*
X010678Y016375D01*
X010903Y016375D01*
X010978Y016450D01*
X010518Y016450D02*
X010442Y016375D01*
X010292Y016375D01*
X010217Y016450D01*
X010217Y016751D01*
X010292Y016826D01*
X010442Y016826D01*
X010518Y016751D01*
X010057Y016375D02*
X009757Y016375D01*
X009757Y016826D01*
X008907Y015584D02*
X008907Y015284D01*
X008907Y015434D02*
X009358Y015434D01*
X009358Y015124D02*
X009358Y014824D01*
X008907Y014824D01*
X008907Y015124D01*
X009132Y014974D02*
X009132Y014824D01*
X009208Y014663D02*
X009283Y014663D01*
X009358Y014588D01*
X009358Y014438D01*
X009283Y014363D01*
X009132Y014438D02*
X009057Y014363D01*
X008982Y014363D01*
X008907Y014438D01*
X008907Y014588D01*
X008982Y014663D01*
X009132Y014588D02*
X009208Y014663D01*
X009132Y014588D02*
X009132Y014438D01*
X008907Y014203D02*
X008907Y013903D01*
X009358Y013903D01*
X009358Y014203D01*
X009132Y014053D02*
X009132Y013903D01*
X009132Y013743D02*
X008982Y013743D01*
X008907Y013668D01*
X008907Y013442D01*
X009358Y013442D01*
X009208Y013442D02*
X009208Y013668D01*
X009132Y013743D01*
X009208Y013592D02*
X009358Y013743D01*
X010057Y014575D02*
X010357Y014575D01*
X010207Y014575D02*
X010207Y015026D01*
X010057Y014876D01*
X007703Y012751D02*
X007403Y012751D01*
X007243Y012676D02*
X007168Y012751D01*
X007017Y012751D01*
X006942Y012676D01*
X006942Y012376D01*
X007017Y012301D01*
X007168Y012301D01*
X007243Y012376D01*
X007403Y012376D02*
X007403Y012301D01*
X007403Y012376D02*
X007703Y012676D01*
X007703Y012751D01*
X007372Y011398D02*
X007145Y011398D01*
X007259Y011398D02*
X007259Y011057D01*
X006899Y011057D02*
X006899Y011398D01*
X006786Y011398D02*
X007013Y011398D01*
X004866Y015286D02*
X004716Y015286D01*
X004641Y015361D01*
X004480Y015361D02*
X004405Y015286D01*
X004255Y015286D01*
X004180Y015361D01*
X004180Y015737D01*
X004480Y015737D02*
X004480Y015361D01*
X004641Y015662D02*
X004716Y015737D01*
X004866Y015737D01*
X004941Y015662D01*
X004941Y015587D01*
X004866Y015512D01*
X004941Y015437D01*
X004941Y015361D01*
X004866Y015286D01*
X004866Y015512D02*
X004791Y015512D01*
X018253Y004552D02*
X018328Y004627D01*
X018478Y004627D01*
X018553Y004552D01*
X018553Y004252D01*
X018478Y004177D01*
X018328Y004177D01*
X018253Y004252D01*
X018253Y004552D01*
X018713Y004477D02*
X018863Y004627D01*
X018863Y004177D01*
X018713Y004177D02*
X019014Y004177D01*
X018553Y004177D02*
X018403Y004327D01*
X012943Y003162D02*
X012868Y003237D01*
X012718Y003237D01*
X012643Y003162D01*
X012943Y003162D02*
X012943Y003087D01*
X012643Y002786D01*
X012943Y002786D01*
X010993Y002786D02*
X010693Y002786D01*
X010843Y002786D02*
X010843Y003237D01*
X010693Y003087D01*
X010202Y002168D02*
X010202Y001718D01*
X010052Y001718D02*
X010352Y001718D01*
X010052Y002018D02*
X010202Y002168D01*
X009892Y002093D02*
X009817Y002168D01*
X009592Y002168D01*
X009592Y001718D01*
X009817Y001718D01*
X009892Y001793D01*
X009892Y002093D01*
X010963Y001017D02*
X011263Y000566D01*
X011424Y000566D02*
X011724Y000867D01*
X011724Y000942D01*
X011649Y001017D01*
X011499Y001017D01*
X011424Y000942D01*
X011263Y001017D02*
X010963Y000566D01*
X011424Y000566D02*
X011724Y000566D01*
X007947Y000906D02*
X007872Y000831D01*
X007721Y000831D01*
X007646Y000906D01*
X007646Y001056D01*
X007872Y001056D01*
X007947Y000981D01*
X007947Y000906D01*
X007797Y001206D02*
X007646Y001056D01*
X007797Y001206D02*
X007947Y001281D01*
X007486Y001206D02*
X007411Y001281D01*
X007261Y001281D01*
X007186Y001206D01*
X007186Y000906D01*
X007261Y000831D01*
X007411Y000831D01*
X007486Y000906D01*
X006623Y001132D02*
X006283Y001132D01*
X006283Y001245D02*
X006283Y001018D01*
X006283Y001377D02*
X006283Y001604D01*
X006283Y001491D02*
X006623Y001491D01*
X003236Y001713D02*
X002936Y002014D01*
X002861Y002014D01*
X002786Y001939D01*
X002786Y001788D01*
X002861Y001713D01*
X003236Y001713D02*
X003236Y002014D01*
X001016Y002933D02*
X000566Y003233D01*
X000716Y003393D02*
X000566Y003544D01*
X001016Y003544D01*
X001016Y003694D02*
X001016Y003393D01*
X001016Y003233D02*
X000566Y002933D01*
X002786Y003814D02*
X003236Y003814D01*
X003236Y003964D02*
X003236Y003663D01*
X002936Y003663D02*
X002786Y003814D01*
X026977Y015426D02*
X026977Y015726D01*
X027052Y015726D01*
X027352Y015426D01*
X027427Y015426D01*
X029048Y013160D02*
X028973Y013085D01*
X028973Y012859D01*
X029424Y012859D01*
X029424Y013085D01*
X029349Y013160D01*
X029048Y013160D01*
X029124Y012699D02*
X029424Y012699D01*
X029199Y012699D02*
X029199Y012399D01*
X029124Y012399D02*
X028973Y012549D01*
X029124Y012699D01*
X029124Y012399D02*
X029424Y012399D01*
X029199Y012239D02*
X029274Y012164D01*
X029274Y011939D01*
X029424Y011939D02*
X028973Y011939D01*
X028973Y012164D01*
X029048Y012239D01*
X029199Y012239D01*
X029048Y011779D02*
X028973Y011779D01*
X029048Y011779D02*
X029199Y011628D01*
X029424Y011628D01*
X029199Y011628D02*
X029048Y011478D01*
X028973Y011478D01*
X028973Y011318D02*
X028973Y011018D01*
X029424Y011018D01*
X029424Y011318D01*
X029199Y011168D02*
X029199Y011018D01*
X029424Y010858D02*
X029199Y010633D01*
X029274Y010558D02*
X028973Y010858D01*
X028973Y010558D02*
X029424Y010558D01*
X029227Y009626D02*
X029227Y009326D01*
X029227Y009476D02*
X028777Y009476D01*
X028927Y009326D01*
X028952Y004727D02*
X028952Y004352D01*
X029027Y004277D01*
X029177Y004277D01*
X029252Y004352D01*
X029252Y004727D01*
X029412Y004502D02*
X029637Y004727D01*
X029637Y004277D01*
X029712Y004502D02*
X029412Y004502D01*
D17*
X008811Y006458D03*
X008811Y002108D03*
D18*
X008811Y005783D03*
D19*
X005861Y010582D03*
D20*
X012126Y012118D02*
X016126Y012118D01*
X008633Y014216D02*
X008533Y014216D01*
X008533Y015216D01*
X008633Y015216D01*
X006333Y015216D02*
X006333Y014266D01*
X006233Y014266D01*
X006233Y015216D02*
X006333Y015216D01*
X030110Y004102D02*
X030110Y002102D01*
D21*
X014979Y006647D03*
X012420Y006647D03*
D22*
X013669Y008417D03*
X011110Y008417D03*
D23*
X011360Y006692D03*
X013919Y006692D03*
X013919Y010142D03*
X011360Y010142D03*
D24*
X011360Y008917D03*
X011360Y007917D03*
X013919Y007917D03*
X013919Y008917D03*
D25*
X019221Y016488D03*
D26*
X017980Y002868D02*
X017937Y002922D01*
X017891Y002974D01*
X017842Y003023D01*
X017790Y003070D01*
X017736Y003113D01*
X017680Y003154D01*
X017621Y003191D01*
X017561Y003225D01*
X017498Y003255D01*
X017435Y003282D01*
X017369Y003306D01*
X017303Y003326D01*
X017235Y003342D01*
X017167Y003354D01*
X017098Y003362D01*
X017029Y003367D01*
X016959Y003368D01*
X016890Y003365D01*
X016821Y003358D01*
X016753Y003347D01*
X016685Y003333D01*
X016618Y003314D01*
X016552Y003292D01*
X016487Y003267D01*
X016424Y003238D01*
X016363Y003205D01*
X016304Y003169D01*
X016247Y003130D01*
X016191Y003088D01*
X016139Y003043D01*
X016089Y002995D01*
X016042Y002944D01*
X015997Y002890D01*
X015956Y002835D01*
X015918Y002777D01*
X015883Y002717D01*
X015851Y002655D01*
X015823Y002592D01*
X015799Y002527D01*
X015778Y002461D01*
X015761Y002393D01*
X015747Y002325D01*
X015738Y002256D01*
X015732Y002187D01*
X015730Y002118D01*
X015732Y002049D01*
X015738Y001980D01*
X015747Y001911D01*
X015761Y001843D01*
X015778Y001775D01*
X015799Y001709D01*
X015823Y001644D01*
X015851Y001581D01*
X015883Y001519D01*
X015918Y001459D01*
X015956Y001401D01*
X015997Y001346D01*
X016042Y001292D01*
X016089Y001241D01*
X016139Y001193D01*
X016191Y001148D01*
X016247Y001106D01*
X016304Y001067D01*
X016363Y001031D01*
X016424Y000998D01*
X016487Y000969D01*
X016552Y000944D01*
X016618Y000922D01*
X016685Y000903D01*
X016753Y000889D01*
X016821Y000878D01*
X016890Y000871D01*
X016959Y000868D01*
X017029Y000869D01*
X017098Y000874D01*
X017167Y000882D01*
X017235Y000894D01*
X017303Y000910D01*
X017369Y000930D01*
X017435Y000954D01*
X017498Y000981D01*
X017561Y001011D01*
X017621Y001045D01*
X017680Y001082D01*
X017736Y001123D01*
X017790Y001166D01*
X017842Y001213D01*
X017891Y001262D01*
X017937Y001314D01*
X017980Y001368D01*
M02*
