%
M48
M72
T01C0.0197
T02C0.0236
T03C0.0320
T04C0.0354
T05C0.0390
T06C0.0400
T07C0.0470
T08C0.0590
T09C0.1417
%
T01
X23771Y17275
X25149Y16094
X8023Y5267
X23319Y8220
X19244Y6842
X9204Y16291
X10385Y14322
X9401Y17531
X19834Y17472
X3889Y15405
X2511Y16291
X2118Y12354
X5070Y15405
X28988Y3299
X30858Y4283
X30661Y1527
X22984Y5464
X24756Y1330
X26429Y5759
X28594Y7925
X23476Y9696
X16488Y14126
X7039Y4480
X23476Y15011
X22590Y2807
X19244Y4283
X18161Y2511
X16094Y740
X3102Y14126
X28004Y4775
X16389Y11527
X18850Y12610
X21212Y10444
X22689Y12846
X16586Y4086
X10779Y6055
X14519Y6055
X16094Y6645
X15307Y12354
X14322Y13141
X10189Y4578
X10189Y3594
X26626Y9893
X22590Y3791
X19933Y9303
X25838Y7767
X23181Y17078
X18063Y17275
X9007Y9007
X9598Y9007
X26724Y1724
X19834Y740
X12748Y13141
X23574Y11370
X15897Y4086
X11960Y4086
X9007Y4086
X9401Y4086
X17078Y10385
X13437Y12256
X18948Y9401
X24165Y3299
X20720Y4874
X22984Y6252
X22984Y8811
X20622Y2118
X17866Y937
X14716Y6547
T02
X29086Y7630
X30464Y7630
X13732Y14716
T03
X19244Y5892
X19244Y7792
X5858Y1511
X5858Y3511
X6661Y10582
X4661Y10582
X4980Y14519
X4480Y13769
X3980Y14519
X16480Y2118
X17480Y2118
T04
X5842Y5779
X5842Y7118
X5842Y5110
X5842Y6448
X5842Y7787
X3220Y7826
X622Y7826
T05
X22149Y15315
X22149Y14315
X22149Y13315
X22149Y12315
X22149Y11315
X22149Y10315
X22149Y9315
X22149Y8315
X22149Y7315
X22149Y6315
X22149Y5315
X22149Y4315
X22149Y3315
X22149Y2315
X25149Y2315
X25149Y3315
X25149Y4315
X25149Y5315
X25149Y6315
X25149Y7315
X25149Y8315
X25149Y9315
X25149Y10315
X25149Y11315
X25149Y12315
X25149Y13315
X25149Y14315
X25149Y15315
T06
X17850Y10082
X18850Y10082
X19850Y10082
X17850Y11082
X18850Y11082
X19850Y11082
X10232Y15700
X11232Y15700
X12232Y15700
X13232Y15700
X14232Y15700
X15232Y15700
X16232Y15700
X17232Y15700
X8323Y15996
X6543Y15996
X8323Y13436
X6543Y13436
X20031Y15322
X20031Y14322
X20031Y13322
X28102Y9551
X28102Y10551
X28102Y11551
X28102Y12551
X28102Y13551
X28102Y14551
X28102Y15551
X11960Y7417
X11960Y8417
X11960Y9417
X14519Y7417
X14519Y8417
X14519Y9417
T07
X2011Y3299
X2011Y1330
X11468Y2011
X13437Y2011
T08
X8811Y7283
X8811Y1283
T09
X9401Y11370
M30
