G75*
%MOIN*%
%OFA0B0*%
%FSLAX24Y24*%
%IPPOS*%
%LPD*%
%AMOC8*
5,1,8,0,0,1.08239X$1,22.5*
%
%ADD10C,0.0000*%
%ADD11R,0.0666X0.0666*%
%ADD12C,0.0666*%
%ADD13C,0.0596*%
%ADD14C,0.0679*%
%ADD15OC8,0.0679*%
%ADD16C,0.0630*%
%ADD17C,0.0964*%
%ADD18OC8,0.0596*%
%ADD19C,0.0630*%
%ADD20C,0.0784*%
%ADD21C,0.0679*%
%ADD22C,0.2379*%
%ADD23C,0.0394*%
%ADD24C,0.0433*%
D10*
X000149Y000149D02*
X000149Y017866D01*
X030563Y017866D01*
X030563Y008712D01*
X031645Y007630D01*
X031645Y000149D01*
X000149Y000149D01*
D11*
X022149Y015315D03*
D12*
X022149Y014315D03*
X022149Y013315D03*
X022149Y012315D03*
X022149Y011315D03*
X022149Y010315D03*
X022149Y009315D03*
X022149Y008315D03*
X022149Y007315D03*
X022149Y006315D03*
X022149Y005315D03*
X022149Y004315D03*
X022149Y003315D03*
X022149Y002315D03*
X025149Y002315D03*
X025149Y003315D03*
X025149Y004315D03*
X025149Y005315D03*
X025149Y006315D03*
X025149Y007315D03*
X025149Y008315D03*
X025149Y009315D03*
X025149Y010315D03*
X025149Y011315D03*
X025149Y012315D03*
X025149Y013315D03*
X025149Y014315D03*
X025149Y015315D03*
D13*
X019244Y007792D03*
X019244Y005892D03*
X005858Y003511D03*
X004661Y010582D03*
D14*
X017850Y010082D03*
D15*
X018850Y010082D03*
X019850Y010082D03*
X019850Y011082D03*
X018850Y011082D03*
X017850Y011082D03*
D16*
X006118Y007787D02*
X005567Y007787D01*
X005567Y007118D02*
X006118Y007118D01*
X006118Y006448D02*
X005567Y006448D01*
X005567Y005779D02*
X006118Y005779D01*
X006118Y005110D02*
X005567Y005110D01*
D17*
X008811Y006841D02*
X008811Y007726D01*
X008811Y001726D02*
X008811Y000841D01*
D18*
X005858Y001511D03*
X016480Y002118D03*
X017480Y002118D03*
X006661Y010582D03*
X004480Y013769D03*
X004980Y014519D03*
X003980Y014519D03*
D19*
X003220Y007826D03*
X000622Y007826D03*
D20*
X001659Y003299D02*
X002364Y003299D01*
X002364Y001330D02*
X001659Y001330D01*
X011468Y001659D02*
X011468Y002364D01*
X013437Y002364D02*
X013437Y001659D01*
D21*
X014219Y007417D02*
X014819Y007417D01*
X014819Y008417D02*
X014219Y008417D01*
X014219Y009417D02*
X014819Y009417D01*
X012260Y009417D02*
X011660Y009417D01*
X011660Y008417D02*
X012260Y008417D01*
X012260Y007417D02*
X011660Y007417D01*
X008323Y013136D02*
X008323Y013736D01*
X006543Y013736D02*
X006543Y013136D01*
X010232Y015400D02*
X010232Y016000D01*
X011232Y016000D02*
X011232Y015400D01*
X012232Y015400D02*
X012232Y016000D01*
X013232Y016000D02*
X013232Y015400D01*
X014232Y015400D02*
X014232Y016000D01*
X015232Y016000D02*
X015232Y015400D01*
X016232Y015400D02*
X016232Y016000D01*
X017232Y016000D02*
X017232Y015400D01*
X019731Y015322D02*
X020331Y015322D01*
X020331Y014322D02*
X019731Y014322D01*
X019731Y013322D02*
X020331Y013322D01*
X027802Y013551D02*
X028402Y013551D01*
X028402Y014551D02*
X027802Y014551D01*
X027802Y015551D02*
X028402Y015551D01*
X028402Y012551D02*
X027802Y012551D01*
X027802Y011551D02*
X028402Y011551D01*
X028402Y010551D02*
X027802Y010551D01*
X027802Y009551D02*
X028402Y009551D01*
X008323Y015696D02*
X008323Y016296D01*
X006543Y016296D02*
X006543Y015696D01*
D22*
X009401Y011370D03*
D23*
X012748Y013141D03*
X013437Y012256D03*
X014322Y013141D03*
X015307Y012354D03*
X016389Y011527D03*
X017078Y010385D03*
X018948Y009401D03*
X019933Y009303D03*
X021212Y010444D03*
X023476Y009696D03*
X022984Y008811D03*
X023319Y008220D03*
X025838Y007767D03*
X028594Y007925D03*
X026626Y009893D03*
X023574Y011370D03*
X022689Y012846D03*
X023476Y015011D03*
X025149Y016094D03*
X023771Y017275D03*
X023181Y017078D03*
X019834Y017472D03*
X018063Y017275D03*
X016488Y014126D03*
X018850Y012610D03*
X010385Y014322D03*
X009204Y016291D03*
X009401Y017531D03*
X005070Y015405D03*
X003889Y015405D03*
X002511Y016291D03*
X005858Y014322D03*
X003102Y014126D03*
X002118Y012354D03*
X009007Y009007D03*
X009598Y009007D03*
X010779Y006055D03*
X010189Y004578D03*
X009401Y004086D03*
X009007Y004086D03*
X010189Y003594D03*
X011960Y004086D03*
X014519Y006055D03*
X014716Y006547D03*
X016094Y006645D03*
X019244Y006842D03*
X020720Y004874D03*
X019244Y004283D03*
X016586Y004086D03*
X015897Y004086D03*
X018161Y002511D03*
X020622Y002118D03*
X022590Y002807D03*
X024165Y003299D03*
X022590Y003791D03*
X022984Y005464D03*
X022984Y006252D03*
X026429Y005759D03*
X028004Y004775D03*
X028988Y003299D03*
X030858Y004283D03*
X026724Y001724D03*
X024756Y001330D03*
X019834Y000740D03*
X017866Y000937D03*
X016094Y000740D03*
X008023Y005267D03*
X007039Y004480D03*
X030661Y001527D03*
D24*
X030464Y007630D03*
X029086Y007630D03*
X013732Y014716D03*
M02*
